<svg width="3468" height="3267" viewBox="0 0 3468 3267" fill="none" xmlns="http://www.w3.org/2000/svg">
<path opacity="0.5" d="M1833.39 3090.79C2718.15 3090.79 3435.39 3064.83 3435.39 3032.79C3435.39 3000.76 2718.15 2974.79 1833.39 2974.79C948.628 2974.79 231.388 3000.76 231.388 3032.79C231.388 3064.83 948.628 3090.79 1833.39 3090.79Z" fill="#D5ECFF"/>
<path fill-rule="evenodd" clip-rule="evenodd" d="M231.388 2157.79V118.786C231.388 64.1159 262.927 19.7949 301.832 19.7949H3126.95C3165.85 19.7949 3197.39 64.1159 3197.39 118.786V2153.12C3197.39 2155.71 3195.9 2157.79 3194.07 2157.79H231.388Z" fill="#FCEBEC"/>
<path fill-rule="evenodd" clip-rule="evenodd" d="M2984.39 2405.79L3147.39 2157.79H2821.39L2984.39 2405.79Z" fill="#DDB0C8"/>
<path fill-rule="evenodd" clip-rule="evenodd" d="M354.388 97.7949C354.388 112.707 342.3 124.795 327.388 124.795C312.476 124.795 300.388 112.707 300.388 97.7949C300.388 82.8829 312.476 70.7949 327.388 70.7949C342.3 70.7949 354.388 82.8829 354.388 97.7949Z" fill="#E93737"/>
<path fill-rule="evenodd" clip-rule="evenodd" d="M466.388 95.7949C466.388 110.707 454.3 122.795 439.388 122.795C424.476 122.795 412.388 110.707 412.388 95.7949C412.388 80.8829 424.476 68.7949 439.388 68.7949C454.3 68.7949 466.388 80.8829 466.388 95.7949Z" fill="#F9C818"/>
<path fill-rule="evenodd" clip-rule="evenodd" d="M582.388 96.7949C582.388 111.707 570.3 123.795 555.388 123.795C540.476 123.795 528.388 111.707 528.388 96.7949C528.388 81.8829 540.476 69.7949 555.388 69.7949C570.3 69.7949 582.388 81.8829 582.388 96.7949Z" fill="#1BC0D7"/>
<path d="M3197.39 165.795H1714.39V1053.79H3197.39V165.795Z" fill="#FFE89D"/>
<mask id="mask0_1261:7210" style="mask-type:alpha" maskUnits="userSpaceOnUse" x="1714" y="165" width="1484" height="889">
<path d="M3197.39 165.795H1714.39V1053.79H3197.39V165.795Z" fill="white"/>
</mask>
<g mask="url(#mask0_1261:7210)">
<path fill-rule="evenodd" clip-rule="evenodd" d="M2460.43 539.795C2460.43 539.795 2464.12 620.948 2511.46 649.595C2554.41 675.586 2463.42 826.405 2365.53 817.409C2311.95 812.483 2299.39 665.953 2299.39 665.953C2299.39 665.953 2342.65 657.592 2326.67 591.614L2460.43 539.795Z" fill="#C26E5E"/>
<path fill-rule="evenodd" clip-rule="evenodd" d="M2382.05 622.311C2445.51 614.636 2491.31 572.911 2497.72 503.693C2516.17 506.63 2520.52 458.56 2515.38 443.118C2510.24 427.654 2493.45 436.696 2493.45 436.696C2493.45 436.696 2492.06 433.03 2491.08 429.021C2463.36 315.309 2385.72 319.819 2385.72 319.819C2243.04 327.252 2276.47 472.915 2284.62 511.558C2292.78 550.205 2320.7 629.722 2382.05 622.311Z" fill="#C26E5E"/>
<path fill-rule="evenodd" clip-rule="evenodd" d="M2727.8 739.279C2770.45 806.811 2767.46 873.449 2797.67 894.775C2827.88 916.102 2840.32 946.313 2849.21 985.41C2858.09 1024.51 2849.21 1003.53 2849.21 1003.53L2698.81 1106.86C2698.81 1106.86 2609.29 921.433 2625.29 980.078C2641.28 1038.72 2679.03 1285.4 2663.79 1299.57C2648.55 1313.74 2505.42 1368.58 2375.82 1362.67C2262.27 1357.49 2155.29 1327.2 2155.29 1318.91C2155.29 1301.14 2181 1100.92 2181 1100.92L2047.71 1070.71C2047.71 1070.71 2058.91 804.795 2172.77 715.444C2172.77 715.444 2234.44 670.374 2310.35 653.77C2310.35 653.77 2332.49 702.003 2402.08 703.584C2471.66 705.165 2494.22 680.297 2511.59 652.795C2511.59 652.795 2685.15 671.747 2727.8 739.279Z" fill="#FC7750"/>
<path fill-rule="evenodd" clip-rule="evenodd" d="M2718.79 1093.9C2718.79 1093.9 2781.66 1232.45 2847.4 1185.67C2913.14 1138.88 2950.05 1082.32 3045.01 949.793C3082.32 897.727 3175.69 770.89 3151.31 761.078C3137.76 755.624 3053.84 837.129 3006.38 869.402C2992.4 878.909 2872.57 996.237 2859.62 997.966C2846.68 999.695 2718.79 1093.9 2718.79 1093.9Z" fill="#C26E5E"/>
<path fill-rule="evenodd" clip-rule="evenodd" d="M2997.94 866.945C2997.94 866.945 2985.43 846.189 3032.16 801.471C3056.82 777.874 3075.48 723.356 3089.17 732.736C3102.86 742.116 3074.4 806.321 3074.4 806.321C3074.4 806.321 3104.26 779.313 3121.91 749.555C3139.56 719.799 3155.97 695.608 3155.97 695.608C3155.97 695.608 3169.97 686.619 3170.93 700.776C3171.88 714.933 3167.91 719.437 3167.91 719.437C3167.91 719.437 3178.67 716.912 3178.88 727.755C3179.09 738.596 3177.11 740.849 3177.11 740.849C3177.11 740.849 3185.2 739.971 3185.38 749.459C3185.57 758.945 3180.28 764.952 3180.28 764.952C3180.28 764.952 3186.39 766.326 3181.21 777.754C3176.03 789.18 3146.81 848.715 3126.25 867.923C3105.69 887.131 3052.04 919.92 3052.04 919.92C3052.04 919.92 2993.21 883.274 2997.94 866.945Z" fill="#C26E5E"/>
<path fill-rule="evenodd" clip-rule="evenodd" d="M3123.13 827.631C3123.79 827.152 3139.52 815.604 3156.27 788.617C3171.3 764.375 3176.97 765.952 3177.02 765.979C3177.02 765.978 3176.97 765.96 3176.88 765.898L3178.51 763.384C3178.26 763.219 3177.29 762.705 3175.54 763.093C3171.85 763.914 3165.07 768.735 3153.72 787.035C3137.28 813.524 3121.53 825.086 3121.37 825.199L3123.13 827.631Z" fill="black"/>
<path fill-rule="evenodd" clip-rule="evenodd" d="M3114.9 814.462C3114.94 814.422 3119.3 810.376 3131.19 799.799C3139.65 792.278 3150.06 775.502 3157.66 763.253C3161.08 757.738 3164.03 752.977 3165.98 750.379C3171.78 742.662 3177.26 742.219 3177.31 742.217L3177.18 739.219C3176.9 739.232 3170.32 739.612 3163.59 748.578C3161.56 751.281 3158.57 756.096 3155.11 761.671C3147.6 773.764 3137.33 790.326 3129.2 797.557C3117.28 808.162 3112.9 812.224 3112.85 812.263L3114.9 814.462Z" fill="black"/>
<path fill-rule="evenodd" clip-rule="evenodd" d="M3108.49 803.562C3108.65 803.415 3125.04 788.616 3136.22 774.043C3146.68 760.405 3155.2 741.958 3159.78 732.048L3160.83 729.77C3164.57 721.737 3167.93 720.711 3167.96 720.703L3167.3 717.778C3166.82 717.878 3162.52 719.032 3158.11 728.504L3157.05 730.79C3152.52 740.594 3144.09 758.843 3133.83 772.217C3122.82 786.574 3106.64 801.186 3106.48 801.332L3108.49 803.562Z" fill="black"/>
<path fill-rule="evenodd" clip-rule="evenodd" d="M3046.43 828.883C3046.52 828.794 3055.6 819.966 3062.81 817.479C3070.83 814.714 3075.63 807.449 3075.83 807.142L3073.32 805.502C3073.28 805.569 3068.85 812.221 3061.83 814.643C3053.98 817.352 3044.72 826.357 3044.33 826.738L3046.43 828.883Z" fill="black"/>
<path fill-rule="evenodd" clip-rule="evenodd" d="M2402.48 551.745C2402.48 551.745 2404.94 567.505 2383.17 573.449C2361.41 579.391 2351.11 577.955 2350.16 567.751C2350.16 567.751 2352.14 556.175 2357.26 554.975C2362.38 553.774 2368.2 555.841 2368.2 555.841C2368.2 555.841 2372.42 548.276 2377.95 548.221C2383.47 548.167 2395.21 553.006 2402.48 551.745Z" fill="#CE4129"/>
<path fill-rule="evenodd" clip-rule="evenodd" d="M2364.71 565.774C2380.56 561.349 2399.48 555.772 2405.12 551.888C2409.23 549.053 2410.94 549.381 2410.96 549.386C2410.95 549.386 2408.82 544.482 2402.85 548.593C2397.04 552.598 2371.89 559.615 2363.63 561.922C2349.18 565.955 2347.74 565.382 2345.92 564.659L2344.44 568.373C2346.2 569.077 2347.82 569.43 2351.3 568.941C2354.16 568.54 2358.26 567.574 2364.71 565.774Z" fill="black"/>
<path fill-rule="evenodd" clip-rule="evenodd" d="M2376.93 625.971C2390.78 625.971 2405.1 621.931 2415.37 618.199C2428.53 613.418 2438.08 608.092 2438.17 608.039L2436.71 605.422C2436.34 605.631 2399.24 626.184 2369.59 622.541L2369.23 625.518C2371.76 625.829 2374.33 625.971 2376.93 625.971Z" fill="black"/>
<path d="M2339.45 455.311L2335.64 456.533L2336.01 457.726C2336.31 458.699 2336.64 459.813 2337 461.048C2338.03 464.579 2339.06 468.371 2340.02 472.274C2341.09 476.612 2342 480.82 2342.72 484.793L2342.92 485.969C2344.66 496.073 2344.91 503.788 2343.35 507.937L2343.26 508.172C2334.38 530.135 2346.44 541.273 2371.74 533.474L2372.51 533.232L2371.3 529.422C2348.5 536.716 2339.36 528.498 2346.97 509.671C2349.07 504.489 2348.74 495.694 2346.65 484.084C2345.92 480.022 2344.99 475.734 2343.9 471.319C2343.04 467.798 2342.12 464.368 2341.19 461.133L2340.84 459.929C2340.64 459.212 2340.44 458.535 2340.24 457.902L2339.76 456.297L2339.45 455.311Z" fill="black"/>
<path d="M2438.2 608.329L2436.25 604.841L2435.53 605.23L2434.88 605.578C2433.88 606.1 2432.75 606.676 2431.5 607.293L2430.95 607.56C2426.73 609.616 2422.07 611.673 2417.09 613.593C2405.64 618.007 2394.33 621.02 2383.8 621.997C2379.03 622.44 2374.51 622.451 2370.28 621.997L2369.44 621.9L2368.95 625.87C2373.72 626.458 2378.81 626.478 2384.17 625.98C2395.11 624.964 2406.76 621.861 2418.53 617.325C2423.62 615.362 2428.39 613.26 2432.71 611.156L2434.34 610.349C2435.03 610.001 2435.69 609.668 2436.29 609.351L2437.42 608.753L2438.2 608.329Z" fill="black"/>
<path fill-rule="evenodd" clip-rule="evenodd" d="M2357.56 535.961C2361.61 535.961 2366.65 535.17 2372.94 533.156L2371.73 529.346C2360 533.097 2351.34 532.791 2347.34 528.482C2343.94 524.815 2343.96 518.108 2347.4 509.596C2349.74 503.821 2349.16 492.868 2345.69 477.04C2343.14 465.457 2339.91 455.336 2339.88 455.235L2336.07 456.457C2339.58 467.39 2347.78 497.982 2343.69 508.097C2338.49 520.955 2341.21 527.759 2344.41 531.203C2346.69 533.661 2350.67 535.961 2357.56 535.961Z" fill="black"/>
<path fill-rule="evenodd" clip-rule="evenodd" d="M2384.75 481.924C2385.48 481.924 2386.2 481.663 2386.78 481.134C2386.82 481.1 2391.76 476.708 2398.9 476.974C2406.29 477.247 2411.2 480.862 2411.25 480.898C2412.57 481.888 2414.45 481.628 2415.44 480.312C2416.44 478.995 2416.19 477.126 2414.88 476.123C2414.62 475.927 2408.5 471.325 2399.13 470.978C2389.48 470.631 2382.99 476.465 2382.72 476.714C2381.5 477.834 2381.42 479.732 2382.54 480.952C2383.13 481.597 2383.94 481.924 2384.75 481.924Z" fill="black"/>
<path fill-rule="evenodd" clip-rule="evenodd" d="M2435.71 466.974C2435.71 466.974 2424.28 453.298 2413.96 447.528C2407.59 443.967 2368.26 436.344 2366.82 444.405C2365.42 452.258 2369.46 452.529 2385.15 455.083C2400.83 457.637 2408.18 458.268 2416.42 462.141C2424.66 466.014 2433.97 471.29 2435.71 466.974Z" fill="black"/>
<path fill-rule="evenodd" clip-rule="evenodd" d="M2283.99 476.599C2283.99 476.599 2282.54 468.306 2284.53 462.891C2286.53 457.478 2311.23 434.946 2318.47 436.907C2329.98 440.023 2325.84 445.54 2311.26 455.341C2299.54 463.224 2294.87 466.258 2290.45 471.812C2284.41 479.4 2284.86 477.822 2283.99 476.599Z" fill="black"/>
<path fill-rule="evenodd" clip-rule="evenodd" d="M2300.63 491.067C2301.36 491.067 2302.08 490.806 2302.66 490.277C2302.7 490.243 2307.65 485.845 2314.79 486.117C2322.16 486.389 2327.07 489.996 2327.12 490.032C2328.43 491.039 2330.32 490.787 2331.32 489.471C2332.33 488.155 2332.08 486.272 2330.76 485.266C2330.51 485.07 2324.38 480.467 2315.01 480.121C2305.36 479.776 2298.88 485.608 2298.6 485.857C2297.38 486.977 2297.3 488.875 2298.42 490.095C2299.01 490.74 2299.82 491.067 2300.63 491.067Z" fill="black"/>
<mask id="mask1_1261:7210" style="mask-type:alpha" maskUnits="userSpaceOnUse" x="2186" y="291" width="517" height="474">
<path fill-rule="evenodd" clip-rule="evenodd" d="M2702.39 291.795H2186.21V764.051H2702.39V291.795Z" fill="white"/>
</mask>
<g mask="url(#mask1_1261:7210)">
<path fill-rule="evenodd" clip-rule="evenodd" d="M2309.48 758.415C2335.86 766.665 2314.82 694.675 2325.23 677.755C2335.64 660.835 2345.1 622.405 2330.13 604.185C2315.17 585.965 2286.13 537.595 2282.03 497.345C2277.94 457.105 2285.48 438.435 2285.48 438.435C2285.48 438.435 2314.83 449.105 2340.63 425.095C2356.28 410.525 2387.06 399.685 2410.21 379.075C2410.4 387.995 2413.11 401.845 2427.28 406.355C2448.77 413.195 2447.46 442.315 2492.56 437.525C2492.56 437.525 2515.07 425.665 2516.81 453.995C2518.54 482.335 2510.1 502.115 2497.47 503.435C2497.47 503.435 2481.65 508.395 2485.59 529.895C2489.53 551.385 2461.2 566.125 2465.95 593.665C2470.7 621.205 2483.99 629.755 2474.5 654.445C2465 679.135 2461.79 707.995 2473.36 732.785C2484.92 757.575 2548.02 717.805 2572.75 737.165C2597.48 756.515 2599.63 744.685 2630.81 727.485C2661.99 710.285 2695.43 733.905 2695.19 701.265C2694.84 654.515 2714.68 623.185 2689.95 601.685C2665.22 580.185 2668.52 559.025 2657.56 533.645C2641.94 497.465 2611.96 494.995 2606.58 467.045C2601.21 439.085 2588.62 406.555 2554.43 384.865C2516.05 360.535 2494.26 292.025 2445.88 311.375C2443.81 312.205 2441.85 313.075 2440 313.975C2439.25 303.715 2433.21 288.785 2403.49 292.325C2359.09 297.615 2279.78 305.015 2267.1 346.255C2254.41 387.485 2257.58 420.265 2240.66 460.445C2223.75 500.625 2253.35 516.485 2239.61 542.915C2225.86 569.345 2199.43 597.895 2201.54 625.385C2203.66 652.875 2217.4 687.775 2194.14 716.325C2170.88 744.865 2203.66 766.015 2230.09 763.905C2256.52 761.785 2283.1 750.175 2309.48 758.415Z" fill="#711515"/>
</g>
<path fill-rule="evenodd" clip-rule="evenodd" d="M2442.35 470.472C2442.35 449.378 2425.25 432.276 2404.15 432.276C2383.06 432.276 2365.96 449.378 2365.96 470.472C2365.96 491.568 2383.06 508.668 2404.15 508.668C2425.25 508.668 2442.35 491.567 2442.35 470.472ZM2374.96 470.472C2374.96 454.348 2388.03 441.276 2404.15 441.276C2420.28 441.276 2433.35 454.349 2433.35 470.472C2433.35 486.597 2420.28 499.668 2404.15 499.668C2388.03 499.668 2374.96 486.597 2374.96 470.472Z" fill="black"/>
<path fill-rule="evenodd" clip-rule="evenodd" d="M2348.43 479.58C2348.43 458.485 2331.33 441.384 2310.23 441.384C2289.14 441.384 2272.04 458.484 2272.04 479.58C2272.04 500.675 2289.14 517.776 2310.23 517.776C2331.33 517.776 2348.43 500.675 2348.43 479.58ZM2281.04 479.58C2281.04 463.455 2294.11 450.384 2310.23 450.384C2326.36 450.384 2339.43 463.455 2339.43 479.58C2339.43 495.704 2326.36 508.776 2310.23 508.776C2294.11 508.776 2281.04 495.704 2281.04 479.58Z" fill="black"/>
<path d="M2493.03 443.105C2492.13 440.865 2489.64 439.742 2487.38 440.522L2487.18 440.598L2437.18 460.598C2434.87 461.521 2433.75 464.14 2434.67 466.447C2435.57 468.687 2438.06 469.81 2440.32 469.03L2440.52 468.954L2490.52 448.954C2492.83 448.031 2493.95 445.412 2493.03 443.105Z" fill="black"/>
<path d="M2374.54 472.36C2374.28 469.961 2372.17 468.213 2369.79 468.367L2369.57 468.386L2343.35 471.304C2340.88 471.579 2339.1 473.804 2339.38 476.274C2339.65 478.673 2341.75 480.421 2344.14 480.267L2344.35 480.248L2370.57 477.33C2373.04 477.056 2374.82 474.83 2374.54 472.36Z" fill="black"/>
</g>
<path d="M1714.39 165.795H231.388V1053.79H1714.39V165.795Z" fill="#237978"/>
<mask id="mask2_1261:7210" style="mask-type:alpha" maskUnits="userSpaceOnUse" x="231" y="165" width="1484" height="889">
<path d="M1714.39 165.795H231.388V1053.79H1714.39V165.795Z" fill="white"/>
</mask>
<g mask="url(#mask2_1261:7210)">
<path fill-rule="evenodd" clip-rule="evenodd" d="M911.342 512.84C911.342 512.84 907.651 593.993 860.312 622.64C817.361 648.631 908.356 799.45 1006.25 790.454C1059.83 785.528 1072.39 638.998 1072.39 638.998C1072.39 638.998 1029.12 630.637 1045.1 564.659L911.342 512.84Z" fill="#F6CBC3"/>
<path fill-rule="evenodd" clip-rule="evenodd" d="M989.725 595.356C926.265 587.681 880.466 545.956 874.053 476.738C855.604 479.675 851.253 431.605 856.391 416.163C861.534 400.699 878.321 409.741 878.321 409.741C878.321 409.741 879.715 406.075 880.691 402.066C908.413 288.355 986.058 292.864 986.058 292.864C1128.73 300.297 1095.3 445.96 1087.15 484.603C1079 523.25 1051.07 602.767 989.725 595.356Z" fill="#F6CBC3"/>
<path fill-rule="evenodd" clip-rule="evenodd" d="M757.89 952.084L721.872 1289.2C721.872 1289.2 978.314 1335.31 1200.18 1263.27L1213.15 966.491L757.89 952.084Z" fill="black"/>
<mask id="mask3_1261:7210" style="mask-type:alpha" maskUnits="userSpaceOnUse" x="613" y="618" width="705" height="618">
<path fill-rule="evenodd" clip-rule="evenodd" d="M613.388 618.84H1317.78V1235.32H613.388V618.84Z" fill="white"/>
</mask>
<g mask="url(#mask3_1261:7210)">
<path fill-rule="evenodd" clip-rule="evenodd" d="M723.612 1190.05C723.612 1190.05 600.412 1113.23 614.512 988.642C628.612 864.052 681.134 693.96 771.373 659.006C861.612 624.052 864.447 618.84 864.447 618.84C864.447 618.84 900.612 666.052 963.612 669.052C1026.61 672.052 1067.61 637.052 1067.61 637.052C1067.61 637.052 1191.34 666.523 1226.98 722.287C1262.61 778.052 1353.61 1027.05 1302.61 1106.05C1251.61 1185.05 1152.98 1208.07 1152.98 1208.07C1152.98 1208.07 851.612 1280.05 723.612 1190.05Z" fill="black"/>
</g>
<path fill-rule="evenodd" clip-rule="evenodd" d="M900.611 960.836L899.702 880.836C899.702 880.836 896.975 863.836 923.339 862.836C949.702 861.836 1020.61 860.836 1020.61 860.836C1020.61 860.836 1037.88 856.836 1038.79 881.836C1039.7 906.836 1040.61 992.836 1040.61 992.836L931.52 1023.84L890.611 1021.84L900.611 960.836Z" fill="#204EB2"/>
<path fill-rule="evenodd" clip-rule="evenodd" d="M891.197 1021.37L931.465 1023.33L1040.11 992.46C1040.04 986.183 1039.16 905.714 1038.3 881.855C1037.98 873.137 1035.64 867.05 1031.34 863.761C1026.49 860.045 1020.78 861.309 1020.73 861.324L1020.62 861.337C1019.91 861.346 949.415 862.348 923.36 863.337C913.783 863.7 907.019 866.204 903.256 870.778C899.414 875.449 900.189 880.706 900.197 880.759L901.114 960.875L901.107 960.918L891.197 1021.37ZM931.58 1024.34L931.498 1024.34L890.029 1022.31L900.113 960.799L899.204 880.843C899.173 880.684 898.348 875.186 902.47 870.16C906.42 865.344 913.435 862.712 923.322 862.337C949.093 861.359 1018.3 860.37 1020.55 860.338C1021.21 860.196 1026.93 859.122 1031.95 862.967C1036.5 866.446 1038.97 872.789 1039.29 881.818C1040.19 906.539 1041.1 991.971 1041.11 992.832L1041.12 993.214L1040.75 993.317L931.58 1024.34Z" fill="black"/>
<path fill-rule="evenodd" clip-rule="evenodd" d="M899.671 883.828L899.611 870.052C899.611 870.052 899.611 859.052 914.611 858.052C929.611 857.052 1018.61 855.052 1018.61 855.052C1018.61 855.052 1030.61 854.052 1035.61 861.052C1040.61 868.052 1039.02 885.069 1039.02 885.069C1039.02 885.069 1038.47 861.222 1018.54 861.637C998.611 862.052 921.086 863.654 921.086 863.654C921.086 863.654 900.731 861.603 899.671 883.828Z" fill="#56ACF6"/>
<path fill-rule="evenodd" clip-rule="evenodd" d="M1019.05 861.132C1032.64 861.132 1037.22 872.409 1038.75 879.481C1038.79 873.936 1038.27 865.634 1035.2 861.343C1030.42 854.652 1018.77 855.538 1018.65 855.55C1017.73 855.571 929.462 857.563 914.645 858.551C908.674 858.948 904.269 861.075 901.905 864.7C900.132 867.419 900.111 870.026 900.111 870.052L900.143 877.361C901.22 873.417 903.15 870.232 905.914 867.85C912.307 862.338 920.778 863.121 921.136 863.157C921.076 863.154 998.601 861.552 1018.53 861.137C1018.7 861.133 1018.88 861.132 1019.05 861.132ZM1039.52 885.116L1038.52 885.081C1038.52 885.023 1038.35 879.127 1035.79 873.375C1032.38 865.75 1026.59 861.958 1018.55 862.137C998.622 862.552 921.096 864.154 921.096 864.154C920.954 864.143 912.62 863.384 906.559 868.613C902.641 871.995 900.491 877.122 900.171 883.852L899.171 883.83L899.111 870.054C899.111 869.938 899.288 858.572 914.578 857.553C929.418 856.564 1017.71 854.572 1018.6 854.552C1019.07 854.512 1030.91 853.612 1036.02 860.761C1041.07 867.831 1039.59 884.413 1039.52 885.116Z" fill="black"/>
<path fill-rule="evenodd" clip-rule="evenodd" d="M900.825 928.812C900.825 928.812 886.402 938.084 881.766 943.75C877.13 949.416 881.251 950.447 870.949 961.264C860.647 972.082 842.103 999.382 874.554 1041.11C907.007 1082.83 917.824 1079.22 931.217 1072.01C944.609 1064.8 946.155 1059.65 971.395 1057.07C996.635 1054.5 1020.84 1029.77 1020.33 1023.59L1019.81 1017.41C1019.81 1017.41 1042.99 1008.65 1041.45 998.867C1039.9 989.08 1033.21 990.11 1033.21 990.11C1033.21 990.11 1037.84 985.474 1034.24 977.232C1030.63 968.991 1013.63 970.536 994.059 973.112C974.486 975.687 924.005 985.989 920.914 983.929C917.824 981.869 918.854 978.778 930.701 977.232C942.549 975.687 990.454 975.172 990.454 961.779C990.454 948.386 976.031 945.811 948.215 946.326C920.399 946.841 915.248 945.295 908.552 947.872L901.855 950.447L900.825 928.812Z" fill="#F6CBC3"/>
<path fill-rule="evenodd" clip-rule="evenodd" d="M1033.61 990.052C1033.61 990.052 1035.09 988.984 1024.07 993.193C1020.05 994.725 1014.39 996.324 1006.42 997.836C976.544 1003.5 929.67 1013.81 915.247 1015.87C900.823 1017.93 912.671 1021.02 945.638 1014.32C978.605 1007.62 1017.85 998.64 1019.61 998.052C1022.61 997.052 1031.61 994.052 1033.61 990.052Z" fill="black"/>
<path fill-rule="evenodd" clip-rule="evenodd" d="M1008.99 1020.5C1008.99 1020.5 984.611 1029.05 972.611 1032.05C959.87 1035.24 950.273 1039.56 947.698 1035.44C945.122 1031.32 942.031 1030.29 942.031 1030.29L937.911 1034.92C937.911 1034.92 938.611 1040.05 936.365 1040.59C932.358 1041.55 924.517 1043.17 924.517 1043.17C924.517 1043.17 924.611 1046.05 948.611 1041.05C954.566 1039.81 965.611 1038.05 972.611 1036.05C979.05 1034.21 1002.3 1028.23 1005.39 1025.65C1008.48 1023.08 1008.99 1020.5 1008.99 1020.5Z" fill="black"/>
<path fill-rule="evenodd" clip-rule="evenodd" d="M933.276 1017.93C933.276 1017.93 932.896 1038.67 938.752 1038.34C944.609 1038.02 946.668 1038.02 947.698 1036.47C948.729 1034.92 946.154 1029.77 946.154 1024.11C946.154 1018.44 946.154 1015.87 941.518 1016.38C936.882 1016.9 933.791 1016.9 933.276 1017.93Z" fill="#F9C818"/>
<path fill-rule="evenodd" clip-rule="evenodd" d="M975.103 524.224C975.103 524.224 986.666 551.649 1010.79 541.219L975.103 524.224Z" fill="black"/>
<path fill-rule="evenodd" clip-rule="evenodd" d="M936.061 440.019C936.061 440.019 947.491 426.343 957.812 420.573C964.184 417.012 1003.52 409.389 1004.96 417.45C1006.36 425.303 1002.31 425.575 986.63 428.129C970.947 430.682 963.599 431.313 955.358 435.186C947.116 439.059 937.806 444.335 936.061 440.019Z" fill="black"/>
<path fill-rule="evenodd" clip-rule="evenodd" d="M1087.79 449.644C1087.79 449.644 1089.23 441.352 1087.24 435.937C1085.24 430.523 1060.55 407.991 1053.3 409.952C1041.79 413.068 1045.94 418.585 1060.51 428.386C1072.23 436.269 1076.9 439.304 1081.33 444.857C1087.37 452.445 1086.91 450.867 1087.79 449.644Z" fill="black"/>
<path d="M1032.33 428.356L1036.14 429.578L1035.76 430.771C1035.46 431.744 1035.13 432.858 1034.77 434.093C1033.74 437.624 1032.71 441.416 1031.76 445.319C1030.69 449.658 1029.77 453.865 1029.06 457.838L1028.85 459.014C1027.11 469.118 1026.87 476.833 1028.42 480.982L1028.51 481.217C1037.39 503.18 1025.34 514.318 1000.03 506.519L999.261 506.277L1000.48 502.467C1023.27 509.761 1032.41 501.543 1024.8 482.716C1022.71 477.534 1023.03 468.739 1025.12 457.129C1025.85 453.067 1026.79 448.779 1027.87 444.364C1028.74 440.843 1029.66 437.413 1030.58 434.178L1030.93 432.975C1031.14 432.258 1031.34 431.581 1031.53 430.947L1032.02 429.343L1032.33 428.356Z" fill="black"/>
<path d="M933.573 581.374L935.53 577.886L936.244 578.275L936.9 578.623C937.891 579.145 939.02 579.721 940.275 580.338L940.821 580.605C945.042 582.661 949.71 584.718 954.689 586.638C966.137 591.052 977.448 594.065 987.973 595.042C992.742 595.485 997.262 595.496 1001.49 595.042L1002.34 594.945L1002.83 598.915C998.051 599.503 992.963 599.523 987.603 599.025C976.665 598.009 965.013 594.906 953.25 590.37C948.159 588.407 943.388 586.305 939.069 584.201L937.436 583.394C936.742 583.046 936.09 582.713 935.483 582.396L934.351 581.798L933.573 581.374Z" fill="black"/>
<path fill-rule="evenodd" clip-rule="evenodd" d="M987.024 454.969C986.299 454.969 985.573 454.708 984.997 454.179C984.959 454.145 980.012 449.753 972.871 450.019C965.482 450.292 960.577 453.907 960.528 453.943C959.206 454.933 957.327 454.673 956.332 453.357C955.335 452.04 955.584 450.171 956.896 449.168C957.152 448.972 963.274 444.37 972.649 444.023C982.298 443.676 988.782 449.51 989.053 449.759C990.274 450.879 990.356 452.777 989.235 453.997C988.644 454.642 987.835 454.969 987.024 454.969Z" fill="black"/>
<path fill-rule="evenodd" clip-rule="evenodd" d="M1071.14 464.112C1070.42 464.112 1069.69 463.851 1069.11 463.322C1069.08 463.288 1064.13 458.89 1056.99 459.162C1049.62 459.434 1044.7 463.041 1044.66 463.077C1043.34 464.084 1041.46 463.832 1040.45 462.516C1039.45 461.2 1039.7 459.317 1041.01 458.311C1041.27 458.115 1047.39 453.512 1056.77 453.166C1066.41 452.821 1072.9 458.653 1073.17 458.902C1074.39 460.022 1074.47 461.92 1073.35 463.14C1072.76 463.785 1071.95 464.112 1071.14 464.112Z" fill="black"/>
<path fill-rule="evenodd" clip-rule="evenodd" d="M1040.87 614.512C1040.87 614.512 1081.15 601.921 1121.42 614.512C1161.7 627.103 1189.39 608.216 1189.39 608.216C1189.39 608.216 1129.61 588.467 1168.24 527.441C1202.87 472.745 1137.16 417.977 1129.61 378.945C1122.05 339.913 1124.52 244.688 997.505 237.314C881.088 230.556 840.859 297.577 836.974 342.547C833.048 387.984 783.923 405.389 799.215 463.421C810.808 507.42 781.595 556.067 751.388 571.176C751.388 571.176 781.594 608.216 808.025 601.921C834.456 595.625 878.508 605.698 878.508 605.698C878.508 605.698 916.958 587.985 905.894 554.041C894.83 520.098 870.488 504.602 880.815 465.494C891.141 426.385 924.51 419.627 923.034 384.945C921.559 350.265 953.102 298.729 1013.59 319.391C1013.59 319.391 1079.23 314.225 1079.23 360.713C1079.23 407.2 1092.68 431.281 1097.39 444.698L1088.05 471.109C1088.05 471.109 1068.71 552.896 1041.18 576.202C1041.18 576.202 1034.2 596.531 1040.87 614.512Z" fill="#0F0F0F"/>
<path fill-rule="evenodd" clip-rule="evenodd" d="M929.424 443.518C929.424 422.423 946.526 405.322 967.621 405.322C988.716 405.322 1005.82 422.423 1005.82 443.518C1005.82 464.613 988.716 481.714 967.621 481.714C946.525 481.714 929.424 464.613 929.424 443.518ZM996.817 443.518C996.817 427.393 983.745 414.322 967.621 414.322C951.496 414.322 938.424 427.394 938.424 443.518C938.424 459.642 951.496 472.714 967.621 472.714C983.746 472.714 996.817 459.642 996.817 443.518Z" fill="black"/>
<path fill-rule="evenodd" clip-rule="evenodd" d="M1023.34 452.625C1023.34 431.53 1040.45 414.429 1061.54 414.429C1082.64 414.429 1099.74 431.53 1099.74 452.625C1099.74 473.72 1082.64 490.821 1061.54 490.821C1040.45 490.821 1023.34 473.72 1023.34 452.625ZM1090.74 452.625C1090.74 436.5 1077.67 423.429 1061.54 423.429C1045.42 423.429 1032.34 436.5 1032.34 452.625C1032.34 468.749 1045.42 481.821 1061.54 481.821C1077.67 481.821 1090.74 468.75 1090.74 452.625Z" fill="black"/>
<path d="M878.746 416.15C879.642 413.91 882.135 412.787 884.391 413.567L884.595 413.643L934.595 433.643C936.903 434.566 938.025 437.185 937.102 439.492C936.206 441.732 933.713 442.855 931.457 442.076L931.253 441.999L881.253 421.999C878.945 421.076 877.823 418.458 878.746 416.15Z" fill="black"/>
<path d="M997.23 445.405C997.497 443.006 999.605 441.258 1001.99 441.412L1002.2 441.431L1028.42 444.349C1030.89 444.624 1032.67 446.849 1032.4 449.319C1032.13 451.718 1030.02 453.466 1027.64 453.312L1027.43 453.294L1001.21 450.376C998.735 450.101 996.956 447.875 997.23 445.405Z" fill="black"/>
</g>
<g opacity="0.5">
<g opacity="0.5">
<path opacity="0.5" fill-rule="evenodd" clip-rule="evenodd" d="M1699.3 1072.82C1898.11 1072.82 2115.44 1141.8 2244.68 1300.21C2304.39 1373.4 2334.29 1459.32 2334.39 1544.72C2334.43 1641.14 2296.47 1736.9 2220.41 1813.17C2150.07 1883.68 2060.24 1931.41 1968.49 1970.6L1958.37 1974.9C1948.03 1979.33 1937.51 1984.3 1930.99 1993.3C1926.09 2000.02 1923.95 2008.29 1922.1 2016.38L1921.75 2017.9C1902.42 2102.82 1866.92 2175.35 1819.53 2236.53H1819.49C1735.08 2345.54 1612.67 2418.45 1476.28 2461.12C1371.83 2493.82 1259.13 2508.82 1148.91 2508.82C963.508 2508.82 793.328 2465.38 660.018 2392.9L659.968 2392.85C636.748 2380.31 614.618 2366.78 593.758 2352.49C457.988 2259.48 374.388 2132.44 374.388 1992.39C374.388 1725.41 678.258 1505.73 1068.01 1478.77C1111.46 1249.35 1377.52 1072.82 1699.3 1072.82ZM843.888 1083.82C911.548 1083.82 966.388 1120.98 966.388 1166.82C966.388 1212.67 911.548 1249.82 843.888 1249.82C776.228 1249.82 721.388 1212.67 721.388 1166.82C721.388 1120.98 776.228 1083.82 843.888 1083.82Z" fill="#FFF5F3"/>
</g>
</g>
<path d="M1714.39 1052.79H231.388V1940.79H1714.39V1052.79Z" fill="#204EB2"/>
<mask id="mask4_1261:7210" style="mask-type:alpha" maskUnits="userSpaceOnUse" x="231" y="1052" width="1484" height="889">
<path d="M1714.39 1052.79H231.388V1940.79H1714.39V1052.79Z" fill="white"/>
</mask>
<g mask="url(#mask4_1261:7210)">
<path fill-rule="evenodd" clip-rule="evenodd" d="M759.386 1847.97L723.388 2185.18C723.388 2185.18 1073.71 2269.42 1201.43 2159.24L1214.39 1862.39L759.386 1847.97Z" fill="#D60000"/>
<path fill-rule="evenodd" clip-rule="evenodd" d="M912.342 1408.97C912.342 1408.97 908.651 1490.13 861.312 1518.77C818.361 1544.77 909.356 1695.58 1007.25 1686.59C1060.83 1681.66 1073.39 1535.13 1073.39 1535.13C1073.39 1535.13 1030.12 1526.77 1046.1 1460.79L912.342 1408.97Z" fill="#F6CBC3"/>
<path fill-rule="evenodd" clip-rule="evenodd" d="M990.725 1491.49C927.265 1483.82 881.466 1442.09 875.053 1372.87C856.604 1375.81 852.253 1327.74 857.391 1312.3C862.534 1296.83 879.321 1305.88 879.321 1305.88C879.321 1305.88 880.715 1302.21 881.691 1298.2C909.413 1184.49 987.058 1189 987.058 1189C1129.73 1196.43 1096.3 1342.09 1088.15 1380.74C1080 1419.38 1052.07 1498.9 990.725 1491.49Z" fill="#F6CBC3"/>
<path fill-rule="evenodd" clip-rule="evenodd" d="M1201.71 1956.1C1180.66 1947.53 1153.53 1920.4 1121.08 1875.46C1097.01 1842.14 1078.81 1810.89 1078.63 1810.58L1082.09 1808.57C1082.81 1809.81 1154.51 1932.56 1203.22 1952.4L1201.71 1956.1Z" fill="#864A56"/>
<mask id="mask5_1261:7210" style="mask-type:alpha" maskUnits="userSpaceOnUse" x="633" y="1514" width="605" height="618">
<path fill-rule="evenodd" clip-rule="evenodd" d="M633.388 1514.58H1237.31V2131.29H633.388V1514.58Z" fill="white"/>
</mask>
<g mask="url(#mask5_1261:7210)">
<path fill-rule="evenodd" clip-rule="evenodd" d="M865.363 1514.58C865.363 1514.58 687.655 1531.4 651.009 1715.99C614.363 1900.58 609.974 2118.3 892.363 2129.58C1174.75 2140.85 1198.77 2093.34 1198.57 2082.96C1198.37 2072.58 1203.37 1901.58 1226.37 1771.58C1249.37 1641.58 1251.37 1571.58 1075.36 1528.58C1075.36 1528.58 997.363 1632.58 865.363 1514.58Z" fill="#D60000"/>
</g>
<path fill-rule="evenodd" clip-rule="evenodd" d="M1000.36 1590.58L1021.36 1494.58C1021.36 1494.58 1020.36 1478.58 1045.36 1479.58C1070.36 1480.58 1247.37 1477.58 1247.37 1477.58C1247.37 1477.58 1261.37 1475.58 1265.37 1488.58C1269.37 1501.58 1217.37 1719.58 1217.37 1719.58C1217.37 1719.58 1218.37 1734.58 1201.37 1734.58C1184.36 1734.58 975.365 1742.58 975.365 1742.58L1000.36 1590.58Z" fill="#204EB2"/>
<mask id="mask6_1261:7210" style="mask-type:alpha" maskUnits="userSpaceOnUse" x="974" y="1476" width="293" height="268">
<path fill-rule="evenodd" clip-rule="evenodd" d="M974.771 1476.97H1266.07V1743.1H974.771V1476.97Z" fill="white"/>
</mask>
<g mask="url(#mask6_1261:7210)">
<path fill-rule="evenodd" clip-rule="evenodd" d="M1000.85 1590.67L975.956 1742.05C988.496 1741.57 1185 1734.07 1201.37 1734.07C1206.59 1734.07 1210.6 1732.63 1213.26 1729.78C1217.21 1725.58 1216.87 1719.67 1216.87 1719.61L1216.86 1719.53L1216.88 1719.46C1217.4 1717.28 1268.8 1501.44 1264.89 1488.72C1261.06 1476.29 1247.99 1477.99 1247.44 1478.07C1245.6 1478.11 1070.07 1481.07 1045.34 1480.07C1036.19 1479.71 1029.54 1481.57 1025.57 1485.61C1021.62 1489.64 1021.86 1494.5 1021.86 1494.54L1021.87 1494.61L1021.85 1494.68L1000.85 1590.67ZM974.771 1743.1L999.875 1590.47L1020.86 1494.53C1020.83 1493.86 1020.81 1489.06 1024.84 1484.93C1029.01 1480.67 1035.94 1478.71 1045.38 1479.07C1070.08 1480.06 1245.59 1477.1 1247.36 1477.07C1247.44 1477.06 1261.77 1475.17 1265.84 1488.43C1269.83 1501.38 1220.23 1709.74 1217.87 1719.62C1217.91 1720.39 1218.03 1726.15 1214 1730.46C1211.14 1733.52 1206.88 1735.07 1201.37 1735.07C1184.57 1735.07 977.473 1742.99 975.383 1743.07L974.771 1743.1Z" fill="black"/>
</g>
<path fill-rule="evenodd" clip-rule="evenodd" d="M1007.36 1597.58L1028.36 1501.58C1028.36 1501.58 1027.36 1485.58 1052.36 1486.58C1077.36 1487.58 1254.37 1484.58 1254.37 1484.58C1254.37 1484.58 1268.37 1482.58 1272.37 1495.58C1276.37 1508.58 1224.37 1726.58 1224.37 1726.58C1224.37 1726.58 1225.37 1741.58 1208.37 1741.58C1191.37 1741.58 982.365 1749.58 982.365 1749.58L1007.36 1597.58Z" fill="#56ACF6"/>
<path fill-rule="evenodd" clip-rule="evenodd" d="M898.566 1748.1C898.566 1748.1 956.722 1681.83 972.584 1653.42C988.445 1625.01 988.445 1608.44 987.123 1595.43C985.801 1582.41 985.801 1567.02 996.375 1564.65C1006.95 1562.29 1008.27 1568.2 1009.59 1582.41C1010.91 1596.61 1009.59 1610.81 1033.38 1602.53C1057.17 1594.24 1115.33 1574.12 1121.94 1590.69C1128.55 1607.26 1114.01 1609.63 1114.01 1609.63C1114.01 1609.63 1124.58 1610.81 1127.23 1619.1C1129.87 1627.38 1127.23 1633.3 1119.3 1636.85C1111.37 1640.4 1107.4 1641.58 1107.4 1641.58C1107.4 1641.58 1123.26 1639.22 1127.23 1651.05C1131.19 1662.89 1124.58 1668.81 1117.98 1671.17C1117.98 1671.17 1126.48 1672.54 1128.55 1681.83C1129.87 1687.74 1121.94 1691.29 1112.69 1694.84C1100.18 1699.64 1062.46 1700.76 1030.74 1720.88C999.018 1741 922.357 1872.38 884.027 1912.62C845.696 1952.86 807.365 1848.71 807.365 1848.71C807.365 1848.71 854.948 1788.34 898.566 1748.1Z" fill="#F6CBC3"/>
<path fill-rule="evenodd" clip-rule="evenodd" d="M1048.31 1628.83L1047.53 1625.93L1113.62 1608.18L1114.4 1611.08L1048.31 1628.83Z" fill="black"/>
<path fill-rule="evenodd" clip-rule="evenodd" d="M1048.31 1659.6L1047.53 1656.71L1113.62 1638.95L1114.4 1641.85L1048.31 1659.6Z" fill="black"/>
<path fill-rule="evenodd" clip-rule="evenodd" d="M1056.24 1690.37L1055.47 1687.48L1121.55 1669.73L1122.33 1672.62L1056.24 1690.37Z" fill="black"/>
<mask id="mask7_1261:7210" style="mask-type:alpha" maskUnits="userSpaceOnUse" x="1173" y="1561" width="130" height="396">
<path fill-rule="evenodd" clip-rule="evenodd" d="M1173.69 1561.6H1302.36V1956.58H1173.69V1561.6Z" fill="white"/>
</mask>
<g mask="url(#mask7_1261:7210)">
<path fill-rule="evenodd" clip-rule="evenodd" d="M1207.16 1900.15C1207.16 1900.15 1216.41 1852.81 1220.38 1793.63C1224.34 1734.45 1223.02 1708.41 1217.73 1703.68C1212.45 1698.95 1175.43 1700.13 1175.43 1681.19C1175.43 1662.25 1201.87 1668.17 1201.87 1668.17C1201.87 1668.17 1174.11 1663.44 1176.76 1649.24C1179.4 1635.03 1195.26 1637.4 1195.26 1637.4C1195.26 1637.4 1170.15 1632.67 1174.11 1617.28C1178.08 1601.89 1201.87 1607.81 1201.87 1607.81C1201.87 1607.81 1179.4 1604.26 1188.65 1588.88C1197.91 1573.49 1213.77 1582.96 1232.27 1587.69C1250.78 1592.43 1252.1 1593.61 1253.42 1586.51C1254.74 1579.41 1252.1 1560.47 1266.64 1561.65C1281.18 1562.84 1283.82 1567.57 1283.82 1593.61C1283.82 1619.65 1287.79 1643.32 1291.75 1666.99C1295.72 1690.66 1297.04 1717.88 1294.39 1761.67C1291.75 1805.46 1328.76 1934.47 1262.67 1953.41C1196.59 1972.35 1207.16 1900.15 1207.16 1900.15Z" fill="#F6CBC3"/>
</g>
<path fill-rule="evenodd" clip-rule="evenodd" d="M1235.11 1676.3L1196.24 1667.95L1196.87 1665.01L1235.74 1673.36L1235.11 1676.3Z" fill="black"/>
<path fill-rule="evenodd" clip-rule="evenodd" d="M1234.18 1647.22L1195.3 1638.87L1195.94 1635.93L1234.81 1644.28L1234.18 1647.22Z" fill="black"/>
<path fill-rule="evenodd" clip-rule="evenodd" d="M1235.88 1615.94L1197.01 1607.59L1197.64 1604.66L1236.51 1613L1235.88 1615.94Z" fill="black"/>
<path fill-rule="evenodd" clip-rule="evenodd" d="M1271.66 1596.85L1252.5 1592.71L1253.13 1589.78L1272.3 1593.92L1271.66 1596.85Z" fill="black"/>
<path d="M1033.33 1324.49L1037.14 1325.71L1036.76 1326.91C1036.46 1327.88 1036.13 1328.99 1035.77 1330.23C1034.74 1333.76 1033.71 1337.55 1032.76 1341.45C1031.69 1345.79 1030.77 1350 1030.06 1353.97L1029.85 1355.15C1028.11 1365.25 1027.87 1372.97 1029.42 1377.12L1029.51 1377.35C1038.39 1399.32 1026.34 1410.45 1001.03 1402.65L1000.26 1402.41L1001.48 1398.6C1024.27 1405.9 1033.41 1397.68 1025.8 1378.85C1023.71 1373.67 1024.03 1364.87 1026.12 1353.26C1026.85 1349.2 1027.79 1344.91 1028.87 1340.5C1029.74 1336.98 1030.66 1333.55 1031.58 1330.31L1031.93 1329.11C1032.14 1328.39 1032.34 1327.72 1032.53 1327.08L1033.02 1325.48L1033.33 1324.49Z" fill="black"/>
<path d="M934.573 1477.51L936.53 1474.02L937.244 1474.41L937.9 1474.76C938.891 1475.28 940.02 1475.86 941.275 1476.47L941.821 1476.74C946.042 1478.8 950.71 1480.85 955.689 1482.77C967.137 1487.19 978.448 1490.2 988.973 1491.18C993.742 1491.62 998.262 1491.63 1002.49 1491.18L1003.34 1491.08L1003.83 1495.05C999.051 1495.64 993.963 1495.66 988.603 1495.16C977.665 1494.14 966.013 1491.04 954.25 1486.51C949.159 1484.54 944.388 1482.44 940.069 1480.34L938.436 1479.53C937.742 1479.18 937.09 1478.85 936.483 1478.53L935.351 1477.93L934.573 1477.51Z" fill="black"/>
<path fill-rule="evenodd" clip-rule="evenodd" d="M1007.42 1433.97C988.554 1433.97 974.326 1425.33 973.658 1424.91C972.249 1424.04 971.813 1422.19 972.684 1420.78C973.553 1419.38 975.402 1418.94 976.812 1419.81C977.094 1419.98 993.807 1430.02 1013.96 1427.58C1015.59 1427.38 1017.09 1428.55 1017.3 1430.19C1017.5 1431.84 1016.32 1433.34 1014.68 1433.53C1012.2 1433.84 1009.78 1433.97 1007.42 1433.97Z" fill="black"/>
<path fill-rule="evenodd" clip-rule="evenodd" d="M1015.21 1405.14C1011.17 1405.14 1006.13 1404.35 999.831 1402.34L1001.05 1398.53C1012.77 1402.28 1021.43 1401.97 1025.43 1397.66C1028.84 1394 1028.82 1387.29 1025.37 1378.78C1023.04 1373 1023.62 1362.05 1027.09 1346.22C1029.63 1334.64 1032.86 1324.52 1032.9 1324.42L1036.71 1325.64C1033.2 1336.57 1024.99 1367.16 1029.08 1377.28C1034.28 1390.14 1031.56 1396.94 1028.36 1400.38C1026.08 1402.84 1022.11 1405.14 1015.21 1405.14Z" fill="black"/>
<mask id="mask8_1261:7210" style="mask-type:alpha" maskUnits="userSpaceOnUse" x="936" y="1302" width="69" height="21">
<path fill-rule="evenodd" clip-rule="evenodd" d="M936.423 1302.97H1004.03V1322.36H936.423V1302.97Z" fill="white"/>
</mask>
<g mask="url(#mask8_1261:7210)">
<path fill-rule="evenodd" clip-rule="evenodd" d="M998.527 1322.36C997.926 1322.36 997.314 1322.26 996.715 1322.05C990.879 1320.02 974.022 1314.61 966.21 1314.03C958.854 1313.48 947.631 1317.12 943.927 1318.56C941.098 1319.67 937.909 1318.27 936.803 1315.45C935.696 1312.62 937.089 1309.43 939.916 1308.32C940.552 1308.07 955.648 1302.21 967.022 1303.06C977.877 1303.86 999.427 1311.35 1000.34 1311.67C1003.21 1312.67 1004.72 1315.81 1003.72 1318.67C1002.93 1320.94 1000.8 1322.36 998.527 1322.36Z" fill="black"/>
</g>
<path fill-rule="evenodd" clip-rule="evenodd" d="M1091.07 1341.14C1089.96 1341.14 1088.85 1340.8 1087.89 1340.1C1084.84 1337.86 1075.39 1331.79 1068.53 1330.64C1061.2 1329.42 1044.35 1330.8 1038.47 1331.44C1035.53 1331.75 1032.88 1329.63 1032.56 1326.68C1032.24 1323.73 1034.37 1321.08 1037.32 1320.76C1038.24 1320.66 1060.02 1318.34 1070.3 1320.05C1081.1 1321.86 1093.72 1331.05 1094.25 1331.44C1096.64 1333.2 1097.15 1336.56 1095.4 1338.95C1094.35 1340.38 1092.72 1341.14 1091.07 1341.14Z" fill="black"/>
<path fill-rule="evenodd" clip-rule="evenodd" d="M984.909 1346.63C984.909 1349.88 982.276 1352.51 979.029 1352.51C975.782 1352.51 973.149 1349.88 973.149 1346.63C973.149 1343.39 975.782 1340.75 979.029 1340.75C982.276 1340.75 984.909 1343.39 984.909 1346.63Z" fill="black"/>
<path fill-rule="evenodd" clip-rule="evenodd" d="M1060.15 1353.31C1060.15 1356.56 1057.52 1359.19 1054.27 1359.19C1051.02 1359.19 1048.39 1356.56 1048.39 1353.31C1048.39 1350.07 1051.02 1347.43 1054.27 1347.43C1057.52 1347.43 1060.15 1350.07 1060.15 1353.31Z" fill="black"/>
<mask id="mask9_1261:7210" style="mask-type:alpha" maskUnits="userSpaceOnUse" x="870" y="1141" width="257" height="189">
<path fill-rule="evenodd" clip-rule="evenodd" d="M870.388 1141.98H1126.86V1329.83H870.388V1141.98Z" fill="white"/>
</mask>
<g mask="url(#mask9_1261:7210)">
<path fill-rule="evenodd" clip-rule="evenodd" d="M879.457 1309.65C879.457 1309.65 882.574 1311.51 881.464 1329.83C881.464 1329.83 889.79 1321.5 892.01 1311.51C894.23 1301.52 909.217 1272.66 921.984 1264.89C934.751 1257.12 954.734 1257.67 966.39 1239.91L978.047 1222.15C978.047 1222.15 1052.43 1227.14 1084.62 1251.01C1084.62 1251.01 1099.61 1257.67 1096.28 1322.61C1096.28 1322.61 1102.38 1287.64 1103.49 1269.88C1104.6 1252.12 1112.37 1280.43 1109.04 1295.97C1109.04 1295.97 1128.05 1279.75 1126.81 1244.9C1125.12 1197.51 1102.08 1183.81 1086.84 1172.74C1068.88 1159.7 1015.87 1130.92 982.566 1146.46C949.261 1162.01 950.848 1165.53 935.306 1171.63C919.764 1177.74 900.336 1174.96 883.684 1187.18C867.032 1199.39 870.74 1303.1 870.74 1303.1C870.74 1303.1 877.326 1305.77 879.457 1309.65Z" fill="#9B5120"/>
</g>
<path fill-rule="evenodd" clip-rule="evenodd" d="M930.424 1339.65C930.424 1318.56 947.526 1301.46 968.621 1301.46C989.716 1301.46 1006.82 1318.56 1006.82 1339.65C1006.82 1360.75 989.716 1377.85 968.621 1377.85C947.525 1377.85 930.424 1360.75 930.424 1339.65ZM997.817 1339.65C997.817 1323.53 984.745 1310.46 968.621 1310.46C952.496 1310.46 939.424 1323.53 939.424 1339.65C939.424 1355.78 952.496 1368.85 968.621 1368.85C984.746 1368.85 997.817 1355.78 997.817 1339.65Z" fill="black"/>
<path fill-rule="evenodd" clip-rule="evenodd" d="M1024.34 1348.76C1024.34 1327.66 1041.45 1310.56 1062.54 1310.56C1083.64 1310.56 1100.74 1327.66 1100.74 1348.76C1100.74 1369.86 1083.64 1386.96 1062.54 1386.96C1041.45 1386.96 1024.34 1369.86 1024.34 1348.76ZM1091.74 1348.76C1091.74 1332.64 1078.67 1319.56 1062.54 1319.56C1046.42 1319.56 1033.34 1332.64 1033.34 1348.76C1033.34 1364.88 1046.42 1377.96 1062.54 1377.96C1078.67 1377.96 1091.74 1364.88 1091.74 1348.76Z" fill="black"/>
<path d="M879.746 1312.28C880.642 1310.05 883.135 1308.92 885.391 1309.7L885.595 1309.78L935.595 1329.78C937.903 1330.7 939.025 1333.32 938.102 1335.63C937.206 1337.87 934.713 1338.99 932.457 1338.21L932.253 1338.13L882.253 1318.13C879.945 1317.21 878.823 1314.59 879.746 1312.28Z" fill="black"/>
<path d="M998.23 1341.54C998.497 1339.14 1000.61 1337.39 1002.99 1337.55L1003.2 1337.57L1029.42 1340.48C1031.89 1340.76 1033.67 1342.98 1033.4 1345.45C1033.13 1347.85 1031.02 1349.6 1028.64 1349.45L1028.43 1349.43L1002.21 1346.51C999.735 1346.24 997.956 1344.01 998.23 1341.54Z" fill="black"/>
</g>
<path d="M3197.39 1053.79H1714.39V1941.79H3197.39V1053.79Z" fill="#E93737"/>
<mask id="mask10_1261:7210" style="mask-type:alpha" maskUnits="userSpaceOnUse" x="1714" y="1053" width="1484" height="889">
<path d="M3197.39 1053.79H1714.39V1941.79H3197.39V1053.79Z" fill="white"/>
</mask>
<g mask="url(#mask10_1261:7210)">
<path fill-rule="evenodd" clip-rule="evenodd" d="M2516.43 1406.79C2516.43 1406.79 2520.12 1487.95 2567.46 1516.59C2610.41 1542.59 2519.42 1693.4 2421.53 1684.41C2367.95 1679.48 2355.39 1532.95 2355.39 1532.95C2355.39 1532.95 2398.65 1524.59 2382.67 1458.61L2516.43 1406.79Z" fill="#C26E5E"/>
<path fill-rule="evenodd" clip-rule="evenodd" d="M2438.05 1489.31C2501.51 1481.64 2547.31 1439.91 2553.72 1370.69C2572.17 1373.63 2576.52 1325.56 2571.38 1310.12C2566.24 1294.65 2549.45 1303.7 2549.45 1303.7C2549.45 1303.7 2548.06 1300.03 2547.08 1296.02C2519.36 1182.31 2441.72 1186.82 2441.72 1186.82C2299.04 1194.25 2332.47 1339.91 2340.62 1378.56C2348.78 1417.2 2376.7 1496.72 2438.05 1489.31Z" fill="#C26E5E"/>
<path fill-rule="evenodd" clip-rule="evenodd" d="M2886.22 1809.05C2886.22 1809.05 2969.28 1955.9 2922.42 2028.59C2875.56 2101.29 2809.08 2005.23 2781.76 1897.93C2754.44 1790.64 2697.94 1726.58 2697.94 1726.58L2886.22 1809.05Z" fill="#C26E5E"/>
<path fill-rule="evenodd" clip-rule="evenodd" d="M2694.53 1548.51C2611.63 1522.88 2586.09 1521.43 2586.09 1521.43L2498.58 1540.29C2498.58 1540.29 2450.62 1603.33 2446.51 1659.51C2446.51 1659.51 2445.14 1585.51 2413.62 1534.81C2413.62 1534.81 2274.91 1533.54 2222.62 1588.14C2140.02 1674.38 2141.58 1825.71 2141.58 1825.71L2277.87 1839.72L2222.62 1762.79C2222.62 1762.79 2219.13 2076.21 2227.35 2157.06C2331.39 2271.82 2705.39 2183 2705.39 2183C2705.39 2183 2697.27 1923.66 2695.9 1852.72C2694.53 1781.78 2720.77 1791.36 2756.94 1879.3C2786.5 1951.19 2880.5 1802.14 2880.5 1802.14C2880.5 1802.14 2822.81 1588.18 2694.53 1548.51Z" fill="#1BC0D7"/>
<path fill-rule="evenodd" clip-rule="evenodd" d="M2271.35 1939.12C2271.35 1939.12 2204.05 1914.99 2135.62 1929.24C2135.62 1929.24 2136.51 1906.9 2135.8 1877.4C2135.23 1853.18 2121.96 1815.69 2169.83 1819.72C2225.55 1824.42 2249.43 1824.91 2273.65 1835.87C2273.65 1835.87 2279.42 1916.05 2271.35 1939.12Z" fill="#FCEBEC"/>
<path fill-rule="evenodd" clip-rule="evenodd" d="M2911.45 1849.2L2882.1 1756.85C2882.1 1756.85 2773.48 1734.16 2730.45 1828.05L2762.7 1911.64C2762.7 1911.64 2823.02 1822.7 2911.45 1849.2Z" fill="#237978"/>
<mask id="mask11_1261:7210" style="mask-type:alpha" maskUnits="userSpaceOnUse" x="2496" y="1507" width="141" height="93">
<path fill-rule="evenodd" clip-rule="evenodd" d="M2636.84 1507.79H2496.08V1599.5H2636.84V1507.79Z" fill="white"/>
</mask>
<g mask="url(#mask11_1261:7210)">
<path fill-rule="evenodd" clip-rule="evenodd" d="M2584.69 1507.89C2584.69 1507.89 2640.1 1526.65 2636.69 1531.76C2633.28 1536.88 2534.91 1602.3 2527.54 1599.4C2520.16 1596.5 2492.51 1544.1 2496.46 1538.83C2500.41 1533.56 2579.95 1505.93 2584.69 1507.89Z" fill="#237978"/>
</g>
<path fill-rule="evenodd" clip-rule="evenodd" d="M2324.78 1530.69C2324.78 1530.69 2277.09 1564.56 2281.82 1568.48C2286.56 1572.4 2399.56 1606.83 2405.8 1601.94C2412.03 1597.05 2423.47 1538.91 2418.18 1534.99C2412.88 1531.08 2328.75 1527.45 2324.78 1530.69Z" fill="#237978"/>
<path fill-rule="evenodd" clip-rule="evenodd" d="M2845.54 1905.31C2818.24 1945.29 2834.43 1946.02 2822.54 1968C2810.65 1989.99 2799.47 2035.89 2785.82 2034.74C2772.17 2033.59 2771.46 2026 2776.77 2011.81C2782.09 1997.63 2797.67 1952.21 2791.83 1950.05C2785.99 1947.89 2767.14 2037.68 2745.51 2036.23C2723.88 2034.79 2742.03 1988.77 2751.82 1968.18C2761.6 1947.6 2764.93 1932.34 2758.74 1933.67C2752.56 1935 2728.74 2035.49 2711.14 2032.46C2693.55 2029.44 2702.49 1994.14 2712.24 1973.29C2721.99 1952.44 2736.54 1919.6 2736.54 1919.6C2736.54 1919.6 2711.83 1951.64 2700.62 1989.88C2689.41 2028.12 2682.51 2030.07 2676.21 2026.38C2669.91 2022.7 2678.26 1977.67 2678.26 1977.67C2678.26 1977.67 2657.17 1943.15 2683.7 1912.39C2710.24 1881.63 2725.07 1849.22 2761.65 1831.82C2798.22 1814.42 2820.95 1828.9 2820.95 1828.9C2820.95 1828.9 2872.84 1865.33 2845.54 1905.31Z" fill="#C26E5E"/>
<path fill-rule="evenodd" clip-rule="evenodd" d="M2312.4 1717.29H2403.22C2406.92 1717.29 2409.92 1714.29 2409.92 1710.59V1702.73C2409.92 1699.03 2406.92 1696.03 2403.22 1696.03H2312.4C2308.71 1696.03 2305.71 1699.03 2305.71 1702.73V1710.59C2305.71 1714.29 2308.71 1717.29 2312.4 1717.29Z" fill="#237978"/>
<path fill-rule="evenodd" clip-rule="evenodd" d="M1875.08 2053.67H2387.56C2397.05 2053.67 2404.75 2045.98 2404.75 2036.48L2358.23 1699C2358.23 1689.5 2350.53 1681.81 2341.04 1681.81H1828.56C1819.06 1681.81 1811.37 1689.5 1811.37 1699L1857.89 2036.48C1857.89 2045.98 1865.58 2053.67 1875.08 2053.67Z" fill="#3267C8"/>
<path fill-rule="evenodd" clip-rule="evenodd" d="M1996.38 2053.67C1996.38 2053.67 1999.27 2059.51 2003.22 2065.67C2007.18 2071.83 2009.43 2068.23 2016.54 2081.37C2023.64 2094.52 2043.87 2120.59 2093.58 2102.62C2143.29 2084.65 2143.21 2073.25 2140.49 2058.28C2137.77 2043.31 2133.35 2040.25 2138.7 2015.45C2144.05 1990.65 2128.01 1959.99 2121.97 1958.57L2115.94 1957.14C2115.94 1957.14 2114.77 1932.39 2104.99 1930.84C2095.2 1929.28 2094.11 1935.97 2094.11 1935.97C2094.11 1935.97 2091.13 1930.13 2082.18 1931.01C2073.23 1931.89 2069.45 1948.54 2065.85 1967.95C2062.25 1987.36 2056.45 2038.56 2053.53 2040.86C2050.62 2043.16 2048 2041.23 2050.19 2029.48C2052.38 2017.74 2066.69 1972.02 2053.95 1967.88C2041.22 1963.74 2034.31 1976.66 2026.21 2003.27C2018.1 2029.89 2015.04 2034.31 2015.42 2041.47L2012.97 2053.67H1996.38Z" fill="#C26E5E"/>
<path fill-rule="evenodd" clip-rule="evenodd" d="M2094.18 1935.57C2094.18 1935.57 2093.62 1933.83 2094.22 1945.61C2094.44 1949.9 2094.21 1955.78 2093.18 1963.83C2089.34 1994 2084.65 2041.76 2082.15 2056.12C2079.66 2070.47 2086.26 2060.16 2090.08 2026.73C2093.9 1993.31 2097.48 1953.21 2097.46 1951.35C2097.44 1948.19 2097.37 1938.71 2094.18 1935.57Z" fill="black"/>
<path fill-rule="evenodd" clip-rule="evenodd" d="M2454.27 1421.37C2454.27 1421.37 2438.12 1446.37 2416.18 1431.91L2454.27 1421.37Z" fill="black"/>
<path fill-rule="evenodd" clip-rule="evenodd" d="M2366.64 1357.11C2366.64 1360.43 2369.33 1363.11 2372.64 1363.11C2375.95 1363.11 2378.64 1360.43 2378.64 1357.11C2378.64 1353.8 2375.95 1351.11 2372.64 1351.11C2369.33 1351.11 2366.64 1353.8 2366.64 1357.11Z" fill="black"/>
<path fill-rule="evenodd" clip-rule="evenodd" d="M2494.39 1322.29C2494.39 1322.29 2479.13 1313.08 2467.49 1310.98C2460.31 1309.69 2420.63 1315.29 2421.9 1323.38C2423.13 1331.26 2427.04 1330.2 2442.7 1327.51C2458.36 1324.81 2465.51 1323.02 2474.57 1324C2483.62 1324.98 2494.14 1326.93 2494.39 1322.29Z" fill="black"/>
<path fill-rule="evenodd" clip-rule="evenodd" d="M2331.32 1337.54C2331.32 1337.54 2333.94 1329.54 2338.24 1325.7C2342.54 1321.85 2374.93 1313.55 2380.4 1318.69C2389.1 1326.84 2382.85 1329.76 2365.38 1331.58C2351.33 1333.03 2345.78 1333.52 2339.27 1336.35C2330.38 1340.21 2331.52 1339.03 2331.32 1337.54Z" fill="black"/>
<path d="M2395.45 1322.31L2391.64 1323.53L2392.01 1324.73C2392.31 1325.7 2392.64 1326.81 2393 1328.05C2394.03 1331.58 2395.06 1335.37 2396.02 1339.27C2397.09 1343.61 2398 1347.82 2398.72 1351.79L2398.92 1352.97C2400.66 1363.07 2400.91 1370.79 2399.35 1374.94L2399.26 1375.17C2390.38 1397.13 2402.44 1408.27 2427.74 1400.47L2428.51 1400.23L2427.3 1396.42C2404.5 1403.72 2395.36 1395.5 2402.97 1376.67C2405.07 1371.49 2404.74 1362.69 2402.65 1351.08C2401.92 1347.02 2400.99 1342.73 2399.9 1338.32C2399.04 1334.8 2398.12 1331.37 2397.19 1328.13L2396.84 1326.93C2396.64 1326.21 2396.44 1325.54 2396.24 1324.9L2395.76 1323.3L2395.45 1322.31Z" fill="black"/>
<path d="M2494.2 1475.33L2492.25 1471.84L2491.53 1472.23L2490.88 1472.58C2489.88 1473.1 2488.75 1473.68 2487.5 1474.29L2486.95 1474.56C2482.73 1476.62 2478.07 1478.67 2473.09 1480.59C2461.64 1485.01 2450.33 1488.02 2439.8 1489C2435.03 1489.44 2430.51 1489.45 2426.28 1489L2425.44 1488.9L2424.95 1492.87C2429.72 1493.46 2434.81 1493.48 2440.17 1492.98C2451.11 1491.96 2462.76 1488.86 2474.53 1484.32C2479.62 1482.36 2484.39 1480.26 2488.71 1478.16L2490.34 1477.35C2491.03 1477 2491.69 1476.67 2492.29 1476.35L2493.42 1475.75L2494.2 1475.33Z" fill="black"/>
<path fill-rule="evenodd" clip-rule="evenodd" d="M2440.75 1348.92C2441.48 1348.92 2442.2 1348.66 2442.78 1348.13C2442.82 1348.1 2447.76 1343.71 2454.9 1343.97C2462.29 1344.25 2467.2 1347.86 2467.25 1347.9C2468.57 1348.89 2470.45 1348.63 2471.44 1347.31C2472.44 1345.99 2472.19 1344.13 2470.88 1343.12C2470.62 1342.93 2464.5 1338.32 2455.13 1337.98C2445.48 1337.63 2438.99 1343.46 2438.72 1343.71C2437.5 1344.83 2437.42 1346.73 2438.54 1347.95C2439.13 1348.6 2439.94 1348.92 2440.75 1348.92Z" fill="black"/>
<mask id="mask12_1261:7210" style="mask-type:alpha" maskUnits="userSpaceOnUse" x="2300" y="1144" width="268" height="211">
<path fill-rule="evenodd" clip-rule="evenodd" d="M2567.39 1144.79H2300.33V1354.06H2567.39V1144.79Z" fill="white"/>
</mask>
<g mask="url(#mask12_1261:7210)">
<path fill-rule="evenodd" clip-rule="evenodd" d="M2548.35 1315.91C2548.35 1315.91 2584.35 1270.91 2557.35 1208.91C2530.35 1146.91 2468.35 1137.91 2431.35 1150.91C2431.35 1150.91 2302.35 1113.91 2300.35 1221.91C2298.71 1310.1 2426.35 1239.91 2426.35 1239.91C2426.35 1239.91 2426.35 1291.91 2477.35 1285.91C2528.35 1279.91 2528.35 1357.91 2537.35 1353.91C2546.35 1349.91 2548.35 1315.91 2548.35 1315.91Z" fill="#0F0F0F"/>
</g>
<path fill-rule="evenodd" clip-rule="evenodd" d="M2371.61 1448.72C2371.61 1448.72 2376.61 1434.68 2392.95 1416.54C2401.95 1406.54 2450.81 1382.65 2470.6 1401.69C2490.39 1420.72 2501.19 1424.51 2497.78 1425.07C2464.46 1430.57 2457.62 1415.65 2442.19 1416.46C2424.95 1417.36 2415.29 1415.48 2415.29 1415.48C2410.79 1422.68 2405.84 1427.93 2394.75 1437.67C2391.06 1440.91 2374.16 1456.59 2371.61 1448.72Z" fill="#0F0F0F"/>
</g>
<path d="M3197.39 1959.79H231.388V2214.79H3197.39V1959.79Z" fill="#DDCBD5"/>
<path d="M3115.39 2021.79H2902.39C2890.79 2021.79 2881.39 2031.2 2881.39 2042.79V2100.79C2881.39 2112.39 2890.79 2121.79 2902.39 2121.79H3115.39C3126.99 2121.79 3136.39 2112.39 3136.39 2100.79V2042.79C3136.39 2031.2 3126.99 2021.79 3115.39 2021.79Z" fill="#FCEBEC"/>
<path d="M359.388 2093.79H342.388V2121.79H359.388V2093.79Z" fill="#FCEBEC"/>
<path d="M367.388 2113.79H334.388C332.179 2113.79 330.388 2115.59 330.388 2117.79C330.388 2120 332.179 2121.79 334.388 2121.79H367.388C369.597 2121.79 371.388 2120 371.388 2117.79C371.388 2115.59 369.597 2113.79 367.388 2113.79Z" fill="#FCEBEC"/>
<path d="M367.388 2038.29C367.388 2029.18 360 2021.79 350.888 2021.79C341.775 2021.79 334.388 2029.18 334.388 2038.29V2067.29C334.388 2076.41 341.775 2083.79 350.888 2083.79C360 2083.79 367.388 2076.41 367.388 2067.29V2038.29Z" fill="#FCEBEC"/>
<path d="M322.895 2061.82C325.095 2061.62 327.041 2063.23 327.243 2065.43C328.771 2082.11 336.302 2089.79 350.757 2089.79C365.288 2089.79 372.359 2083.28 373.268 2069.17C373.41 2066.96 375.312 2065.29 377.516 2065.43C379.721 2065.57 381.393 2067.48 381.251 2069.68C380.069 2088.04 369.472 2097.79 350.757 2097.79C331.966 2097.79 321.165 2086.8 319.276 2066.16C319.075 2063.97 320.695 2062.02 322.895 2061.82Z" fill="#FCEBEC"/>
<path d="M609.388 2021.79H526.388C519.208 2021.79 513.388 2027.62 513.388 2034.79V2108.79C513.388 2115.97 519.208 2121.79 526.388 2121.79H609.388C616.567 2121.79 622.388 2115.97 622.388 2108.79V2034.79C622.388 2027.62 616.567 2021.79 609.388 2021.79Z" fill="#FCEBEC"/>
<path fill-rule="evenodd" clip-rule="evenodd" d="M628.388 2058.36L658.388 2039.79V2104.79L628.388 2086.22V2058.36Z" fill="#FCEBEC"/>
<path fill-rule="evenodd" clip-rule="evenodd" d="M799.388 2105.08C803.503 2081.62 824.099 2063.79 848.888 2063.79C873.678 2063.79 894.268 2081.62 898.388 2105.08C886.138 2118.42 868.498 2126.79 848.888 2126.79C829.28 2126.79 811.64 2118.42 799.388 2105.08Z" fill="#FCEBEC"/>
<path d="M848.888 2069.79C865.18 2069.79 878.388 2056.59 878.388 2040.29C878.388 2024 865.18 2010.79 848.888 2010.79C832.595 2010.79 819.388 2024 819.388 2040.29C819.388 2056.59 832.595 2069.79 848.888 2069.79Z" fill="#FCEBEC"/>
<path d="M939.388 2033.79H926.388V2085.79H939.388V2033.79Z" fill="#FCEBEC"/>
<path fill-rule="evenodd" clip-rule="evenodd" d="M958.888 2053.29V2066.29H906.888V2053.29H958.888Z" fill="#FCEBEC"/>
<path d="M1814.39 2010.79H1615.39C1603.79 2010.79 1594.39 2020.2 1594.39 2031.79V2105.79C1594.39 2117.39 1603.79 2126.79 1615.39 2126.79H1814.39C1825.99 2126.79 1835.39 2117.39 1835.39 2105.79V2031.79C1835.39 2020.2 1825.99 2010.79 1814.39 2010.79Z" fill="#FCEBEC"/>
<path fill-rule="evenodd" clip-rule="evenodd" d="M1714.89 2030.79L1750.39 2068.79H1679.39L1714.89 2030.79Z" fill="#DDB0C8"/>
<path d="M1730.39 2068.79H1698.39V2101.79H1730.39V2068.79Z" fill="#DDB0C8"/>
<path fill-rule="evenodd" clip-rule="evenodd" d="M2463.34 2079.79C2463.34 2079.79 2459.65 2160.95 2412.31 2189.59C2369.36 2215.59 2460.36 2366.4 2558.25 2357.41C2611.83 2352.48 2624.39 2205.95 2624.39 2205.95C2624.39 2205.95 2581.12 2197.59 2597.1 2131.61L2463.34 2079.79Z" fill="#F6CBC3"/>
<path fill-rule="evenodd" clip-rule="evenodd" d="M2541.72 2162.31C2478.26 2154.64 2432.47 2112.91 2426.05 2043.69C2407.6 2046.63 2403.25 1998.56 2408.39 1983.12C2413.53 1967.65 2430.32 1976.7 2430.32 1976.7C2430.32 1976.7 2431.71 1973.03 2432.69 1969.02C2460.41 1855.31 2538.06 1859.82 2538.06 1859.82C2680.73 1867.25 2647.3 2012.91 2639.15 2051.56C2631 2090.2 2603.07 2169.72 2541.72 2162.31Z" fill="#F6CBC3"/>
<path fill-rule="evenodd" clip-rule="evenodd" d="M2114.61 2435.79C2114.61 2435.79 1945.13 2704.3 2007.67 2761.61C2070.22 2818.93 2246.32 2622.17 2246.32 2622.17C2246.32 2622.17 2237.25 2578.24 2199.46 2526.31C2161.68 2474.37 2114.61 2435.79 2114.61 2435.79Z" fill="#F6CBC3"/>
<path fill-rule="evenodd" clip-rule="evenodd" d="M2826.71 2562.97L2744.24 2553.37C2744.24 2553.37 2765.34 2837.25 2757.41 2837.25C2753.15 2837.25 2654.08 2890.96 2515.25 2890.96C2408.6 2890.96 2277.78 2855.69 2272.25 2855.39C2271.57 2855.35 2270.91 2854.89 2270.28 2854.04C2272.06 2834.46 2273.47 2799.84 2274.9 2761.61C2275.9 2734.79 2276.92 2706.2 2278.09 2679.79C2279.18 2655.22 2280.4 2632.54 2281.87 2614.92C2288.27 2538.07 2283.84 2467.94 2283.84 2467.94L2252.26 2553.64L2052.06 2480.7C2052.06 2480.7 2118.91 2383.27 2198.61 2298.54C2277.68 2214.45 2404.5 2193.12 2406.48 2192.8C2406.49 2192.79 2406.5 2192.79 2406.5 2192.79C2406.5 2192.79 2399.38 2308.79 2519.35 2317.7C2619.1 2325.11 2624.27 2205.55 2624.27 2205.55C2624.27 2205.55 2740.88 2235.99 2774.33 2264.52C2807.78 2293.05 2955.35 2487.84 2955.35 2492.76C2955.35 2497.68 2826.71 2562.97 2826.71 2562.97Z" fill="#F9C818"/>
<path fill-rule="evenodd" clip-rule="evenodd" d="M2278.09 2679.79C2276.92 2706.2 2275.9 2734.79 2274.9 2761.61C2274.67 2743.44 2275.39 2717.31 2278.09 2679.79Z" fill="#F9C818"/>
<path fill-rule="evenodd" clip-rule="evenodd" d="M2692.66 2596.37L2587.78 2604.89C2581.46 2605.4 2575.92 2600.7 2575.4 2594.37L2558.64 2388.14C2558.13 2381.82 2562.84 2376.27 2569.16 2375.76L2674.03 2367.24C2680.36 2366.72 2685.9 2371.43 2686.41 2377.75L2703.17 2583.99C2703.69 2590.31 2698.98 2595.85 2692.66 2596.37Z" fill="#204EB2"/>
<path fill-rule="evenodd" clip-rule="evenodd" d="M2703.35 2590.65L2598.09 2599.21C2591.88 2599.71 2586.43 2595.08 2585.92 2588.86L2569.74 2389.76C2569.23 2383.55 2573.86 2378.09 2580.08 2377.59L2685.34 2369.04C2691.55 2368.53 2697 2373.16 2697.51 2379.38L2713.69 2578.48C2714.2 2584.7 2709.56 2590.15 2703.35 2590.65Z" fill="#1F9BEB"/>
<path fill-rule="evenodd" clip-rule="evenodd" d="M2685.64 2391.73C2686.13 2397.71 2681.68 2402.94 2675.71 2403.43C2669.74 2403.91 2664.5 2399.46 2664.02 2393.49C2663.53 2387.52 2667.98 2382.29 2673.95 2381.8C2679.92 2381.32 2685.16 2385.76 2685.64 2391.73Z" fill="#204EB2"/>
<path fill-rule="evenodd" clip-rule="evenodd" d="M2664.88 2583.38C2664.88 2583.38 2612.28 2594.84 2611.94 2576.63C2611.94 2576.63 2647.68 2561.8 2655.78 2562.47C2663.87 2563.15 2701.29 2567.53 2701.29 2567.53L2655.1 2544.6L2609.25 2558.76C2609.25 2558.76 2598.79 2559.44 2594.07 2552.02C2589.35 2544.6 2594.75 2540.22 2594.75 2540.22L2654.76 2520.33C2654.76 2520.33 2656.79 2513.92 2641.61 2513.25C2626.44 2512.57 2593.06 2510.21 2593.06 2510.21C2593.06 2510.21 2585.65 2503.81 2589.02 2492.34C2592.39 2480.88 2611.27 2484.93 2611.27 2484.93C2611.27 2484.93 2600.82 2474.81 2616.66 2463.68C2616.66 2463.68 2665.22 2465.03 2683.09 2476.16C2700.95 2487.29 2823.28 2562.39 2823.28 2562.39L2918.48 2512.38C2918.48 2512.38 3099.23 2733.63 3014.39 2774.54C2929.55 2815.45 2664.88 2583.38 2664.88 2583.38Z" fill="#F6CBC3"/>
<path fill-rule="evenodd" clip-rule="evenodd" d="M2717.69 2517.07L2669.89 2489.98L2610.36 2483.6L2610.79 2479.62L2670.73 2486.05C2671 2486.07 2671.26 2486.16 2671.5 2486.29L2719.66 2513.59L2717.69 2517.07Z" fill="black"/>
<path fill-rule="evenodd" clip-rule="evenodd" d="M2909.57 2617.06L2795.32 2545.27L2797.45 2541.88L2911.7 2613.68L2909.57 2617.06Z" fill="black"/>
<path fill-rule="evenodd" clip-rule="evenodd" d="M2193.18 2534.95L2078.56 2606.17L2076.45 2602.77L2191.06 2531.55L2193.18 2534.95Z" fill="black"/>
<path fill-rule="evenodd" clip-rule="evenodd" d="M2713.82 2539.03C2713.52 2538.83 2683.56 2518.55 2675.75 2515.29C2669.79 2512.81 2657.88 2517.34 2653.79 2519.3L2652.07 2515.69C2652.73 2515.37 2668.48 2507.93 2677.29 2511.6C2685.47 2515.01 2714.82 2534.88 2716.06 2535.72L2713.82 2539.03Z" fill="black"/>
<path fill-rule="evenodd" clip-rule="evenodd" d="M2703.53 2459.92L2733.04 2505.06L2704.98 2487.41L2703.53 2459.92Z" fill="#F6CBC3"/>
<path fill-rule="evenodd" clip-rule="evenodd" d="M2731.97 2506.75L2703.91 2489.1L2706.04 2485.71L2734.1 2503.36L2731.97 2506.75Z" fill="black"/>
<path fill-rule="evenodd" clip-rule="evenodd" d="M2340.09 2616.81L2304.94 2616.12C2267.94 2615.39 2238.53 2584.81 2239.25 2547.8L2241.45 2435.79L2401.27 2438.93L2398.89 2560.26C2398.27 2592.12 2371.94 2617.43 2340.09 2616.81Z" fill="white"/>
<path fill-rule="evenodd" clip-rule="evenodd" d="M2237.95 2474.51C2237.95 2474.51 2223.53 2483.78 2218.89 2489.44C2214.25 2495.11 2218.38 2496.14 2208.07 2506.96C2197.77 2517.78 2179.23 2545.08 2211.68 2586.8C2244.13 2628.52 2254.95 2624.92 2268.34 2617.71C2281.73 2610.49 2283.28 2605.34 2308.52 2602.77C2333.76 2600.19 2357.97 2575.47 2357.45 2569.29L2356.94 2563.1C2356.94 2563.1 2380.12 2554.35 2378.57 2544.56C2377.03 2534.77 2370.33 2535.8 2370.33 2535.8C2370.33 2535.8 2374.97 2531.17 2371.36 2522.93C2367.76 2514.68 2350.76 2516.23 2331.18 2518.81C2311.61 2521.38 2261.13 2531.68 2258.04 2529.62C2254.95 2527.56 2255.98 2524.47 2267.83 2522.93C2279.67 2521.38 2327.58 2520.87 2327.58 2507.47C2327.58 2494.08 2313.16 2491.5 2285.34 2492.02C2257.52 2492.53 2252.37 2490.99 2245.68 2493.57L2238.98 2496.14L2237.95 2474.51Z" fill="#F6CBC3"/>
<path fill-rule="evenodd" clip-rule="evenodd" d="M2370.74 2535.75C2370.74 2535.75 2372.22 2534.68 2361.19 2538.89C2357.18 2540.42 2351.52 2542.02 2343.55 2543.53C2313.67 2549.2 2266.79 2559.5 2252.37 2561.56C2237.95 2563.62 2249.8 2566.71 2282.76 2560.01C2315.73 2553.32 2354.97 2544.33 2356.74 2543.75C2359.74 2542.75 2368.74 2539.75 2370.74 2535.75Z" fill="black"/>
<path fill-rule="evenodd" clip-rule="evenodd" d="M2346.12 2566.2C2346.12 2566.2 2321.74 2574.75 2309.74 2577.75C2297 2580.93 2287.4 2585.25 2284.83 2581.13C2282.25 2577.01 2279.16 2575.98 2279.16 2575.98L2275.04 2580.62C2275.04 2580.62 2275.74 2585.75 2273.49 2586.28C2269.49 2587.25 2261.65 2588.86 2261.65 2588.86C2261.65 2588.86 2261.74 2591.75 2285.74 2586.75C2291.69 2585.51 2302.74 2583.75 2309.74 2581.75C2316.18 2579.91 2339.43 2573.92 2342.52 2571.35C2345.61 2568.77 2346.12 2566.2 2346.12 2566.2Z" fill="black"/>
<path fill-rule="evenodd" clip-rule="evenodd" d="M2270.4 2563.62C2270.4 2563.62 2270.02 2584.36 2275.88 2584.04C2281.73 2583.71 2283.79 2583.71 2284.82 2582.16C2285.85 2580.62 2283.28 2575.47 2283.28 2569.8C2283.28 2564.13 2283.28 2561.56 2278.64 2562.07C2274.01 2562.59 2270.92 2562.59 2270.4 2563.62Z" fill="#F9C818"/>
<path fill-rule="evenodd" clip-rule="evenodd" d="M2504.51 3026.35C2504.51 3026.35 2547.26 3044.9 2552.41 3037.69C2557.56 3030.47 2513.26 3075.29 2513.26 3075.29L2481.33 3057.26L2504.51 3026.35Z" fill="#F6CBC3"/>
<path fill-rule="evenodd" clip-rule="evenodd" d="M2502.52 3026.35L2477.6 3059.57L2512.02 3079.01L2512.83 3078.19L2511.76 3077.14C2512.83 3078.19 2512.83 3078.19 2512.83 3078.19L2513.32 3077.69C2513.65 3077.36 2514.12 3076.89 2514.72 3076.28C2515.92 3075.07 2517.63 3073.35 2519.67 3071.31C2523.74 3067.22 2529.11 3061.85 2534.32 3056.7C2539.54 3051.55 2544.58 3046.63 2547.99 3043.46C2548.46 3043.03 2548.89 3042.63 2549.29 3042.27C2550.43 3041.94 2551.45 3041.36 2552.13 3040.4L2502.52 3026.35ZM2547.84 3039.53C2548.67 3038.8 2549.34 3038.23 2549.81 3037.88C2550 3037.73 2550.23 3037.57 2550.45 3037.46C2550.54 3037.41 2550.75 3037.31 2551.02 3037.27C2551.23 3037.23 2552.1 3037.16 2552.6 3037.98C2552.8 3038.31 2552.83 3038.63 2552.83 3038.82C2552.82 3039.01 2552.79 3039.17 2552.76 3039.26C2552.71 3039.45 2552.63 3039.61 2552.58 3039.71C2552.46 3039.93 2552.3 3040.16 2552.13 3040.4L2547.84 3039.53ZM2547.84 3039.53C2547.65 3039.57 2547.44 3039.6 2547.21 3039.63C2545.73 3039.79 2543.79 3039.67 2541.48 3039.32C2536.87 3038.62 2531.14 3037.01 2525.5 3035.15C2519.87 3033.29 2514.39 3031.21 2510.32 3029.59C2508.29 3028.78 2506.6 3028.09 2505.43 3027.6C2504.84 3027.35 2504.39 3027.16 2504.07 3027.03C2503.92 3026.96 2503.8 3026.91 2503.72 3026.88L2503.63 3026.84L2503.6 3026.83C2503.6 3026.82 2503.6 3026.82 2503.01 3028.2L2503.6 3026.83L2502.52 3026.35L2547.84 3039.53ZM2503.5 3030.04C2503.73 3030.14 2503.98 3030.25 2504.27 3030.37C2505.46 3030.86 2507.16 3031.56 2509.21 3032.38C2513.32 3034.01 2518.85 3036.12 2524.56 3038C2530.25 3039.87 2536.17 3041.54 2541.03 3042.29C2542.22 3042.47 2543.38 3042.6 2544.46 3042.66C2541.12 3045.81 2536.72 3050.11 2532.21 3054.56C2526.99 3059.72 2521.61 3065.1 2517.54 3069.19C2515.5 3071.23 2513.79 3072.96 2512.59 3074.17C2512.16 3074.6 2511.79 3074.97 2511.5 3075.27L2482.05 3058.64L2503.5 3030.04ZM2549.93 3038.3C2549.93 3038.3 2549.93 3038.3 2549.93 3038.3C2549.93 3038.3 2549.93 3038.3 2549.93 3038.3Z" fill="black"/>
<path fill-rule="evenodd" clip-rule="evenodd" d="M2847.05 3049.02C2847.05 3049.02 2909.89 3085.59 2859.93 3142.77C2809.96 3199.94 2633.28 3160.8 2633.28 3160.8L2628.65 3138.13C2628.65 3138.13 2806.36 3052.11 2847.05 3049.02Z" fill="#F0ECEC"/>
<path fill-rule="evenodd" clip-rule="evenodd" d="M2847.05 3049.02C2847.05 3049.02 2871.78 3054.17 2879.5 3082.5C2887.23 3110.83 2870.2 3143.82 2845.23 3154.89C2845.23 3154.89 2877.1 3084.17 2821.12 3055L2847.05 3049.02Z" fill="#E0D3CC"/>
<path fill-rule="evenodd" clip-rule="evenodd" d="M2826.86 3162.92C2826.86 3162.92 2804.3 3117.01 2794 3118.04C2783.69 3119.07 2672.17 3124.86 2660.97 3122.74L2624.01 3137.62L2630.55 3161.2C2630.55 3161.2 2768.04 3193.38 2826.86 3162.92Z" fill="#E7DADA"/>
<path fill-rule="evenodd" clip-rule="evenodd" d="M2796.57 3076.32C2796.57 3076.32 2804.81 3136.07 2792.96 3136.07C2781.12 3136.07 2778.03 3069.11 2775.97 3092.29C2773.9 3115.47 2772.36 3144.83 2764.63 3136.07C2756.91 3127.31 2772.87 3062.41 2766.18 3080.44C2759.48 3098.47 2755.36 3132.47 2744.54 3131.95C2733.73 3131.44 2748.66 3096.92 2743 3095.89C2737.33 3094.86 2726 3140.71 2716.21 3135.04C2706.43 3129.37 2724.45 3091.77 2714.15 3105.68C2703.85 3119.59 2700.76 3136.07 2691.49 3134.01C2682.22 3131.95 2692.52 3113.92 2698.18 3105.16C2703.85 3096.41 2790.9 3062.93 2793.48 3067.05C2796.05 3071.17 2796.57 3076.32 2796.57 3076.32Z" fill="#F9F9F9"/>
<path fill-rule="evenodd" clip-rule="evenodd" d="M2663.67 3135.04C2663.67 3135.04 2871.78 3074.77 2968.62 2998.02C3065.46 2921.27 3121.6 2846.58 3067 2762.62C3012.4 2678.66 2884.14 2742.53 2822.33 2769.83C2760.51 2797.13 2557.82 2835.74 2461.11 2835.5C2364.4 2835.25 2234.59 2828.04 2167.11 2807.95C2099.63 2787.86 1991.98 2757.47 1959.01 2839.37C1926.04 2921.27 1964.68 3001.63 2021.34 3028.93C2078 3056.23 2252.62 3114.95 2342.25 3109.29L2431.88 3103.62C2431.88 3103.62 2470.51 3060.87 2460.21 2998.54L2514.29 3037.69C2514.29 3037.69 2545.2 3037.17 2556.53 3033.05C2567.86 3028.93 2630.71 3179.85 2663.67 3135.04Z" fill="#165C5D"/>
<path fill-rule="evenodd" clip-rule="evenodd" d="M2608.56 3142.25C2608.56 3142.25 2517.9 3175.73 2496.26 3189.64C2474.63 3203.55 2429.82 3215.4 2408.18 3200.46C2386.55 3185.52 2399.42 3111.35 2399.42 3111.35C2399.42 3111.35 2472.05 3094.86 2480.3 3083.53C2488.54 3072.2 2554.47 3034.6 2554.47 3034.6L2608.56 3142.25Z" fill="#F6CBC3"/>
<path fill-rule="evenodd" clip-rule="evenodd" d="M2407.19 3117.21C2407.19 3117.21 2402.51 3105.16 2388.09 3107.74C2373.67 3110.32 2239.22 3095.38 2200.59 3084.56C2161.96 3073.74 2080.06 3150.49 2115.6 3204.58C2151.14 3258.67 2199.56 3232.91 2243.35 3229.31C2287.13 3225.7 2372.12 3238.06 2391.18 3231.88C2410.24 3225.7 2429.3 3214.37 2429.81 3200.97C2430.33 3187.58 2407.19 3117.21 2407.19 3117.21Z" fill="#F0ECEC"/>
<path fill-rule="evenodd" clip-rule="evenodd" d="M2210.62 3091.61C2210.62 3091.61 2153.72 3119.59 2143.42 3158.22C2133.12 3196.85 2137.9 3227.78 2137.9 3227.78C2137.9 3227.78 2083.9 3202.33 2114.69 3141.9C2145.48 3081.47 2193.86 3076.5 2210.62 3085.43C2227.38 3094.35 2210.62 3091.61 2210.62 3091.61Z" fill="#E0D3CC"/>
<path fill-rule="evenodd" clip-rule="evenodd" d="M2216.92 3090.31C2216.92 3090.31 2240.26 3127.31 2243.35 3154.1C2243.35 3154.1 2241.29 3159.25 2267.04 3158.74C2292.8 3158.22 2412.87 3131.87 2412.87 3131.87C2412.87 3131.87 2438.7 3193.75 2429.36 3209.72C2420.03 3225.7 2243.35 3195.31 2243.35 3195.31C2243.35 3195.31 2236.14 3191.19 2231.5 3194.79C2226.86 3198.4 2202.93 3231.43 2170.08 3238.09C2170.08 3238.09 2221.2 3210.76 2225.32 3174.7C2229.44 3138.65 2216.92 3090.31 2216.92 3090.31Z" fill="#EEDFD9"/>
<path fill-rule="evenodd" clip-rule="evenodd" d="M2386.55 3127.83C2386.55 3127.83 2385 3162.86 2391.7 3182.43C2398.39 3202 2403.95 3219.08 2392.42 3216.98C2380.88 3214.88 2368.52 3137.1 2375.21 3130.4C2381.91 3123.71 2386.03 3121.65 2386.55 3127.83Z" fill="white"/>
<path fill-rule="evenodd" clip-rule="evenodd" d="M2367.49 3131.95C2367.49 3131.95 2365.94 3166.98 2372.64 3186.55C2379.34 3206.13 2384.9 3223.2 2373.36 3221.1C2361.82 3219 2349.46 3141.22 2356.16 3134.53C2362.85 3127.83 2366.97 3125.77 2367.49 3131.95Z" fill="white"/>
<path fill-rule="evenodd" clip-rule="evenodd" d="M2300.01 3133.18C2300.01 3133.18 2298.46 3165.22 2305.16 3183.12C2311.86 3201.03 2317.42 3216.64 2305.88 3214.72C2294.34 3212.8 2281.98 3141.66 2288.68 3135.54C2295.37 3129.41 2299.49 3127.53 2300.01 3133.18Z" fill="white"/>
<path fill-rule="evenodd" clip-rule="evenodd" d="M2274.25 3137.08C2274.25 3137.08 2272.71 3166.98 2279.4 3183.69C2286.1 3200.4 2291.66 3214.98 2280.12 3213.19C2268.59 3211.4 2256.22 3144.99 2262.92 3139.28C2269.62 3133.56 2273.74 3131.8 2274.25 3137.08Z" fill="white"/>
<path fill-rule="evenodd" clip-rule="evenodd" d="M2255.74 3134.92C2255.74 3134.92 2249.97 3164.3 2254.22 3181.79C2258.48 3199.29 2261.91 3214.51 2250.75 3211.09C2239.58 3207.68 2236.77 3140.19 2244.21 3135.49C2251.66 3130.78 2255.98 3129.62 2255.74 3134.92Z" fill="white"/>
<path fill-rule="evenodd" clip-rule="evenodd" d="M2343.53 3134.2C2343.53 3134.2 2345.58 3169.2 2354.24 3187.99C2362.91 3206.77 2370.18 3223.19 2358.49 3222.28C2346.8 3221.38 2326.55 3145.27 2332.52 3137.92C2338.5 3130.58 2342.39 3128.1 2343.53 3134.2Z" fill="white"/>
<path fill-rule="evenodd" clip-rule="evenodd" d="M2333.43 3133.55C2333.43 3133.55 2326.47 3167.91 2330.05 3188.29C2333.63 3208.67 2336.47 3226.4 2325.4 3222.53C2314.33 3218.67 2314.18 3139.91 2321.84 3134.34C2329.49 3128.76 2333.88 3127.36 2333.43 3133.55Z" fill="white"/>
<path fill-rule="evenodd" clip-rule="evenodd" d="M2410.68 3129.52C2410.68 3129.52 2378.3 3136.59 2385 3175.73C2391.7 3214.88 2432.37 3203.85 2432.37 3203.85C2432.37 3203.85 2442.02 3139.46 2410.68 3129.52Z" fill="white"/>
<path d="M2866.32 2787.15L2581.99 3011.43L2520.44 3037.36L2455.26 2996.76L2231.45 2855.17L2229.31 2858.55L2453.13 3000.15L2520.08 3041.85L2584.04 3014.91L2868.8 2790.29L2866.32 2787.15Z" fill="black"/>
<path fill-rule="evenodd" clip-rule="evenodd" d="M2448.36 2975.36C2448.36 2975.36 2494.72 2988.24 2507.6 3010.39C2520.47 3032.54 2516.35 3070.65 2478.24 3086.62C2440.12 3102.59 2424.66 3115.98 2434.45 3090.74C2444.24 3065.5 2462.27 3019.14 2448.36 2975.36Z" fill="#46AFAC"/>
<path fill-rule="evenodd" clip-rule="evenodd" d="M2583.32 3004.72C2583.32 3004.72 2587.95 3056.23 2616.28 3096.41C2644.61 3136.59 2669.86 3140.71 2660.58 3150.49C2651.31 3160.28 2636.89 3164.92 2627.62 3177.28C2618.34 3189.64 2618.86 3189.13 2597.23 3163.37C2575.59 3137.62 2528.2 3080.44 2527.17 3029.44C2527.17 3029.44 2579.2 2987.72 2583.32 3004.72Z" fill="#46AFAC"/>
<path d="M2584.33 1995.31L2588.14 1996.53L2587.76 1997.73C2587.46 1998.7 2587.13 1999.81 2586.77 2001.05C2585.74 2004.58 2584.71 2008.37 2583.76 2012.27C2582.69 2016.61 2581.77 2020.82 2581.06 2024.79L2580.85 2025.97C2579.11 2036.07 2578.87 2043.79 2580.42 2047.94L2580.51 2048.17C2589.39 2070.13 2577.34 2081.27 2552.03 2073.47L2551.26 2073.23L2552.48 2069.42C2575.27 2076.72 2584.41 2068.5 2576.8 2049.67C2574.71 2044.49 2575.03 2035.69 2577.12 2024.08C2577.85 2020.02 2578.79 2015.73 2579.87 2011.32C2580.74 2007.8 2581.66 2004.37 2582.58 2001.13L2582.93 1999.93C2583.14 1999.21 2583.34 1998.54 2583.53 1997.9L2584.02 1996.3L2584.33 1995.31Z" fill="black"/>
<path d="M2485.57 2148.33L2487.53 2144.84L2488.24 2145.23L2488.9 2145.58C2489.89 2146.1 2491.02 2146.68 2492.28 2147.29L2492.82 2147.56C2497.04 2149.62 2501.71 2151.67 2506.69 2153.59C2518.14 2158.01 2529.45 2161.02 2539.97 2162C2544.74 2162.44 2549.26 2162.45 2553.49 2162L2554.34 2161.9L2554.83 2165.87C2550.05 2166.46 2544.96 2166.48 2539.6 2165.98C2528.66 2164.96 2517.01 2161.86 2505.25 2157.32C2500.16 2155.36 2495.39 2153.26 2491.07 2151.16L2489.44 2150.35C2488.74 2150 2488.09 2149.67 2487.48 2149.35L2486.35 2148.75L2485.57 2148.33Z" fill="black"/>
<path fill-rule="evenodd" clip-rule="evenodd" d="M2555.1 2107.81C2536.88 2102.93 2525.37 2090.9 2524.83 2090.33C2523.7 2089.12 2523.75 2087.22 2524.96 2086.09C2526.16 2084.95 2528.06 2085.01 2529.2 2086.21C2529.43 2086.45 2542.97 2100.48 2563.07 2103.33C2564.69 2103.56 2565.85 2105.08 2565.61 2106.72C2565.38 2108.36 2563.86 2109.5 2562.22 2109.27C2559.75 2108.92 2557.37 2108.42 2555.1 2107.81Z" fill="black"/>
<path fill-rule="evenodd" clip-rule="evenodd" d="M2566.21 2075.96C2562.17 2075.96 2557.13 2075.17 2550.83 2073.16L2552.05 2069.35C2563.77 2073.1 2572.43 2072.79 2576.43 2068.48C2579.84 2064.81 2579.82 2058.11 2576.37 2049.6C2574.04 2043.82 2574.62 2032.87 2578.09 2017.04C2580.63 2005.46 2583.86 1995.34 2583.9 1995.24L2587.71 1996.46C2584.2 2007.39 2575.99 2037.98 2580.08 2048.1C2585.28 2060.95 2582.56 2067.76 2579.36 2071.2C2577.08 2073.66 2573.11 2075.96 2566.21 2075.96Z" fill="black"/>
<path fill-rule="evenodd" clip-rule="evenodd" d="M2549.53 1993.18C2548.93 1993.18 2548.31 1993.08 2547.71 1992.87C2541.88 1990.84 2525.02 1985.43 2517.21 1984.85C2509.85 1984.3 2498.63 1987.94 2494.93 1989.38C2492.1 1990.49 2488.91 1989.09 2487.8 1986.27C2486.7 1983.44 2488.09 1980.25 2490.92 1979.14C2491.55 1978.89 2506.65 1973.03 2518.02 1973.88C2528.88 1974.68 2550.43 1982.17 2551.34 1982.49C2554.21 1983.49 2555.72 1986.63 2554.72 1989.49C2553.93 1991.76 2551.8 1993.18 2549.53 1993.18Z" fill="black"/>
<path fill-rule="evenodd" clip-rule="evenodd" d="M2642.07 2011.96C2640.96 2011.96 2639.85 2011.62 2638.89 2010.92C2635.84 2008.68 2626.39 2002.61 2619.53 2001.46C2612.2 2000.24 2595.35 2001.62 2589.47 2002.26C2586.53 2002.57 2583.88 2000.45 2583.56 1997.5C2583.24 1994.55 2585.37 1991.9 2588.32 1991.58C2589.24 1991.48 2611.02 1989.16 2621.3 1990.87C2632.1 1992.68 2644.72 2001.87 2645.25 2002.26C2647.64 2004.02 2648.15 2007.38 2646.4 2009.77C2645.35 2011.2 2643.72 2011.96 2642.07 2011.96Z" fill="black"/>
<path fill-rule="evenodd" clip-rule="evenodd" d="M2539.02 2021.92C2538.3 2021.92 2537.57 2021.66 2537 2021.13C2536.96 2021.1 2532.01 2016.71 2524.87 2016.97C2517.48 2017.25 2512.58 2020.86 2512.53 2020.9C2511.21 2021.89 2509.33 2021.63 2508.33 2020.31C2507.34 2018.99 2507.58 2017.13 2508.9 2016.12C2509.15 2015.93 2515.27 2011.32 2524.65 2010.98C2534.3 2010.63 2540.78 2016.46 2541.05 2016.71C2542.27 2017.83 2542.36 2019.73 2541.24 2020.95C2540.64 2021.6 2539.84 2021.92 2539.02 2021.92Z" fill="black"/>
<path fill-rule="evenodd" clip-rule="evenodd" d="M2623.14 2031.07C2622.42 2031.07 2621.69 2030.81 2621.11 2030.28C2621.08 2030.24 2616.13 2025.85 2608.99 2026.12C2601.62 2026.39 2596.7 2030 2596.66 2030.03C2595.34 2031.04 2593.46 2030.79 2592.45 2029.47C2591.45 2028.16 2591.7 2026.27 2593.01 2025.27C2593.27 2025.07 2599.39 2020.47 2608.77 2020.12C2618.41 2019.78 2624.9 2025.61 2625.17 2025.86C2626.39 2026.98 2626.47 2028.88 2625.35 2030.1C2624.76 2030.74 2623.95 2031.07 2623.14 2031.07Z" fill="black"/>
<mask id="mask13_1261:7210" style="mask-type:alpha" maskUnits="userSpaceOnUse" x="2410" y="1791" width="258" height="220">
<path fill-rule="evenodd" clip-rule="evenodd" d="M2410.28 1791.9H2667.88V2010.53H2410.28V1791.9Z" fill="white"/>
</mask>
<g mask="url(#mask13_1261:7210)">
<path fill-rule="evenodd" clip-rule="evenodd" d="M2416.31 1973.21C2416.31 1973.21 2397.35 1879.98 2426.67 1877.19L2455.98 1874.4C2455.98 1874.4 2433.77 1816.95 2485.34 1799.76C2536.91 1782.57 2585.66 1793.47 2609.1 1833.46C2632.55 1873.45 2656.61 1865.5 2665.97 1905.27C2675.33 1945.03 2647.26 2010.53 2647.26 2010.53C2647.26 2010.53 2643.32 1927.73 2633.93 1918.34C2624.54 1908.95 2585.82 1943.33 2536.54 1932.77C2487.25 1922.21 2456.56 1879.79 2447.65 1939.21C2438.74 1998.62 2430.4 1980.68 2430.4 1980.68C2430.4 1980.68 2427.35 1972.45 2416.09 1975.26L2416.31 1973.21Z" fill="#0F0F0F"/>
</g>
<path fill-rule="evenodd" clip-rule="evenodd" d="M2481.42 2010.47C2481.42 1989.38 2498.53 1972.28 2519.62 1972.28C2540.72 1972.28 2557.82 1989.38 2557.82 2010.47C2557.82 2031.57 2540.72 2048.67 2519.62 2048.67C2498.53 2048.67 2481.42 2031.57 2481.42 2010.47ZM2548.82 2010.47C2548.82 1994.35 2535.74 1981.28 2519.62 1981.28C2503.5 1981.28 2490.42 1994.35 2490.42 2010.47C2490.42 2026.6 2503.5 2039.67 2519.62 2039.67C2535.75 2039.67 2548.82 2026.6 2548.82 2010.47Z" fill="black"/>
<path fill-rule="evenodd" clip-rule="evenodd" d="M2575.34 2019.58C2575.34 1998.48 2592.45 1981.38 2613.54 1981.38C2634.64 1981.38 2651.74 1998.48 2651.74 2019.58C2651.74 2040.68 2634.64 2057.78 2613.54 2057.78C2592.45 2057.78 2575.34 2040.68 2575.34 2019.58ZM2642.74 2019.58C2642.74 2003.46 2629.67 1990.38 2613.54 1990.38C2597.42 1990.38 2584.34 2003.46 2584.34 2019.58C2584.34 2035.7 2597.42 2048.78 2613.54 2048.78C2629.67 2048.78 2642.74 2035.7 2642.74 2019.58Z" fill="black"/>
<path d="M2430.75 1983.1C2431.64 1980.87 2434.14 1979.74 2436.39 1980.52L2436.6 1980.6L2486.6 2000.6C2488.9 2001.52 2490.03 2004.14 2489.1 2006.45C2488.21 2008.69 2485.71 2009.81 2483.46 2009.03L2483.25 2008.95L2433.25 1988.95C2430.95 1988.03 2429.82 1985.41 2430.75 1983.1Z" fill="black"/>
<path d="M2549.23 2012.36C2549.5 2009.96 2551.61 2008.21 2553.99 2008.37L2554.2 2008.39L2580.42 2011.3C2582.89 2011.58 2584.67 2013.8 2584.4 2016.27C2584.13 2018.67 2582.02 2020.42 2579.64 2020.27L2579.43 2020.25L2553.21 2017.33C2550.74 2017.06 2548.96 2014.83 2549.23 2012.36Z" fill="black"/>
<path fill-rule="evenodd" clip-rule="evenodd" d="M2563.7 2124.53L2546.7 2122.53C2546.7 2122.53 2518.7 2146.53 2506.7 2126.53C2492.18 2102.33 2519.7 2094.53 2536.7 2091.53C2553.7 2088.53 2562.7 2084.53 2562.7 2084.53C2568.7 2090.53 2565.66 2088.75 2575.99 2097.32C2587 2106.45 2593.68 2134.19 2581.94 2138.78C2570.19 2143.38 2563.7 2124.53 2563.7 2124.53ZM2633.7 2070.53C2616.7 2130.53 2604.7 2094.53 2584.7 2080.53C2573.68 2072.82 2520.7 2060.53 2505.7 2083.53C2490.7 2106.53 2487.7 2105.53 2465.7 2085.53C2443.7 2065.53 2438.32 2046.71 2437.7 2022.53C2436.53 1976.79 2430.54 1978.77 2429.75 1976.79C2429.47 1980.92 2421.76 2059.31 2423.7 2084.53C2425.7 2110.53 2464.7 2191.53 2538.7 2187.53C2612.7 2183.53 2630.7 2116.53 2634.7 2070.53" fill="#0F0F0F"/>
<path fill-rule="evenodd" clip-rule="evenodd" d="M671.888 2625.29C671.888 2625.29 477.888 2617.29 393.888 2760.29C309.888 2903.29 373.888 3062.29 373.888 3062.29L866.888 3063.29L760.888 2844.29L759.888 2639.29L671.888 2625.29Z" fill="#FC7750"/>
<path fill-rule="evenodd" clip-rule="evenodd" d="M801.388 2697.79L793.388 3060.79L633.388 3061.79C633.388 3061.79 616.388 2990.79 669.388 2850.79C722.388 2710.79 720.388 2653.79 720.388 2653.79L801.388 2697.79Z" fill="white"/>
<path fill-rule="evenodd" clip-rule="evenodd" d="M373.388 3061.79C373.388 3061.79 335.388 3065.79 295.388 2932.79C255.388 2799.79 181.808 2761.7 114.388 2756.79C69.7575 2753.55 40.6275 2736.09 34.3875 2697.79C27.0775 2652.99 162.388 2657.79 240.388 2704.79C318.388 2751.79 344.098 2843.91 394.388 2923.79C444.672 3003.68 373.388 3061.79 373.388 3061.79Z" fill="#FC7750"/>
<path fill-rule="evenodd" clip-rule="evenodd" d="M890.887 3064.29H918.888C938.217 3064.29 953.888 3048.62 953.888 3029.29C953.888 3009.96 938.217 2994.29 918.888 2994.29H890.887C871.558 2994.29 855.888 3009.96 855.888 3029.29C855.888 3048.62 871.558 3064.29 890.887 3064.29Z" fill="white"/>
<path fill-rule="evenodd" clip-rule="evenodd" d="M918.888 2995.79C937.36 2995.79 952.388 3010.82 952.388 3029.29C952.388 3047.77 937.36 3062.79 918.888 3062.79H890.887C872.415 3062.79 857.388 3047.77 857.388 3029.29C857.388 3010.82 872.415 2995.79 890.887 2995.79H918.888ZM890.887 3065.79H918.888C939.014 3065.79 955.388 3049.42 955.388 3029.29C955.388 3009.17 939.014 2992.79 918.888 2992.79H890.887C870.761 2992.79 854.388 3009.17 854.388 3029.29C854.388 3049.42 870.761 3065.79 890.887 3065.79Z" fill="#FA933F"/>
<path fill-rule="evenodd" clip-rule="evenodd" d="M805.781 3010.17L806.997 3007.42C806.802 3007.34 787.277 2998.53 770.573 2979.1C755.218 2961.24 739.159 2930.44 749.848 2885.14L746.928 2884.45C735.935 2931.04 752.525 2962.75 768.377 2981.15C785.525 3001.05 804.962 3009.8 805.781 3010.17Z" fill="#FA933F"/>
<path fill-rule="evenodd" clip-rule="evenodd" d="M814.887 3066.29H842.888C862.217 3066.29 877.888 3050.62 877.888 3031.29C877.888 3011.96 862.217 2996.29 842.888 2996.29H814.887C795.558 2996.29 779.888 3011.96 779.888 3031.29C779.888 3050.62 795.558 3066.29 814.887 3066.29Z" fill="white"/>
<path fill-rule="evenodd" clip-rule="evenodd" d="M842.888 2997.79C861.36 2997.79 876.388 3012.82 876.388 3031.29C876.388 3049.77 861.36 3064.79 842.888 3064.79H814.887C796.415 3064.79 781.388 3049.77 781.388 3031.29C781.388 3012.82 796.415 2997.79 814.887 2997.79H842.888ZM814.887 3067.79H842.888C863.014 3067.79 879.388 3051.42 879.388 3031.29C879.388 3011.17 863.014 2994.79 842.888 2994.79H814.887C794.761 2994.79 778.388 3011.17 778.388 3031.29C778.388 3051.42 794.761 3067.79 814.887 3067.79Z" fill="#FA933F"/>
<path fill-rule="evenodd" clip-rule="evenodd" d="M604.888 3042.29L677.625 3002.36C677.625 3002.36 642.215 2960.62 639.552 2953.96C636.889 2947.29 626.888 2957.29 626.888 2957.29L604.888 3042.29Z" fill="#FC7750"/>
<path fill-rule="evenodd" clip-rule="evenodd" d="M681.532 3005.03L683.245 3002.56L682.388 3003.79L683.247 3002.56C683.018 3002.4 659.783 2985.61 610.656 2907.99C585.09 2867.6 536.375 2822.72 476.324 2817.91C432.581 2814.39 390.718 2833.73 355.268 2873.8L357.508 2875.79C392.318 2836.45 433.325 2817.47 476.084 2820.9C535.034 2825.62 582.942 2869.81 608.121 2909.6C657.713 2987.95 680.583 3004.37 681.532 3005.03Z" fill="#FDD4B8"/>
<path fill-rule="evenodd" clip-rule="evenodd" d="M655.887 3067.29H722.888C742.217 3067.29 757.888 3051.62 757.888 3032.29C757.888 3012.96 742.217 2997.29 722.888 2997.29H655.887C636.558 2997.29 620.888 3012.96 620.888 3032.29C620.888 3051.62 636.558 3067.29 655.887 3067.29Z" fill="white"/>
<path fill-rule="evenodd" clip-rule="evenodd" d="M722.888 2998.79C741.36 2998.79 756.388 3013.82 756.388 3032.29C756.388 3050.77 741.36 3065.79 722.888 3065.79H655.887C637.415 3065.79 622.388 3050.77 622.388 3032.29C622.388 3013.82 637.415 2998.79 655.887 2998.79H722.888ZM655.887 3068.79H722.888C743.014 3068.79 759.388 3052.42 759.388 3032.29C759.388 3012.17 743.014 2995.79 722.888 2995.79H655.887C635.761 2995.79 619.388 3012.17 619.388 3032.29C619.388 3052.42 635.761 3068.79 655.887 3068.79Z" fill="#FA933F"/>
<path fill-rule="evenodd" clip-rule="evenodd" d="M802.388 2741.79C802.388 2741.79 719.388 2759.79 665.388 2712.79C611.388 2665.79 621.388 2623.79 621.388 2623.79L663.888 2621.29L803.888 2704.29L802.888 2730.29L802.388 2741.79Z" fill="#E93737"/>
<path fill-rule="evenodd" clip-rule="evenodd" d="M781.388 2752.29C781.388 2763.06 790.117 2771.79 800.888 2771.79C811.658 2771.79 820.388 2763.06 820.388 2752.29C820.388 2741.52 811.658 2732.79 800.888 2732.79C790.117 2732.79 781.388 2741.52 781.388 2752.29Z" fill="#E93737"/>
<path fill-rule="evenodd" clip-rule="evenodd" d="M796.743 2504.64L755.699 2445.79L757.53 2505.7L796.743 2504.64Z" fill="white"/>
<path fill-rule="evenodd" clip-rule="evenodd" d="M731.39 2515.26L755.701 2445.79L757.24 2505.79L731.39 2515.26Z" fill="#FC7750"/>
<path fill-rule="evenodd" clip-rule="evenodd" d="M699.106 2521.85L626.888 2509.34L669.595 2551.4L699.106 2521.85Z" fill="white"/>
<path fill-rule="evenodd" clip-rule="evenodd" d="M656.023 2577.51L626.889 2509.34L669.435 2551.68L656.023 2577.51Z" fill="#FC7750"/>
<path fill-rule="evenodd" clip-rule="evenodd" d="M650.388 2607.29C650.388 2667.22 698.964 2715.79 758.888 2715.79C818.811 2715.79 867.388 2667.22 867.388 2607.29C867.388 2547.37 818.811 2498.79 758.888 2498.79C698.964 2498.79 650.388 2547.37 650.388 2607.29Z" fill="#FC7750"/>
<path fill-rule="evenodd" clip-rule="evenodd" d="M807.028 2594.4L904.435 2591.29L904.34 2588.3L813.747 2591.19L872.525 2522.77L870.25 2520.82L807.028 2594.4Z" fill="#E93737"/>
<path fill-rule="evenodd" clip-rule="evenodd" d="M810.611 2594.61L881.611 2555.61L880.168 2552.98L809.168 2591.98L810.611 2594.61Z" fill="#E93737"/>
<path fill-rule="evenodd" clip-rule="evenodd" d="M673.79 2698.63L734.681 2622.54L637.882 2629.02L638.083 2632.01L728.079 2625.99L671.448 2696.76L673.79 2698.63Z" fill="#E93737"/>
<path fill-rule="evenodd" clip-rule="evenodd" d="M658.915 2658.97L732.697 2625.53L731.459 2622.8L657.677 2656.24L658.915 2658.97Z" fill="#E93737"/>
<path fill-rule="evenodd" clip-rule="evenodd" d="M788.255 2658.61L802.12 2652.89C815.903 2647.2 822.465 2631.41 816.776 2617.63C811.085 2603.85 795.299 2597.29 781.516 2602.98L767.651 2608.7C753.867 2614.39 747.306 2630.18 752.995 2643.96C758.686 2657.74 774.472 2664.3 788.255 2658.61Z" fill="#FCEBEC"/>
<path fill-rule="evenodd" clip-rule="evenodd" d="M786.322 2600.75L778.466 2618.97L760.583 2611.92L786.322 2600.75Z" fill="#E93737"/>
<path fill-rule="evenodd" clip-rule="evenodd" d="M771.298 2635.87C771.887 2635.87 772.444 2635.52 772.684 2634.94L778.751 2620.34L797.131 2622.94C797.951 2623.05 798.711 2622.48 798.826 2621.66C798.942 2620.84 798.371 2620.08 797.551 2619.97L776.872 2617.05L769.914 2633.79C769.596 2634.56 769.958 2635.44 770.724 2635.75C770.911 2635.83 771.107 2635.87 771.298 2635.87Z" fill="#E93737"/>
</svg>
