<svg width="1591" height="1498" viewBox="0 0 1591 1498" fill="none" xmlns="http://www.w3.org/2000/svg">
<path opacity="0.5" d="M841.186 1417.57C1247.13 1417.57 1576.21 1405.66 1576.21 1390.97C1576.21 1376.28 1247.13 1364.37 841.186 1364.37C435.245 1364.37 106.164 1376.28 106.164 1390.97C106.164 1405.66 435.245 1417.57 841.186 1417.57Z" fill="#D5ECFF"/>
<path fill-rule="evenodd" clip-rule="evenodd" d="M106.164 989.659V54.4804C106.164 29.4064 120.635 9.07886 138.485 9.07886H1434.69C1452.54 9.07886 1467.01 29.4064 1467.01 54.4804V987.517C1467.01 988.7 1466.33 989.659 1465.49 989.659H106.164Z" fill="#FCEBEC"/>
<path fill-rule="evenodd" clip-rule="evenodd" d="M1369.28 1103.4L1444.07 989.658H1294.5L1369.28 1103.4Z" fill="#DDB0C8"/>
<path fill-rule="evenodd" clip-rule="evenodd" d="M162.598 44.8531C162.598 51.6924 157.052 57.2365 150.21 57.2365C143.368 57.2365 137.822 51.6924 137.822 44.8531C137.822 38.0138 143.368 32.4697 150.21 32.4697C157.052 32.4697 162.598 38.0138 162.598 44.8531Z" fill="#E93737"/>
<path fill-rule="evenodd" clip-rule="evenodd" d="M213.986 43.9359C213.986 50.7752 208.439 56.3192 201.597 56.3192C194.756 56.3192 189.209 50.7752 189.209 43.9359C189.209 37.0966 194.756 31.5525 201.597 31.5525C208.439 31.5525 213.986 37.0966 213.986 43.9359Z" fill="#F9C818"/>
<path fill-rule="evenodd" clip-rule="evenodd" d="M267.208 44.3944C267.208 51.2337 261.662 56.7777 254.82 56.7777C247.978 56.7777 242.432 51.2337 242.432 44.3944C242.432 37.5551 247.978 32.011 254.82 32.011C261.662 32.011 267.208 37.5551 267.208 44.3944Z" fill="#1BC0D7"/>
<path d="M1467.01 76.0408H786.587V483.316H1467.01V76.0408Z" fill="#FFE89D"/>
<mask id="mask0_1261:7210" style="mask-type:alpha" maskUnits="userSpaceOnUse" x="786" y="76" width="682" height="408">
<path d="M1467.01 76.0408H786.587V483.316H1467.01V76.0408Z" fill="white"/>
</mask>
<g mask="url(#mask0_1261:7210)">
<path fill-rule="evenodd" clip-rule="evenodd" d="M1128.88 247.573C1128.88 247.573 1130.58 284.794 1152.3 297.933C1172 309.853 1130.25 379.025 1085.34 374.899C1060.76 372.64 1054.99 305.435 1054.99 305.435C1054.99 305.435 1074.85 301.6 1067.51 271.34L1128.88 247.573Z" fill="#C26E5E"/>
<path fill-rule="evenodd" clip-rule="evenodd" d="M1092.92 285.419C1122.04 281.899 1143.05 262.762 1145.99 231.015C1154.46 232.363 1156.45 210.316 1154.1 203.233C1151.74 196.141 1144.04 200.288 1144.04 200.288C1144.04 200.288 1143.4 198.606 1142.95 196.768C1130.23 144.615 1094.6 146.683 1094.6 146.683C1029.14 150.092 1044.48 216.899 1048.22 234.623C1051.96 252.348 1064.77 288.818 1092.92 285.419Z" fill="#C26E5E"/>
<path fill-rule="evenodd" clip-rule="evenodd" d="M1251.56 339.065C1271.13 370.039 1269.75 400.602 1283.61 410.383C1297.48 420.164 1303.18 434.02 1307.26 451.952C1311.34 469.883 1307.26 460.261 1307.26 460.261L1238.25 507.655C1238.25 507.655 1197.18 422.609 1204.52 449.506C1211.86 476.404 1229.18 589.541 1222.19 596.04C1215.2 602.539 1149.53 627.692 1090.06 624.982C1037.96 622.606 988.879 608.714 988.879 604.908C988.879 596.757 1000.68 504.932 1000.68 504.932L939.52 491.075C939.52 491.075 944.659 369.114 996.899 328.134C996.899 328.134 1025.2 307.463 1060.03 299.847C1060.03 299.847 1070.18 321.969 1102.11 322.694C1134.03 323.419 1144.39 312.014 1152.36 299.4C1152.36 299.4 1231.99 308.092 1251.56 339.065Z" fill="#FC7750"/>
<path fill-rule="evenodd" clip-rule="evenodd" d="M1247.42 501.71C1247.42 501.71 1276.27 565.255 1306.43 543.799C1336.59 522.342 1353.53 496.4 1397.1 435.616C1414.21 411.737 1457.05 353.564 1445.87 349.064C1439.65 346.562 1401.15 383.944 1379.38 398.746C1372.96 403.106 1317.98 456.918 1312.04 457.711C1306.1 458.504 1247.42 501.71 1247.42 501.71Z" fill="#C26E5E"/>
<path fill-rule="evenodd" clip-rule="evenodd" d="M1375.5 397.619C1375.5 397.619 1369.76 388.099 1391.2 367.589C1402.52 356.767 1411.08 331.762 1417.36 336.064C1423.64 340.367 1410.58 369.814 1410.58 369.814C1410.58 369.814 1424.28 357.427 1432.38 343.778C1440.48 330.131 1448.01 319.036 1448.01 319.036C1448.01 319.036 1454.43 314.913 1454.87 321.406C1455.31 327.899 1453.49 329.965 1453.49 329.965C1453.49 329.965 1458.42 328.807 1458.52 333.78C1458.62 338.752 1457.71 339.785 1457.71 339.785C1457.71 339.785 1461.42 339.383 1461.5 343.734C1461.59 348.085 1459.16 350.84 1459.16 350.84C1459.16 350.84 1461.96 351.47 1459.59 356.712C1457.21 361.952 1443.8 389.257 1434.37 398.067C1424.94 406.877 1400.32 421.915 1400.32 421.915C1400.32 421.915 1373.33 405.108 1375.5 397.619Z" fill="#C26E5E"/>
<path fill-rule="evenodd" clip-rule="evenodd" d="M1432.94 379.588C1433.24 379.368 1440.46 374.071 1448.14 361.694C1455.04 350.576 1457.64 351.299 1457.67 351.311C1457.67 351.311 1457.64 351.303 1457.6 351.274L1458.35 350.121C1458.23 350.045 1457.79 349.81 1456.99 349.988C1455.29 350.364 1452.18 352.575 1446.97 360.968C1439.43 373.117 1432.21 378.42 1432.13 378.472L1432.94 379.588Z" fill="black"/>
<path fill-rule="evenodd" clip-rule="evenodd" d="M1429.16 373.548C1429.18 373.529 1431.18 371.674 1436.64 366.822C1440.52 363.373 1445.29 355.679 1448.78 350.061C1450.35 347.531 1451.71 345.348 1452.6 344.156C1455.26 340.617 1457.77 340.414 1457.8 340.413L1457.74 339.038C1457.61 339.044 1454.59 339.218 1451.5 343.33C1450.57 344.57 1449.2 346.778 1447.61 349.335C1444.17 354.882 1439.45 362.478 1435.72 365.794C1430.26 370.658 1428.25 372.521 1428.23 372.539L1429.16 373.548Z" fill="black"/>
<path fill-rule="evenodd" clip-rule="evenodd" d="M1426.22 368.548C1426.3 368.481 1433.82 361.693 1438.94 355.01C1443.74 348.755 1447.65 340.294 1449.75 335.749L1450.24 334.704C1451.95 331.02 1453.49 330.549 1453.51 330.546L1453.2 329.204C1452.99 329.25 1451.01 329.779 1448.99 334.124L1448.5 335.172C1446.43 339.668 1442.56 348.038 1437.85 354.172C1432.8 360.757 1425.38 367.459 1425.3 367.526L1426.22 368.548Z" fill="black"/>
<path fill-rule="evenodd" clip-rule="evenodd" d="M1397.75 380.161C1397.79 380.121 1401.96 376.072 1405.27 374.931C1408.94 373.663 1411.15 370.331 1411.24 370.19L1410.09 369.438C1410.07 369.469 1408.04 372.52 1404.82 373.63C1401.21 374.873 1396.97 379.003 1396.79 379.178L1397.75 380.161Z" fill="black"/>
<path fill-rule="evenodd" clip-rule="evenodd" d="M1102.3 253.054C1102.3 253.054 1103.42 260.282 1093.44 263.009C1083.45 265.734 1078.73 265.075 1078.29 260.395C1078.29 260.395 1079.2 255.086 1081.55 254.536C1083.9 253.985 1086.57 254.933 1086.57 254.933C1086.57 254.933 1088.5 251.463 1091.04 251.438C1093.57 251.413 1098.96 253.633 1102.3 253.054Z" fill="#CE4129"/>
<path fill-rule="evenodd" clip-rule="evenodd" d="M1084.96 259.489C1092.24 257.459 1100.92 254.901 1103.51 253.12C1105.39 251.82 1106.18 251.97 1106.18 251.972C1106.18 251.972 1105.2 249.723 1102.46 251.609C1099.8 253.445 1088.26 256.664 1084.47 257.722C1077.84 259.572 1077.18 259.309 1076.35 258.977L1075.67 260.681C1076.47 261.003 1077.22 261.165 1078.81 260.941C1080.12 260.757 1082 260.314 1084.96 259.489Z" fill="black"/>
<path fill-rule="evenodd" clip-rule="evenodd" d="M1090.57 287.098C1096.93 287.098 1103.5 285.245 1108.21 283.533C1114.25 281.34 1118.63 278.897 1118.67 278.873L1118 277.673C1117.83 277.769 1100.81 287.195 1087.21 285.524L1087.04 286.89C1088.2 287.032 1089.38 287.098 1090.57 287.098Z" fill="black"/>
<path d="M1073.37 208.825L1071.63 209.386L1071.8 209.933C1071.94 210.379 1072.09 210.89 1072.25 211.457C1072.72 213.076 1073.2 214.815 1073.64 216.605C1074.13 218.595 1074.55 220.525 1074.87 222.347L1074.97 222.886C1075.77 227.52 1075.88 231.059 1075.17 232.962L1075.12 233.07C1071.05 243.143 1076.58 248.251 1088.19 244.674L1088.55 244.563L1087.99 242.816C1077.53 246.161 1073.33 242.392 1076.83 233.757C1077.79 231.381 1077.64 227.347 1076.68 222.022C1076.34 220.159 1075.92 218.192 1075.42 216.167C1075.02 214.552 1074.6 212.979 1074.17 211.496L1074.02 210.944C1073.92 210.615 1073.83 210.304 1073.74 210.014L1073.52 209.278L1073.37 208.825Z" fill="black"/>
<path d="M1118.68 279.006L1117.79 277.406L1117.46 277.585L1117.16 277.744C1116.7 277.984 1116.19 278.248 1115.61 278.531L1115.36 278.653C1113.42 279.596 1111.28 280.54 1109 281.42C1103.74 283.445 1098.55 284.827 1093.73 285.275C1091.54 285.478 1089.46 285.483 1087.52 285.275L1087.13 285.23L1086.91 287.051C1089.1 287.321 1091.44 287.33 1093.9 287.101C1098.91 286.635 1104.26 285.212 1109.66 283.132C1111.99 282.232 1114.18 281.268 1116.16 280.303L1116.91 279.932C1117.23 279.773 1117.53 279.62 1117.81 279.475L1118.33 279.2L1118.68 279.006Z" fill="black"/>
<path fill-rule="evenodd" clip-rule="evenodd" d="M1081.69 245.815C1083.54 245.815 1085.86 245.452 1088.74 244.528L1088.18 242.781C1082.81 244.501 1078.83 244.361 1077 242.385C1075.44 240.703 1075.44 237.627 1077.02 233.723C1078.09 231.074 1077.83 226.051 1076.24 218.791C1075.07 213.479 1073.59 208.837 1073.57 208.791L1071.82 209.351C1073.43 214.365 1077.2 228.396 1075.32 233.035C1072.94 238.932 1074.18 242.053 1075.65 243.633C1076.7 244.76 1078.52 245.815 1081.69 245.815Z" fill="black"/>
<path fill-rule="evenodd" clip-rule="evenodd" d="M1094.16 221.031C1094.49 221.031 1094.83 220.912 1095.09 220.669C1095.11 220.653 1097.38 218.639 1100.65 218.761C1104.04 218.886 1106.29 220.544 1106.32 220.561C1106.92 221.015 1107.79 220.896 1108.24 220.292C1108.7 219.688 1108.59 218.831 1107.98 218.371C1107.87 218.281 1105.06 216.17 1100.76 216.011C1096.33 215.852 1093.35 218.528 1093.23 218.642C1092.67 219.155 1092.63 220.026 1093.15 220.585C1093.42 220.881 1093.79 221.031 1094.16 221.031Z" fill="black"/>
<path fill-rule="evenodd" clip-rule="evenodd" d="M1117.54 214.175C1117.54 214.175 1112.3 207.902 1107.56 205.256C1104.64 203.622 1086.59 200.126 1085.93 203.823C1085.29 207.425 1087.15 207.55 1094.34 208.721C1101.54 209.892 1104.91 210.182 1108.69 211.958C1112.47 213.734 1116.74 216.154 1117.54 214.175Z" fill="black"/>
<path fill-rule="evenodd" clip-rule="evenodd" d="M1047.93 218.589C1047.93 218.589 1047.26 214.786 1048.18 212.302C1049.1 209.819 1060.43 199.485 1063.75 200.385C1069.03 201.814 1067.13 204.344 1060.44 208.839C1055.07 212.455 1052.92 213.846 1050.89 216.394C1048.12 219.874 1048.33 219.15 1047.93 218.589Z" fill="black"/>
<path fill-rule="evenodd" clip-rule="evenodd" d="M1055.57 225.225C1055.9 225.225 1056.23 225.105 1056.5 224.862C1056.51 224.847 1058.78 222.83 1062.06 222.955C1065.44 223.079 1067.7 224.734 1067.72 224.75C1068.32 225.212 1069.19 225.096 1069.65 224.493C1070.11 223.889 1069.99 223.026 1069.39 222.564C1069.27 222.474 1066.46 220.363 1062.16 220.205C1057.74 220.046 1054.76 222.721 1054.64 222.835C1054.08 223.349 1054.04 224.219 1054.55 224.779C1054.82 225.075 1055.19 225.225 1055.57 225.225Z" fill="black"/>
<mask id="mask1_1261:7210" style="mask-type:alpha" maskUnits="userSpaceOnUse" x="1003" y="133" width="237" height="218">
<path fill-rule="evenodd" clip-rule="evenodd" d="M1239.9 133.83H1003.07V350.427H1239.9V133.83Z" fill="white"/>
</mask>
<g mask="url(#mask1_1261:7210)">
<path fill-rule="evenodd" clip-rule="evenodd" d="M1059.62 347.841C1071.73 351.625 1062.07 318.608 1066.85 310.847C1071.63 303.087 1075.97 285.461 1069.1 277.105C1062.23 268.748 1048.91 246.564 1047.03 228.103C1045.15 209.648 1048.61 201.085 1048.61 201.085C1048.61 201.085 1062.08 205.978 1073.92 194.966C1081.1 188.284 1095.22 183.312 1105.84 173.86C1105.93 177.951 1107.17 184.303 1113.67 186.371C1123.53 189.509 1122.93 202.864 1143.62 200.667C1143.62 200.667 1153.95 195.228 1154.75 208.221C1155.54 221.219 1151.67 230.291 1145.88 230.897C1145.88 230.897 1138.62 233.171 1140.43 243.032C1142.23 252.888 1129.23 259.649 1131.41 272.28C1133.59 284.911 1139.69 288.832 1135.34 300.156C1130.98 311.48 1129.51 324.717 1134.81 336.086C1140.12 347.456 1169.07 329.216 1180.42 338.095C1191.76 346.97 1192.75 341.544 1207.05 333.656C1221.36 325.767 1236.7 336.6 1236.59 321.63C1236.43 300.188 1245.54 285.819 1234.19 275.958C1222.84 266.097 1224.36 256.393 1219.33 244.752C1212.16 228.158 1198.41 227.026 1195.94 214.206C1193.47 201.383 1187.7 186.463 1172.01 176.515C1154.4 165.356 1144.4 133.935 1122.21 142.809C1121.26 143.19 1120.36 143.589 1119.51 144.002C1119.16 139.296 1116.39 132.449 1102.76 134.072C1082.39 136.499 1046 139.892 1040.18 158.807C1034.36 177.717 1035.81 192.751 1028.05 211.179C1020.29 229.608 1033.87 236.882 1027.57 249.004C1021.26 261.126 1009.13 274.22 1010.1 286.828C1011.07 299.436 1017.38 315.443 1006.7 328.537C996.032 341.627 1011.07 351.327 1023.2 350.359C1035.32 349.387 1047.52 344.062 1059.62 347.841Z" fill="#711515"/>
</g>
<path fill-rule="evenodd" clip-rule="evenodd" d="M1120.59 215.779C1120.59 206.104 1112.74 198.261 1103.06 198.261C1093.38 198.261 1085.54 206.104 1085.54 215.779C1085.54 225.454 1093.38 233.297 1103.06 233.297C1112.74 233.297 1120.59 225.454 1120.59 215.779ZM1089.67 215.779C1089.67 208.384 1095.67 202.389 1103.06 202.389C1110.46 202.389 1116.46 208.384 1116.46 215.779C1116.46 223.174 1110.46 229.17 1103.06 229.17C1095.66 229.17 1089.67 223.175 1089.67 215.779Z" fill="black"/>
<path fill-rule="evenodd" clip-rule="evenodd" d="M1077.5 219.956C1077.5 210.281 1069.65 202.438 1059.97 202.438C1050.29 202.438 1042.45 210.281 1042.45 219.956C1042.45 229.631 1050.29 237.474 1059.97 237.474C1069.65 237.474 1077.5 229.631 1077.5 219.956ZM1046.57 219.956C1046.57 212.561 1052.57 206.566 1059.97 206.566C1067.37 206.566 1073.37 212.561 1073.37 219.956C1073.37 227.351 1067.37 233.347 1059.97 233.347C1052.57 233.347 1046.57 227.352 1046.57 219.956Z" fill="black"/>
<path d="M1143.84 203.227C1143.43 202.2 1142.29 201.685 1141.25 202.042L1141.16 202.077L1118.22 211.25C1117.16 211.674 1116.64 212.875 1117.07 213.933C1117.48 214.96 1118.62 215.475 1119.66 215.118L1119.75 215.083L1142.69 205.91C1143.75 205.487 1144.26 204.285 1143.84 203.227Z" fill="black"/>
<path d="M1089.48 216.645C1089.35 215.545 1088.39 214.743 1087.29 214.814L1087.2 214.822L1075.17 216.16C1074.03 216.287 1073.22 217.307 1073.34 218.44C1073.47 219.54 1074.43 220.342 1075.53 220.271L1075.62 220.263L1087.65 218.925C1088.79 218.799 1089.6 217.778 1089.48 216.645Z" fill="black"/>
</g>
<path d="M786.587 76.0408H106.164V483.316H786.587V76.0408Z" fill="#237978"/>
<mask id="mask2_1261:7210" style="mask-type:alpha" maskUnits="userSpaceOnUse" x="106" y="76" width="681" height="408">
<path d="M786.587 76.0408H106.164V483.316H786.587V76.0408Z" fill="white"/>
</mask>
<g mask="url(#mask2_1261:7210)">
<path fill-rule="evenodd" clip-rule="evenodd" d="M418.138 235.211C418.138 235.211 416.444 272.431 394.724 285.57C375.018 297.49 416.768 366.663 461.681 362.537C486.266 360.277 492.028 293.072 492.028 293.072C492.028 293.072 472.177 289.238 479.51 258.977L418.138 235.211Z" fill="#F6CBC3"/>
<path fill-rule="evenodd" clip-rule="evenodd" d="M454.101 273.056C424.984 269.536 403.971 250.399 401.028 218.653C392.564 220 390.568 197.953 392.925 190.87C395.285 183.778 402.987 187.925 402.987 187.925C402.987 187.925 403.626 186.244 404.074 184.405C416.793 132.252 452.418 134.32 452.418 134.32C517.879 137.729 502.541 204.537 498.801 222.26C495.061 239.985 482.247 276.455 454.101 273.056Z" fill="#F6CBC3"/>
<path fill-rule="evenodd" clip-rule="evenodd" d="M347.732 436.667L331.206 591.284C331.206 591.284 448.866 612.431 550.66 579.391L556.611 443.275L347.732 436.667Z" fill="black"/>
<mask id="mask3_1261:7210" style="mask-type:alpha" maskUnits="userSpaceOnUse" x="281" y="283" width="324" height="284">
<path fill-rule="evenodd" clip-rule="evenodd" d="M281.432 283.827H604.617V566.573H281.432V283.827Z" fill="white"/>
</mask>
<g mask="url(#mask3_1261:7210)">
<path fill-rule="evenodd" clip-rule="evenodd" d="M332.004 545.81C332.004 545.81 275.478 510.577 281.947 453.434C288.417 396.292 312.515 318.28 353.918 302.249C395.321 286.217 396.621 283.827 396.621 283.827C396.621 283.827 413.215 305.48 442.12 306.856C471.025 308.232 489.837 292.18 489.837 292.18C489.837 292.18 546.604 305.696 562.956 331.272C579.304 356.848 621.056 471.051 597.656 507.283C574.257 543.516 529.006 554.074 529.006 554.074C529.006 554.074 390.733 587.087 332.004 545.81Z" fill="black"/>
</g>
<path fill-rule="evenodd" clip-rule="evenodd" d="M413.214 440.681L412.797 403.99C412.797 403.99 411.546 396.193 423.642 395.734C435.738 395.275 468.272 394.817 468.272 394.817C468.272 394.817 476.197 392.982 476.614 404.448C477.031 415.914 477.448 455.358 477.448 455.358L427.396 469.576L408.626 468.658L413.214 440.681Z" fill="#204EB2"/>
<path fill-rule="evenodd" clip-rule="evenodd" d="M408.895 468.442L427.37 469.345L477.218 455.185C477.187 452.306 476.784 415.4 476.386 404.457C476.24 400.458 475.167 397.667 473.196 396.158C470.97 394.454 468.351 395.034 468.325 395.04L468.276 395.046C467.951 395.051 435.606 395.51 423.652 395.964C419.258 396.13 416.154 397.279 414.428 399.376C412.665 401.519 413.02 403.93 413.024 403.954L413.445 440.699L413.442 440.719L408.895 468.442ZM427.423 469.807L427.386 469.805L408.359 468.875L412.986 440.664L412.569 403.993C412.554 403.92 412.176 401.398 414.067 399.093C415.879 396.884 419.098 395.677 423.634 395.505C435.458 395.057 467.212 394.603 468.246 394.588C468.549 394.523 471.172 394.031 473.475 395.794C475.56 397.39 476.694 400.299 476.845 404.44C477.257 415.778 477.675 454.961 477.679 455.356L477.68 455.531L477.512 455.578L427.423 469.807Z" fill="black"/>
<path fill-rule="evenodd" clip-rule="evenodd" d="M412.782 405.362L412.755 399.044C412.755 399.044 412.755 393.999 419.637 393.54C426.519 393.081 467.354 392.164 467.354 392.164C467.354 392.164 472.86 391.705 475.154 394.916C477.448 398.126 476.72 405.931 476.72 405.931C476.72 405.931 476.464 394.994 467.321 395.184C458.178 395.375 422.608 396.109 422.608 396.109C422.608 396.109 413.269 395.169 412.782 405.362Z" fill="#56ACF6"/>
<path fill-rule="evenodd" clip-rule="evenodd" d="M467.555 394.952C473.789 394.952 475.891 400.125 476.597 403.368C476.612 400.825 476.374 397.017 474.968 395.049C472.775 391.98 467.427 392.387 467.374 392.392C466.951 392.402 426.451 393.316 419.653 393.769C416.914 393.951 414.892 394.926 413.808 396.589C412.994 397.836 412.985 399.032 412.985 399.044L412.999 402.396C413.494 400.587 414.379 399.126 415.647 398.034C418.58 395.506 422.467 395.865 422.631 395.881C422.604 395.88 458.173 395.145 467.317 394.955C467.396 394.953 467.477 394.952 467.555 394.952ZM476.949 405.953L476.491 405.937C476.49 405.91 476.412 403.206 475.234 400.568C473.674 397.07 471.017 395.331 467.326 395.413C458.183 395.604 422.613 396.339 422.613 396.339C422.548 396.333 418.724 395.985 415.943 398.384C414.145 399.935 413.159 402.286 413.012 405.373L412.553 405.363L412.526 399.044C412.526 398.991 412.607 393.778 419.622 393.311C426.431 392.857 466.941 391.944 467.349 391.935C467.566 391.916 472.998 391.504 475.341 394.782C477.658 398.025 476.978 405.63 476.949 405.953Z" fill="black"/>
<path fill-rule="evenodd" clip-rule="evenodd" d="M413.312 425.994C413.312 425.994 406.695 430.246 404.568 432.845C402.441 435.444 404.331 435.916 399.605 440.878C394.878 445.839 386.37 458.36 401.259 477.497C416.149 496.633 421.112 494.979 427.257 491.671C433.401 488.364 434.11 486.002 445.691 484.82C457.271 483.639 468.379 472.299 468.143 469.464L467.907 466.629C467.907 466.629 478.542 462.613 477.833 458.124C477.124 453.635 474.052 454.108 474.052 454.108C474.052 454.108 476.179 451.981 474.524 448.201C472.87 444.421 465.071 445.13 456.089 446.312C447.109 447.493 423.948 452.217 422.529 451.273C421.112 450.328 421.584 448.91 427.02 448.201C432.456 447.493 454.435 447.256 454.435 441.114C454.435 434.971 447.818 433.79 435.055 434.026C422.293 434.263 419.93 433.553 416.857 434.735L413.785 435.916L413.312 425.994Z" fill="#F6CBC3"/>
<path fill-rule="evenodd" clip-rule="evenodd" d="M474.237 454.081C474.237 454.081 474.916 453.591 469.859 455.522C468.017 456.224 465.42 456.957 461.761 457.651C448.053 460.25 426.547 464.975 419.929 465.92C413.311 466.865 418.747 468.282 433.873 465.211C448.999 462.14 467.005 458.02 467.814 457.75C469.19 457.291 473.319 455.915 474.237 454.081Z" fill="black"/>
<path fill-rule="evenodd" clip-rule="evenodd" d="M462.942 468.046C462.942 468.046 451.755 471.968 446.249 473.344C440.403 474.805 436 476.787 434.818 474.897C433.637 473.007 432.218 472.535 432.218 472.535L430.328 474.661C430.328 474.661 430.649 477.013 429.619 477.26C427.78 477.7 424.183 478.441 424.183 478.441C424.183 478.441 424.226 479.765 435.237 477.472C437.97 476.903 443.037 476.096 446.249 475.178C449.203 474.335 459.87 471.59 461.288 470.409C462.706 469.227 462.942 468.046 462.942 468.046Z" fill="black"/>
<path fill-rule="evenodd" clip-rule="evenodd" d="M428.202 466.865C428.202 466.865 428.027 476.379 430.714 476.229C433.401 476.079 434.346 476.079 434.819 475.37C435.292 474.661 434.11 472.299 434.11 469.7C434.11 467.101 434.11 465.92 431.983 466.156C429.856 466.393 428.438 466.393 428.202 466.865Z" fill="#F9C818"/>
<path fill-rule="evenodd" clip-rule="evenodd" d="M447.392 240.432C447.392 240.432 452.698 253.01 463.765 248.227L447.392 240.432Z" fill="black"/>
<path fill-rule="evenodd" clip-rule="evenodd" d="M429.479 201.812C429.479 201.812 434.723 195.539 439.459 192.893C442.383 191.26 460.43 187.764 461.09 191.461C461.733 195.063 459.877 195.187 452.681 196.358C445.486 197.529 442.114 197.819 438.333 199.595C434.551 201.371 430.28 203.791 429.479 201.812Z" fill="black"/>
<path fill-rule="evenodd" clip-rule="evenodd" d="M499.093 206.226C499.093 206.226 499.758 202.423 498.843 199.94C497.927 197.457 486.596 187.123 483.271 188.022C477.99 189.451 479.893 191.981 486.58 196.477C491.957 200.092 494.1 201.484 496.129 204.031C498.901 207.511 498.693 206.787 499.093 206.226Z" fill="black"/>
<path d="M473.648 196.463L475.395 197.023L475.225 197.57C475.087 198.017 474.934 198.528 474.769 199.094C474.297 200.713 473.825 202.453 473.385 204.243C472.896 206.233 472.476 208.162 472.148 209.984L472.053 210.524C471.256 215.158 471.144 218.696 471.856 220.599L471.898 220.707C475.971 230.78 470.44 235.889 458.83 232.312L458.476 232.201L459.035 230.453C469.494 233.799 473.688 230.03 470.196 221.395C469.235 219.018 469.383 214.984 470.342 209.659C470.677 207.796 471.105 205.83 471.603 203.805C472 202.19 472.422 200.617 472.848 199.133L473.007 198.581C473.103 198.252 473.194 197.942 473.282 197.651L473.506 196.915L473.648 196.463Z" fill="black"/>
<path d="M428.338 266.643L429.236 265.044L429.563 265.222L429.864 265.382C430.319 265.621 430.837 265.885 431.413 266.168L431.663 266.291C433.6 267.234 435.742 268.177 438.026 269.058C443.278 271.082 448.468 272.464 453.297 272.912C455.485 273.115 457.559 273.12 459.501 272.912L459.888 272.868L460.112 274.689C457.921 274.958 455.587 274.967 453.127 274.739C448.109 274.273 442.763 272.85 437.366 270.769C435.03 269.869 432.841 268.905 430.86 267.94L430.11 267.57C429.792 267.41 429.493 267.258 429.214 267.112L428.695 266.838L428.338 266.643Z" fill="black"/>
<path fill-rule="evenodd" clip-rule="evenodd" d="M452.862 208.669C452.529 208.669 452.196 208.549 451.932 208.306C451.915 208.291 449.645 206.276 446.368 206.398C442.978 206.524 440.728 208.182 440.705 208.198C440.099 208.652 439.237 208.533 438.78 207.929C438.323 207.325 438.437 206.468 439.039 206.008C439.156 205.918 441.965 203.808 446.267 203.648C450.694 203.489 453.669 206.165 453.793 206.279C454.353 206.793 454.391 207.663 453.877 208.223C453.605 208.519 453.234 208.669 452.862 208.669Z" fill="black"/>
<path fill-rule="evenodd" clip-rule="evenodd" d="M491.456 212.862C491.124 212.862 490.791 212.743 490.526 212.5C490.509 212.484 488.239 210.467 484.962 210.592C481.581 210.717 479.327 212.371 479.305 212.388C478.701 212.849 477.837 212.734 477.375 212.13C476.914 211.527 477.029 210.663 477.633 210.202C477.75 210.112 480.559 208.001 484.861 207.842C489.286 207.684 492.263 210.359 492.387 210.473C492.947 210.986 492.985 211.857 492.471 212.416C492.2 212.712 491.828 212.862 491.456 212.862Z" fill="black"/>
<path fill-rule="evenodd" clip-rule="evenodd" d="M477.567 281.842C477.567 281.842 496.046 276.067 514.525 281.842C533.005 287.617 545.709 278.954 545.709 278.954C545.709 278.954 518.281 269.897 536.007 241.907C551.895 216.822 521.746 191.703 518.281 173.801C514.816 155.899 515.948 112.225 457.67 108.843C404.256 105.743 385.799 136.482 384.016 157.107C382.215 177.946 359.676 185.929 366.692 212.545C372.011 232.725 358.607 255.037 344.748 261.966C344.748 261.966 358.607 278.954 370.734 276.067C382.861 273.18 403.073 277.8 403.073 277.8C403.073 277.8 420.714 269.676 415.638 254.107C410.561 238.54 399.393 231.432 404.131 213.496C408.869 195.559 424.179 192.459 423.502 176.553C422.825 160.647 437.298 137.01 465.049 146.487C465.049 146.487 495.169 144.117 495.169 165.439C495.169 186.76 501.34 197.804 503.501 203.958L499.216 216.071C499.216 216.071 490.34 253.582 477.707 264.271C477.707 264.271 474.505 273.595 477.567 281.842Z" fill="#0F0F0F"/>
<path fill-rule="evenodd" clip-rule="evenodd" d="M426.434 203.417C426.434 193.742 434.281 185.898 443.959 185.898C453.638 185.898 461.484 193.742 461.484 203.417C461.484 213.092 453.638 220.935 443.959 220.935C434.281 220.935 426.434 213.092 426.434 203.417ZM457.355 203.417C457.355 196.021 451.357 190.026 443.959 190.026C436.561 190.026 430.563 196.021 430.563 203.417C430.563 210.812 436.561 216.807 443.959 216.807C451.358 216.807 457.355 210.812 457.355 203.417Z" fill="black"/>
<path fill-rule="evenodd" clip-rule="evenodd" d="M469.526 207.594C469.526 197.918 477.373 190.075 487.052 190.075C496.731 190.075 504.577 197.918 504.577 207.594C504.577 217.269 496.731 225.112 487.052 225.112C477.373 225.112 469.526 217.269 469.526 207.594ZM500.447 207.594C500.447 200.198 494.45 194.203 487.052 194.203C479.653 194.203 473.656 200.198 473.656 207.594C473.656 214.989 479.653 220.984 487.052 220.984C494.45 220.984 500.447 214.989 500.447 207.594Z" fill="black"/>
<path d="M403.182 190.865C403.593 189.837 404.737 189.322 405.772 189.68L405.866 189.715L428.807 198.888C429.866 199.311 430.381 200.512 429.957 201.57C429.546 202.598 428.402 203.113 427.367 202.755L427.273 202.72L404.333 193.547C403.274 193.124 402.759 191.923 403.182 190.865Z" fill="black"/>
<path d="M457.545 204.283C457.668 203.182 458.635 202.38 459.728 202.451L459.826 202.46L471.856 203.798C472.989 203.924 473.805 204.945 473.679 206.077C473.557 207.178 472.59 207.98 471.496 207.909L471.399 207.9L459.369 206.562C458.236 206.436 457.419 205.415 457.545 204.283Z" fill="black"/>
</g>
<g opacity="0.5">
<g opacity="0.5">
<path opacity="0.5" fill-rule="evenodd" clip-rule="evenodd" d="M779.665 492.042C870.88 492.042 970.596 523.681 1029.89 596.332C1057.29 629.902 1071.01 669.308 1071.05 708.478C1071.07 752.7 1053.66 796.62 1018.76 831.601C986.484 863.94 945.269 885.831 903.174 903.805L898.529 905.777C893.787 907.809 888.96 910.088 885.97 914.216C883.719 917.298 882.739 921.091 881.888 924.802L881.73 925.499C872.861 964.447 856.572 997.712 834.828 1025.77H834.809C796.081 1075.77 739.917 1109.21 677.339 1128.78C629.415 1143.78 577.707 1150.66 527.136 1150.66C442.072 1150.66 363.991 1130.73 302.826 1097.49L302.803 1097.47C292.149 1091.72 281.996 1085.51 272.425 1078.96C210.132 1036.3 171.775 978.032 171.775 913.799C171.775 791.35 311.195 690.595 490.018 678.229C509.954 573.005 632.026 492.042 779.665 492.042ZM387.188 497.087C418.232 497.087 443.393 514.131 443.393 535.155C443.393 556.181 418.232 573.222 387.188 573.222C356.145 573.222 330.984 556.181 330.984 535.155C330.984 514.131 356.145 497.087 387.188 497.087Z" fill="#FFF5F3"/>
</g>
</g>
<path d="M786.587 482.857H106.164V890.133H786.587V482.857Z" fill="#204EB2"/>
<mask id="mask4_1261:7210" style="mask-type:alpha" maskUnits="userSpaceOnUse" x="106" y="482" width="681" height="409">
<path d="M786.587 482.857H106.164V890.133H786.587V482.857Z" fill="white"/>
</mask>
<g mask="url(#mask4_1261:7210)">
<path fill-rule="evenodd" clip-rule="evenodd" d="M348.418 847.562L331.901 1002.22C331.901 1002.22 492.634 1040.86 551.234 990.321L557.18 854.171L348.418 847.562Z" fill="#D60000"/>
<path fill-rule="evenodd" clip-rule="evenodd" d="M418.596 646.217C418.596 646.217 416.903 683.437 395.183 696.576C375.476 708.497 417.227 777.669 462.14 773.543C486.725 771.284 492.487 704.079 492.487 704.079C492.487 704.079 472.636 700.244 479.968 669.983L418.596 646.217Z" fill="#F6CBC3"/>
<path fill-rule="evenodd" clip-rule="evenodd" d="M454.56 684.062C425.443 680.542 404.43 661.405 401.487 629.659C393.023 631.006 391.026 608.959 393.384 601.877C395.744 594.784 403.446 598.931 403.446 598.931C403.446 598.931 404.085 597.25 404.533 595.411C417.252 543.258 452.877 545.327 452.877 545.327C518.338 548.736 503 615.543 499.26 633.266C495.52 650.991 482.707 687.461 454.56 684.062Z" fill="#F6CBC3"/>
<path fill-rule="evenodd" clip-rule="evenodd" d="M551.362 897.153C541.704 893.221 529.257 880.777 514.367 860.168C503.325 844.884 494.976 830.553 494.894 830.41L496.481 829.49C496.81 830.057 529.709 886.356 552.055 895.454L551.362 897.153Z" fill="#864A56"/>
<mask id="mask5_1261:7210" style="mask-type:alpha" maskUnits="userSpaceOnUse" x="290" y="694" width="278" height="284">
<path fill-rule="evenodd" clip-rule="evenodd" d="M290.608 694.65H567.696V977.504H290.608V694.65Z" fill="white"/>
</mask>
<g mask="url(#mask5_1261:7210)">
<path fill-rule="evenodd" clip-rule="evenodd" d="M397.042 694.65C397.042 694.65 315.507 702.368 298.693 787.027C281.879 871.687 279.865 971.546 409.43 976.716C538.995 981.886 550.013 960.096 549.921 955.335C549.829 950.573 552.123 872.145 562.676 812.522C573.229 752.898 574.146 720.793 493.393 701.071C493.393 701.071 457.605 748.77 397.042 694.65Z" fill="#D60000"/>
</g>
<path fill-rule="evenodd" clip-rule="evenodd" d="M458.983 729.507L468.618 685.477C468.618 685.477 468.159 678.139 479.629 678.598C491.1 679.056 572.311 677.68 572.311 677.68C572.311 677.68 578.735 676.763 580.57 682.725C582.405 688.688 558.547 788.672 558.547 788.672C558.547 788.672 559.006 795.552 551.206 795.552C543.405 795.552 447.512 799.221 447.512 799.221L458.983 729.507Z" fill="#204EB2"/>
<mask id="mask6_1261:7210" style="mask-type:alpha" maskUnits="userSpaceOnUse" x="447" y="677" width="134" height="123">
<path fill-rule="evenodd" clip-rule="evenodd" d="M447.24 677.405H580.891V799.461H447.24V677.405Z" fill="white"/>
</mask>
<g mask="url(#mask6_1261:7210)">
<path fill-rule="evenodd" clip-rule="evenodd" d="M459.207 729.549L447.784 798.98C453.537 798.761 543.697 795.322 551.206 795.322C553.601 795.322 555.441 794.66 556.661 793.354C558.474 791.425 558.318 788.713 558.318 788.686L558.313 788.652L558.322 788.618C558.561 787.619 582.144 688.627 580.35 682.793C578.593 677.091 572.596 677.87 572.344 677.907C571.499 677.923 490.964 679.281 479.62 678.826C475.418 678.658 472.368 679.513 470.549 681.366C468.735 683.215 468.845 685.44 468.846 685.463L468.848 685.494L468.841 685.526L459.207 729.549ZM447.24 799.46L458.758 729.458L468.387 685.457C468.375 685.147 468.362 682.946 470.214 681.053C472.126 679.098 475.305 678.2 479.638 678.368C490.971 678.822 571.495 677.464 572.307 677.45C572.344 677.443 578.918 676.579 580.786 682.657C582.616 688.596 559.859 784.159 558.776 788.692C558.795 789.046 558.85 791.687 557.001 793.664C555.689 795.068 553.734 795.78 551.206 795.78C543.498 795.78 448.479 799.413 447.521 799.449L447.24 799.46Z" fill="black"/>
</g>
<path fill-rule="evenodd" clip-rule="evenodd" d="M462.195 732.718L471.83 688.688C471.83 688.688 471.371 681.35 482.841 681.808C494.312 682.267 575.523 680.891 575.523 680.891C575.523 680.891 581.947 679.974 583.782 685.936C585.617 691.898 561.759 791.883 561.759 791.883C561.759 791.883 562.218 798.762 554.418 798.762C546.618 798.762 450.724 802.431 450.724 802.431L462.195 732.718Z" fill="#56ACF6"/>
<path fill-rule="evenodd" clip-rule="evenodd" d="M412.276 801.756C412.276 801.756 438.958 771.358 446.236 758.33C453.513 745.302 453.513 737.703 452.907 731.732C452.3 725.76 452.3 718.704 457.152 717.618C462.003 716.533 462.61 719.247 463.216 725.76C463.823 732.275 463.216 738.788 474.132 734.989C485.048 731.189 511.732 721.961 514.763 729.56C517.795 737.16 511.125 738.245 511.125 738.245C511.125 738.245 515.977 738.788 517.189 742.588C518.402 746.388 517.189 749.102 513.55 750.73C509.912 752.359 508.093 752.902 508.093 752.902C508.093 752.902 515.37 751.816 517.189 757.244C519.008 762.673 515.977 765.387 512.944 766.472C512.944 766.472 516.844 767.1 517.795 771.358C518.402 774.073 514.763 775.7 510.518 777.329C504.78 779.531 487.474 780.043 472.919 789.271C458.364 798.499 423.191 858.753 405.605 877.21C388.018 895.666 370.431 847.897 370.431 847.897C370.431 847.897 392.263 820.213 412.276 801.756Z" fill="#F6CBC3"/>
<path fill-rule="evenodd" clip-rule="evenodd" d="M480.981 747.052L480.624 745.724L510.946 737.581L511.303 738.909L480.981 747.052Z" fill="black"/>
<path fill-rule="evenodd" clip-rule="evenodd" d="M480.981 761.166L480.624 759.838L510.946 751.695L511.303 753.023L480.981 761.166Z" fill="black"/>
<path fill-rule="evenodd" clip-rule="evenodd" d="M484.62 775.279L484.264 773.951L514.585 765.809L514.942 767.137L484.62 775.279Z" fill="black"/>
<mask id="mask7_1261:7210" style="mask-type:alpha" maskUnits="userSpaceOnUse" x="538" y="716" width="60" height="182">
<path fill-rule="evenodd" clip-rule="evenodd" d="M538.507 716.218H597.542V897.371H538.507V716.218Z" fill="white"/>
</mask>
<g mask="url(#mask7_1261:7210)">
<path fill-rule="evenodd" clip-rule="evenodd" d="M553.863 871.491C553.863 871.491 558.107 849.778 559.928 822.636C561.745 795.495 561.14 783.553 558.713 781.381C556.29 779.21 539.308 779.753 539.308 771.068C539.308 762.382 551.436 765.096 551.436 765.096C551.436 765.096 538.702 762.925 539.915 756.411C541.127 749.897 548.403 750.983 548.403 750.983C548.403 750.983 536.882 748.812 538.702 741.755C540.521 734.698 551.436 737.412 551.436 737.412C551.436 737.412 541.127 735.784 545.37 728.727C549.619 721.671 556.896 726.013 565.384 728.184C573.876 730.356 574.482 730.899 575.088 727.641C575.693 724.384 574.482 715.699 581.153 716.242C587.824 716.785 589.036 718.956 589.036 730.899C589.036 742.841 590.857 753.697 592.674 764.554C594.496 775.41 595.101 787.895 593.885 807.98C592.674 828.064 609.655 887.233 579.332 895.918C549.013 904.603 553.863 871.491 553.863 871.491Z" fill="#F6CBC3"/>
</g>
<path fill-rule="evenodd" clip-rule="evenodd" d="M566.686 768.822L548.852 764.993L549.141 763.648L566.975 767.476L566.686 768.822Z" fill="black"/>
<path fill-rule="evenodd" clip-rule="evenodd" d="M566.26 755.485L548.421 751.656L548.715 750.31L566.549 754.14L566.26 755.485Z" fill="black"/>
<path fill-rule="evenodd" clip-rule="evenodd" d="M567.04 741.139L549.206 737.31L549.495 735.965L567.329 739.794L567.04 741.139Z" fill="black"/>
<path fill-rule="evenodd" clip-rule="evenodd" d="M583.456 732.385L574.665 730.485L574.954 729.141L583.75 731.04L583.456 732.385Z" fill="black"/>
<path d="M474.106 607.469L475.854 608.029L475.683 608.577C475.546 609.023 475.393 609.534 475.228 610.1C474.756 611.72 474.284 613.459 473.844 615.249C473.354 617.239 472.935 619.168 472.607 620.99L472.512 621.53C471.714 626.164 471.602 629.703 472.314 631.606L472.356 631.713C476.43 641.787 470.898 646.895 459.288 643.318L458.935 643.206L459.494 641.46C469.952 644.805 474.146 641.036 470.655 632.401C469.693 630.024 469.842 625.99 470.8 620.665C471.136 618.803 471.563 616.836 472.061 614.811C472.459 613.196 472.881 611.623 473.306 610.139L473.465 609.587C473.561 609.258 473.653 608.948 473.741 608.657L473.964 607.921L474.106 607.469Z" fill="black"/>
<path d="M428.796 677.65L429.694 676.049L430.022 676.228L430.323 676.388C430.778 676.627 431.296 676.891 431.871 677.174L432.122 677.297C434.058 678.24 436.2 679.183 438.484 680.064C443.737 682.088 448.927 683.47 453.756 683.918C455.944 684.121 458.018 684.126 459.96 683.918L460.346 683.874L460.571 685.695C458.38 685.964 456.045 685.973 453.586 685.745C448.567 685.279 443.222 683.856 437.824 681.775C435.489 680.875 433.299 679.911 431.318 678.946L430.569 678.576C430.25 678.416 429.951 678.264 429.672 678.118L429.153 677.844L428.796 677.65Z" fill="black"/>
<path fill-rule="evenodd" clip-rule="evenodd" d="M462.222 657.681C453.563 657.681 447.035 653.716 446.729 653.527C446.082 653.128 445.882 652.28 446.282 651.633C446.681 650.987 447.529 650.786 448.176 651.186C448.305 651.265 455.974 655.871 465.218 654.749C465.967 654.658 466.658 655.195 466.751 655.949C466.842 656.703 466.305 657.39 465.55 657.481C464.413 657.619 463.3 657.681 462.222 657.681Z" fill="black"/>
<path fill-rule="evenodd" clip-rule="evenodd" d="M465.795 644.459C463.94 644.459 461.626 644.096 458.738 643.172L459.297 641.425C464.676 643.145 468.649 643.005 470.485 641.028C472.046 639.347 472.036 636.27 470.458 632.366C469.386 629.718 469.651 624.694 471.244 617.435C472.41 612.123 473.894 607.481 473.909 607.434L475.656 607.995C474.047 613.009 470.283 627.04 472.159 631.679C474.544 637.576 473.296 640.697 471.829 642.276C470.783 643.404 468.958 644.459 465.795 644.459Z" fill="black"/>
<mask id="mask8_1261:7210" style="mask-type:alpha" maskUnits="userSpaceOnUse" x="429" y="597" width="32" height="10">
<path fill-rule="evenodd" clip-rule="evenodd" d="M429.645 597.601H460.663V606.493H429.645V597.601Z" fill="white"/>
</mask>
<g mask="url(#mask8_1261:7210)">
<path fill-rule="evenodd" clip-rule="evenodd" d="M458.139 606.493C457.864 606.493 457.583 606.447 457.308 606.351C454.63 605.417 446.896 602.935 443.312 602.67C439.937 602.42 434.787 604.087 433.088 604.75C431.79 605.257 430.327 604.617 429.819 603.32C429.312 602.023 429.951 600.561 431.248 600.052C431.54 599.938 438.466 597.252 443.684 597.639C448.665 598.007 458.552 601.442 458.971 601.588C460.287 602.047 460.981 603.485 460.522 604.801C460.159 605.841 459.183 606.493 458.139 606.493Z" fill="black"/>
</g>
<path fill-rule="evenodd" clip-rule="evenodd" d="M500.598 615.105C500.092 615.105 499.582 614.95 499.143 614.628C497.739 613.601 493.406 610.818 490.256 610.291C486.895 609.73 479.163 610.365 476.467 610.656C475.115 610.8 473.9 609.825 473.753 608.473C473.607 607.121 474.584 605.906 475.936 605.76C476.359 605.714 486.352 604.646 491.068 605.434C496.027 606.263 501.814 610.479 502.058 610.658C503.154 611.463 503.391 613.004 502.585 614.1C502.103 614.757 501.355 615.105 500.598 615.105Z" fill="black"/>
<path fill-rule="evenodd" clip-rule="evenodd" d="M451.891 617.625C451.891 619.114 450.683 620.321 449.193 620.321C447.704 620.321 446.496 619.114 446.496 617.625C446.496 616.135 447.704 614.928 449.193 614.928C450.683 614.928 451.891 616.135 451.891 617.625Z" fill="black"/>
<path fill-rule="evenodd" clip-rule="evenodd" d="M486.413 620.688C486.413 622.178 485.205 623.385 483.715 623.385C482.225 623.385 481.017 622.178 481.017 620.688C481.017 619.199 482.225 617.991 483.715 617.991C485.205 617.991 486.413 619.199 486.413 620.688Z" fill="black"/>
<mask id="mask9_1261:7210" style="mask-type:alpha" maskUnits="userSpaceOnUse" x="399" y="523" width="119" height="87">
<path fill-rule="evenodd" clip-rule="evenodd" d="M399.347 523.76H517.023V609.918H399.347V523.76Z" fill="white"/>
</mask>
<g mask="url(#mask9_1261:7210)">
<path fill-rule="evenodd" clip-rule="evenodd" d="M403.508 600.665C403.508 600.665 404.938 601.517 404.429 609.919C404.429 609.919 408.249 606.1 409.268 601.517C410.286 596.935 417.163 583.697 423.02 580.132C428.878 576.568 438.046 576.823 443.394 568.676L448.743 560.53C448.743 560.53 482.87 562.82 497.641 573.768C497.641 573.768 504.517 576.823 502.989 606.609C502.989 606.609 505.791 590.57 506.3 582.424C506.809 574.277 510.375 587.261 508.847 594.389C508.847 594.389 517.567 586.95 516.996 570.967C516.221 549.23 505.653 542.949 498.66 537.872C490.417 531.888 466.097 518.691 450.816 525.819C435.535 532.947 436.264 534.562 429.133 537.363C422.002 540.163 413.088 538.89 405.448 544.491C397.807 550.092 399.509 597.659 399.509 597.659C399.509 597.659 402.53 598.883 403.508 600.665Z" fill="#9B5120"/>
</g>
<path fill-rule="evenodd" clip-rule="evenodd" d="M426.893 614.423C426.893 604.748 434.739 596.905 444.418 596.905C454.097 596.905 461.943 604.748 461.943 614.423C461.943 624.098 454.097 631.941 444.418 631.941C434.739 631.941 426.893 624.098 426.893 614.423ZM457.813 614.423C457.813 607.028 451.816 601.032 444.418 601.032C437.02 601.032 431.022 607.028 431.022 614.423C431.022 621.818 437.02 627.813 444.418 627.813C451.816 627.813 457.813 621.818 457.813 614.423Z" fill="black"/>
<path fill-rule="evenodd" clip-rule="evenodd" d="M469.985 618.6C469.985 608.925 477.831 601.082 487.51 601.082C497.189 601.082 505.035 608.925 505.035 618.6C505.035 628.275 497.189 636.118 487.51 636.118C477.831 636.118 469.985 628.275 469.985 618.6ZM500.906 618.6C500.906 611.204 494.908 605.209 487.51 605.209C480.112 605.209 474.114 611.204 474.114 618.6C474.114 625.995 480.112 631.99 487.51 631.99C494.908 631.99 500.906 625.995 500.906 618.6Z" fill="black"/>
<path d="M403.641 601.871C404.052 600.844 405.196 600.329 406.231 600.686L406.325 600.721L429.265 609.894C430.324 610.317 430.839 611.518 430.416 612.577C430.005 613.604 428.861 614.119 427.826 613.761L427.732 613.727L404.791 604.554C403.732 604.13 403.217 602.929 403.641 601.871Z" fill="black"/>
<path d="M458.003 615.289C458.126 614.188 459.093 613.387 460.187 613.457L460.284 613.466L472.314 614.804C473.448 614.93 474.264 615.951 474.138 617.084C474.015 618.184 473.049 618.986 471.954 618.915L471.857 618.907L459.827 617.569C458.694 617.442 457.878 616.422 458.003 615.289Z" fill="black"/>
</g>
<path d="M1467.01 483.316H786.587V890.592H1467.01V483.316Z" fill="#E93737"/>
<mask id="mask10_1261:7210" style="mask-type:alpha" maskUnits="userSpaceOnUse" x="786" y="483" width="682" height="408">
<path d="M1467.01 483.316H786.587V890.592H1467.01V483.316Z" fill="white"/>
</mask>
<g mask="url(#mask10_1261:7210)">
<path fill-rule="evenodd" clip-rule="evenodd" d="M1154.58 645.218C1154.58 645.218 1156.27 682.438 1177.99 695.577C1197.7 707.497 1155.95 776.669 1111.04 772.543C1086.45 770.284 1080.69 703.079 1080.69 703.079C1080.69 703.079 1100.54 699.244 1093.21 668.984L1154.58 645.218Z" fill="#C26E5E"/>
<path fill-rule="evenodd" clip-rule="evenodd" d="M1118.62 683.063C1147.73 679.543 1168.74 660.406 1171.69 628.66C1180.15 630.007 1182.15 607.96 1179.79 600.877C1177.43 593.785 1169.73 597.932 1169.73 597.932C1169.73 597.932 1169.09 596.25 1168.64 594.412C1155.92 542.259 1120.3 544.327 1120.3 544.327C1054.84 547.736 1070.17 614.543 1073.91 632.267C1077.66 649.992 1090.47 686.462 1118.62 683.063Z" fill="#C26E5E"/>
<path fill-rule="evenodd" clip-rule="evenodd" d="M1324.24 829.712C1324.24 829.712 1362.35 897.06 1340.85 930.401C1319.35 963.743 1288.85 919.684 1276.31 870.475C1263.78 821.266 1237.86 791.883 1237.86 791.883L1324.24 829.712Z" fill="#C26E5E"/>
<path fill-rule="evenodd" clip-rule="evenodd" d="M1236.29 710.216C1198.26 698.458 1186.54 697.796 1186.54 697.796L1146.39 706.445C1146.39 706.445 1124.38 735.355 1122.5 761.123C1122.5 761.123 1121.87 727.185 1107.41 703.931C1107.41 703.931 1043.76 703.346 1019.77 728.389C981.873 767.944 982.589 837.349 982.589 837.349L1045.12 843.777L1019.77 808.494C1019.77 808.494 1018.17 952.241 1021.94 989.321C1069.68 1041.96 1241.27 1001.22 1241.27 1001.22C1241.27 1001.22 1237.55 882.274 1236.92 849.738C1236.29 817.203 1248.33 821.597 1264.92 861.928C1278.49 894.9 1321.62 826.538 1321.62 826.538C1321.62 826.538 1295.15 728.408 1236.29 710.216Z" fill="#1BC0D7"/>
<path fill-rule="evenodd" clip-rule="evenodd" d="M1042.13 889.364C1042.13 889.364 1011.25 878.296 979.854 884.832C979.854 884.832 980.262 874.587 979.937 861.059C979.675 849.948 973.587 832.753 995.55 834.605C1021.12 836.76 1032.07 836.985 1043.19 842.012C1043.19 842.012 1045.83 878.783 1042.13 889.364Z" fill="#FCEBEC"/>
<path fill-rule="evenodd" clip-rule="evenodd" d="M1335.82 848.123L1322.35 805.77C1322.35 805.77 1272.52 795.364 1252.77 838.423L1267.57 876.763C1267.57 876.763 1295.24 835.972 1335.82 848.123Z" fill="#237978"/>
<mask id="mask11_1261:7210" style="mask-type:alpha" maskUnits="userSpaceOnUse" x="1145" y="691" width="65" height="43">
<path fill-rule="evenodd" clip-rule="evenodd" d="M1209.82 691.541H1145.24V733.599H1209.82V691.541Z" fill="white"/>
</mask>
<g mask="url(#mask11_1261:7210)">
<path fill-rule="evenodd" clip-rule="evenodd" d="M1185.9 691.585C1185.9 691.585 1211.32 700.187 1209.75 702.532C1208.19 704.878 1163.06 734.883 1159.67 733.555C1156.29 732.226 1143.6 708.19 1145.41 705.774C1147.23 703.358 1183.72 690.684 1185.9 691.585Z" fill="#237978"/>
</g>
<path fill-rule="evenodd" clip-rule="evenodd" d="M1066.64 702.041C1066.64 702.041 1044.76 717.575 1046.94 719.373C1049.11 721.171 1100.96 736.962 1103.82 734.718C1106.68 732.475 1111.93 705.809 1109.5 704.016C1107.07 702.222 1068.47 700.554 1066.64 702.041Z" fill="#237978"/>
<path fill-rule="evenodd" clip-rule="evenodd" d="M1305.58 873.857C1293.05 892.193 1300.48 892.528 1295.03 902.613C1289.57 912.698 1284.44 933.746 1278.18 933.219C1271.92 932.691 1271.59 929.212 1274.03 922.706C1276.47 916.2 1283.61 895.367 1280.93 894.377C1278.26 893.387 1269.61 934.568 1259.68 933.905C1249.76 933.243 1258.09 912.137 1262.58 902.695C1267.07 893.253 1268.59 886.258 1265.75 886.866C1262.92 887.475 1251.99 933.563 1243.91 932.176C1235.84 930.79 1239.94 914.599 1244.42 905.037C1248.89 895.476 1255.57 880.41 1255.57 880.41C1255.57 880.41 1244.23 895.106 1239.08 912.646C1233.94 930.185 1230.78 931.079 1227.89 929.388C1225 927.697 1228.83 907.046 1228.83 907.046C1228.83 907.046 1219.15 891.215 1231.33 877.107C1243.5 863 1250.3 848.131 1267.09 840.152C1283.87 832.172 1294.29 838.814 1294.29 838.814C1294.29 838.814 1318.1 855.522 1305.58 873.857Z" fill="#C26E5E"/>
<path fill-rule="evenodd" clip-rule="evenodd" d="M1060.97 787.623H1102.64C1104.33 787.623 1105.71 786.248 1105.71 784.553V780.944C1105.71 779.25 1104.33 777.875 1102.64 777.875H1060.97C1059.27 777.875 1057.9 779.25 1057.9 780.944V784.553C1057.9 786.248 1059.27 787.623 1060.97 787.623Z" fill="#237978"/>
<path fill-rule="evenodd" clip-rule="evenodd" d="M860.314 941.905H1095.45C1099.8 941.905 1103.34 938.375 1103.34 934.021L1081.99 779.235C1081.99 774.881 1078.46 771.351 1074.1 771.351H838.97C834.612 771.351 831.083 774.881 831.083 779.235L852.427 934.021C852.427 938.375 855.956 941.905 860.314 941.905Z" fill="#3267C8"/>
<path fill-rule="evenodd" clip-rule="evenodd" d="M915.969 941.904C915.969 941.904 917.295 944.583 919.107 947.409C920.924 950.234 921.956 948.583 925.219 954.609C928.476 960.636 937.758 972.594 960.566 964.353C983.373 956.11 983.337 950.881 982.089 944.017C980.841 937.153 978.813 935.749 981.267 924.374C983.722 913 976.363 898.935 973.591 898.284L970.825 897.632C970.825 897.632 970.288 886.281 965.801 885.567C961.309 884.854 960.809 887.921 960.809 887.921C960.809 887.921 959.442 885.242 955.335 885.646C951.229 886.051 949.494 893.685 947.843 902.589C946.191 911.491 943.53 934.971 942.19 936.027C940.855 937.083 939.653 936.196 940.658 930.809C941.663 925.422 948.228 904.453 942.383 902.555C936.542 900.656 933.372 906.583 929.655 918.789C925.934 930.995 924.53 933.023 924.705 936.309L923.581 941.904H915.969Z" fill="#C26E5E"/>
<path fill-rule="evenodd" clip-rule="evenodd" d="M960.841 887.736C960.841 887.736 960.584 886.939 960.859 892.343C960.96 894.311 960.855 897.007 960.382 900.699C958.62 914.535 956.468 936.442 955.321 943.024C954.179 949.608 957.207 944.878 958.96 929.549C960.712 914.22 962.355 895.828 962.346 894.976C962.336 893.526 962.304 889.175 960.841 887.736Z" fill="black"/>
<path fill-rule="evenodd" clip-rule="evenodd" d="M1126.06 651.903C1126.06 651.903 1118.65 663.369 1108.58 656.737L1126.06 651.903Z" fill="black"/>
<path fill-rule="evenodd" clip-rule="evenodd" d="M1085.85 622.431C1085.85 623.951 1087.08 625.183 1088.6 625.183C1090.12 625.183 1091.36 623.951 1091.36 622.431C1091.36 620.912 1090.12 619.679 1088.6 619.679C1087.08 619.679 1085.85 620.912 1085.85 622.431Z" fill="black"/>
<path fill-rule="evenodd" clip-rule="evenodd" d="M1144.46 606.458C1144.46 606.458 1137.46 602.234 1132.12 601.273C1128.83 600.68 1110.62 603.248 1111.2 606.958C1111.77 610.573 1113.56 610.086 1120.75 608.852C1127.93 607.618 1131.22 606.794 1135.37 607.243C1139.52 607.692 1144.35 608.59 1144.46 606.458Z" fill="black"/>
<path fill-rule="evenodd" clip-rule="evenodd" d="M1069.65 613.455C1069.65 613.455 1070.85 609.785 1072.82 608.022C1074.79 606.259 1089.65 602.452 1092.17 604.806C1096.16 608.547 1093.29 609.888 1085.27 610.719C1078.83 611.388 1076.28 611.61 1073.29 612.907C1069.21 614.68 1069.74 614.138 1069.65 613.455Z" fill="black"/>
<path d="M1099.07 606.469L1097.32 607.03L1097.49 607.577C1097.63 608.023 1097.78 608.534 1097.95 609.101C1098.42 610.72 1098.89 612.459 1099.33 614.249C1099.82 616.239 1100.24 618.169 1100.57 619.991L1100.66 620.53C1101.46 625.164 1101.57 628.703 1100.86 630.606L1100.82 630.714C1096.74 640.787 1102.28 645.895 1113.89 642.318L1114.24 642.207L1113.68 640.46C1103.22 643.805 1099.03 640.036 1102.52 631.401C1103.48 629.025 1103.33 624.991 1102.37 619.666C1102.04 617.803 1101.61 615.836 1101.11 613.811C1100.72 612.196 1100.29 610.623 1099.87 609.14L1099.71 608.588C1099.61 608.259 1099.52 607.948 1099.43 607.658L1099.21 606.922L1099.07 606.469Z" fill="black"/>
<path d="M1144.38 676.65L1143.48 675.05L1143.15 675.229L1142.85 675.388C1142.4 675.628 1141.88 675.892 1141.3 676.175L1141.05 676.297C1139.12 677.24 1136.97 678.184 1134.69 679.064C1129.44 681.089 1124.25 682.471 1119.42 682.919C1117.23 683.122 1115.16 683.127 1113.21 682.919L1112.83 682.874L1112.6 684.695C1114.79 684.965 1117.13 684.974 1119.59 684.746C1124.61 684.28 1129.95 682.856 1135.35 680.776C1137.69 679.876 1139.88 678.912 1141.86 677.947L1142.61 677.576C1142.92 677.417 1143.22 677.264 1143.5 677.119L1144.02 676.844L1144.38 676.65Z" fill="black"/>
<path fill-rule="evenodd" clip-rule="evenodd" d="M1119.85 618.675C1120.19 618.675 1120.52 618.555 1120.78 618.313C1120.8 618.297 1123.07 616.283 1126.35 616.405C1129.74 616.53 1131.99 618.188 1132.01 618.204C1132.62 618.658 1133.48 618.539 1133.94 617.936C1134.39 617.332 1134.28 616.474 1133.68 616.014C1133.56 615.925 1130.75 613.814 1126.45 613.655C1122.02 613.496 1119.05 616.171 1118.92 616.286C1118.36 616.799 1118.33 617.67 1118.84 618.229C1119.11 618.525 1119.48 618.675 1119.85 618.675Z" fill="black"/>
<mask id="mask12_1261:7210" style="mask-type:alpha" maskUnits="userSpaceOnUse" x="1055" y="525" width="123" height="97">
<path fill-rule="evenodd" clip-rule="evenodd" d="M1177.96 525.053H1055.43V621.031H1177.96V525.053Z" fill="white"/>
</mask>
<g mask="url(#mask12_1261:7210)">
<path fill-rule="evenodd" clip-rule="evenodd" d="M1169.22 603.535C1169.22 603.535 1185.74 582.896 1173.35 554.46C1160.96 526.024 1132.52 521.896 1115.54 527.858C1115.54 527.858 1056.35 510.889 1055.43 560.422C1054.69 600.869 1113.25 568.678 1113.25 568.678C1113.25 568.678 1113.25 592.527 1136.64 589.775C1160.04 587.023 1160.04 622.798 1164.17 620.963C1168.3 619.128 1169.22 603.535 1169.22 603.535Z" fill="#0F0F0F"/>
</g>
<path fill-rule="evenodd" clip-rule="evenodd" d="M1088.13 664.444C1088.13 664.444 1090.43 658.005 1097.92 649.685C1102.05 645.1 1124.47 634.144 1133.55 642.875C1142.63 651.606 1147.59 653.343 1146.02 653.601C1130.73 656.121 1127.59 649.279 1120.52 649.648C1112.61 650.061 1108.17 649.202 1108.17 649.202C1106.11 652.503 1103.84 654.909 1098.75 659.379C1097.06 660.865 1089.3 668.056 1088.13 664.444Z" fill="#0F0F0F"/>
</g>
<path d="M1467.01 898.847H106.164V1015.8H1467.01V898.847Z" fill="#DDCBD5"/>
<path d="M1429.39 927.283H1331.66C1326.34 927.283 1322.02 931.595 1322.02 936.914V963.516C1322.02 968.835 1326.34 973.147 1331.66 973.147H1429.39C1434.71 973.147 1439.02 968.835 1439.02 963.516V936.914C1439.02 931.595 1434.71 927.283 1429.39 927.283Z" fill="#FCEBEC"/>
<path d="M164.893 960.305H157.093V973.147H164.893V960.305Z" fill="#FCEBEC"/>
<path d="M168.563 969.478H153.422C152.409 969.478 151.587 970.3 151.587 971.313C151.587 972.326 152.409 973.147 153.422 973.147H168.563C169.577 973.147 170.398 972.326 170.398 971.313C170.398 970.3 169.577 969.478 168.563 969.478Z" fill="#FCEBEC"/>
<path d="M168.563 934.851C168.563 930.671 165.174 927.283 160.993 927.283C156.812 927.283 153.422 930.671 153.422 934.851V948.151C153.422 952.331 156.812 955.719 160.993 955.719C165.174 955.719 168.563 952.331 168.563 948.151V934.851Z" fill="#FCEBEC"/>
<path d="M148.149 945.638C149.159 945.546 150.051 946.289 150.144 947.298C150.845 954.948 154.3 958.466 160.933 958.466C167.6 958.466 170.844 955.485 171.261 949.014C171.326 948 172.199 947.234 173.21 947.298C174.222 947.362 174.989 948.238 174.924 949.248C174.381 957.668 169.519 962.135 160.933 962.135C152.311 962.135 147.355 957.095 146.489 947.629C146.396 946.624 147.14 945.73 148.149 945.638Z" fill="#FCEBEC"/>
<path d="M279.596 927.283H241.514C238.22 927.283 235.55 929.952 235.55 933.245V967.185C235.55 970.478 238.22 973.147 241.514 973.147H279.596C282.89 973.147 285.561 970.478 285.561 967.185V933.245C285.561 929.952 282.89 927.283 279.596 927.283Z" fill="#FCEBEC"/>
<path fill-rule="evenodd" clip-rule="evenodd" d="M288.313 944.056L302.078 935.539V965.351L288.313 956.833V944.056Z" fill="#FCEBEC"/>
<path fill-rule="evenodd" clip-rule="evenodd" d="M366.771 965.483C368.66 954.724 378.109 946.546 389.483 946.546C400.857 946.546 410.304 954.724 412.194 965.483C406.574 971.602 398.48 975.441 389.483 975.441C380.486 975.441 372.393 971.602 366.771 965.483Z" fill="#FCEBEC"/>
<path d="M389.483 949.298C396.958 949.298 403.018 943.24 403.018 935.768C403.018 928.296 396.958 922.238 389.483 922.238C382.008 922.238 375.948 928.296 375.948 935.768C375.948 943.24 382.008 949.298 389.483 949.298Z" fill="#FCEBEC"/>
<path d="M431.006 932.787H425.041V956.636H431.006V932.787Z" fill="#FCEBEC"/>
<path fill-rule="evenodd" clip-rule="evenodd" d="M439.953 941.73V947.693H416.094V941.73H439.953Z" fill="#FCEBEC"/>
<path d="M832.469 922.238H741.165C735.844 922.238 731.53 926.55 731.53 931.87V965.809C731.53 971.128 735.844 975.441 741.165 975.441H832.469C837.79 975.441 842.104 971.128 842.104 965.809V931.87C842.104 926.55 837.79 922.238 832.469 922.238Z" fill="#FCEBEC"/>
<path fill-rule="evenodd" clip-rule="evenodd" d="M786.817 931.411L803.105 948.839H770.529L786.817 931.411Z" fill="#DDB0C8"/>
<path d="M793.929 948.839H779.247V963.975H793.929V948.839Z" fill="#DDB0C8"/>
<path fill-rule="evenodd" clip-rule="evenodd" d="M1130.22 953.884C1130.22 953.884 1128.53 991.104 1106.81 1004.24C1087.1 1016.16 1128.85 1085.34 1173.76 1081.21C1198.35 1078.95 1204.11 1011.75 1204.11 1011.75C1204.11 1011.75 1184.26 1007.91 1191.59 977.651L1130.22 953.884Z" fill="#F6CBC3"/>
<path fill-rule="evenodd" clip-rule="evenodd" d="M1166.18 991.73C1137.07 988.21 1116.05 969.073 1113.11 937.326C1104.65 938.673 1102.65 916.626 1105.01 909.544C1107.37 902.451 1115.07 906.599 1115.07 906.599C1115.07 906.599 1115.71 904.917 1116.16 903.078C1128.87 850.925 1164.5 852.994 1164.5 852.994C1229.96 856.403 1214.62 923.21 1210.88 940.933C1207.14 958.659 1194.33 995.129 1166.18 991.73Z" fill="#F6CBC3"/>
<path fill-rule="evenodd" clip-rule="evenodd" d="M970.217 1117.16C970.217 1117.16 892.453 1240.31 921.152 1266.6C949.85 1292.88 1030.65 1202.64 1030.65 1202.64C1030.65 1202.64 1026.48 1182.49 1009.15 1158.67C991.811 1134.86 970.217 1117.16 970.217 1117.16Z" fill="#F6CBC3"/>
<path fill-rule="evenodd" clip-rule="evenodd" d="M1296.94 1175.49L1259.1 1171.09C1259.1 1171.09 1268.78 1301.29 1265.14 1301.29C1263.19 1301.29 1217.73 1325.92 1154.04 1325.92C1105.1 1325.92 1045.08 1309.75 1042.54 1309.61C1042.23 1309.59 1041.93 1309.38 1041.64 1308.99C1042.46 1300.01 1043.1 1284.13 1043.76 1266.6C1044.22 1254.3 1044.69 1241.18 1045.22 1229.07C1045.72 1217.8 1046.28 1207.4 1046.96 1199.32C1049.89 1164.07 1047.86 1131.91 1047.86 1131.91L1033.37 1171.21L941.518 1137.76C941.518 1137.76 972.19 1093.07 1008.76 1054.21C1045.04 1015.65 1103.22 1005.86 1104.13 1005.72C1104.14 1005.71 1104.14 1005.71 1104.14 1005.71C1104.14 1005.71 1100.87 1058.91 1155.92 1063C1201.68 1066.4 1204.06 1011.56 1204.06 1011.56C1204.06 1011.56 1257.56 1025.52 1272.9 1038.61C1288.25 1051.69 1355.96 1141.03 1355.96 1143.29C1355.96 1145.55 1296.94 1175.49 1296.94 1175.49Z" fill="#F9C818"/>
<path fill-rule="evenodd" clip-rule="evenodd" d="M1045.22 1229.07C1044.69 1241.18 1044.22 1254.3 1043.76 1266.6C1043.66 1258.26 1043.99 1246.28 1045.22 1229.07Z" fill="#F9C818"/>
<path fill-rule="evenodd" clip-rule="evenodd" d="M1235.43 1190.81L1187.31 1194.72C1184.41 1194.95 1181.87 1192.79 1181.63 1189.89L1173.94 1095.3C1173.71 1092.4 1175.87 1089.86 1178.77 1089.63L1226.89 1085.72C1229.79 1085.48 1232.33 1087.64 1232.57 1090.54L1240.26 1185.13C1240.49 1188.03 1238.33 1190.57 1235.43 1190.81Z" fill="#204EB2"/>
<path fill-rule="evenodd" clip-rule="evenodd" d="M1240.34 1188.18L1192.04 1192.11C1189.19 1192.34 1186.69 1190.22 1186.46 1187.36L1179.03 1096.05C1178.8 1093.2 1180.93 1090.7 1183.78 1090.47L1232.07 1086.54C1234.93 1086.31 1237.43 1088.43 1237.66 1091.29L1245.08 1182.6C1245.31 1185.45 1243.19 1187.95 1240.34 1188.18Z" fill="#1F9BEB"/>
<path fill-rule="evenodd" clip-rule="evenodd" d="M1232.21 1096.95C1232.44 1099.69 1230.4 1102.09 1227.66 1102.32C1224.92 1102.54 1222.51 1100.5 1222.29 1097.76C1222.07 1095.02 1224.11 1092.62 1226.85 1092.4C1229.59 1092.18 1231.99 1094.21 1232.21 1096.95Z" fill="#204EB2"/>
<path fill-rule="evenodd" clip-rule="evenodd" d="M1222.69 1184.85C1222.69 1184.85 1198.55 1190.11 1198.4 1181.76C1198.4 1181.76 1214.8 1174.95 1218.51 1175.26C1222.22 1175.57 1239.39 1177.58 1239.39 1177.58L1218.2 1167.07L1197.16 1173.56C1197.16 1173.56 1192.37 1173.87 1190.2 1170.47C1188.04 1167.07 1190.51 1165.06 1190.51 1165.06L1218.05 1155.93C1218.05 1155.93 1218.97 1152.99 1212.01 1152.68C1205.05 1152.38 1189.74 1151.29 1189.74 1151.29C1189.74 1151.29 1186.33 1148.35 1187.88 1143.1C1189.43 1137.84 1198.09 1139.7 1198.09 1139.7C1198.09 1139.7 1193.29 1135.06 1200.57 1129.95C1200.57 1129.95 1222.84 1130.57 1231.04 1135.67C1239.24 1140.78 1295.36 1175.22 1295.36 1175.22L1339.04 1152.29C1339.04 1152.29 1421.97 1253.76 1383.05 1272.53C1344.12 1291.29 1222.69 1184.85 1222.69 1184.85Z" fill="#F6CBC3"/>
<path fill-rule="evenodd" clip-rule="evenodd" d="M1246.92 1154.44L1224.99 1142.01L1197.68 1139.09L1197.87 1137.26L1225.37 1140.21C1225.5 1140.22 1225.62 1140.26 1225.73 1140.32L1247.82 1152.84L1246.92 1154.44Z" fill="black"/>
<path fill-rule="evenodd" clip-rule="evenodd" d="M1334.95 1200.3L1282.53 1167.37L1283.51 1165.82L1335.93 1198.75L1334.95 1200.3Z" fill="black"/>
<path fill-rule="evenodd" clip-rule="evenodd" d="M1006.26 1162.64L953.675 1195.3L952.707 1193.74L1005.29 1161.08L1006.26 1162.64Z" fill="black"/>
<path fill-rule="evenodd" clip-rule="evenodd" d="M1245.14 1164.51C1245 1164.42 1231.26 1155.12 1227.68 1153.62C1224.94 1152.48 1219.48 1154.56 1217.6 1155.46L1216.81 1153.8C1217.11 1153.66 1224.34 1150.24 1228.38 1151.93C1232.14 1153.49 1245.6 1162.6 1246.17 1162.99L1245.14 1164.51Z" fill="black"/>
<path fill-rule="evenodd" clip-rule="evenodd" d="M1240.42 1128.23L1253.96 1148.93L1241.08 1140.83L1240.42 1128.23Z" fill="#F6CBC3"/>
<path fill-rule="evenodd" clip-rule="evenodd" d="M1253.47 1149.71L1240.59 1141.61L1241.57 1140.06L1254.45 1148.15L1253.47 1149.71Z" fill="black"/>
<path fill-rule="evenodd" clip-rule="evenodd" d="M1073.67 1200.18L1057.54 1199.87C1040.56 1199.53 1027.07 1185.5 1027.4 1168.53L1028.41 1117.16L1101.74 1118.6L1100.65 1174.25C1100.36 1188.86 1088.28 1200.47 1073.67 1200.18Z" fill="white"/>
<path fill-rule="evenodd" clip-rule="evenodd" d="M1026.81 1134.92C1026.81 1134.92 1020.19 1139.17 1018.06 1141.77C1015.93 1144.37 1017.82 1144.84 1013.1 1149.8C1008.37 1154.76 999.863 1167.28 1014.75 1186.42C1029.64 1205.56 1034.6 1203.9 1040.75 1200.59C1046.89 1197.29 1047.6 1194.92 1059.18 1193.74C1070.76 1192.56 1081.87 1181.22 1081.64 1178.39L1081.4 1175.55C1081.4 1175.55 1092.03 1171.53 1091.33 1167.05C1090.62 1162.56 1087.54 1163.03 1087.54 1163.03C1087.54 1163.03 1089.67 1160.9 1088.02 1157.12C1086.36 1153.34 1078.56 1154.05 1069.58 1155.23C1060.6 1156.41 1037.44 1161.14 1036.02 1160.19C1034.6 1159.25 1035.08 1157.83 1040.51 1157.12C1045.95 1156.41 1067.93 1156.18 1067.93 1150.04C1067.93 1143.89 1061.31 1142.71 1048.55 1142.95C1035.79 1143.18 1033.42 1142.48 1030.35 1143.66L1027.28 1144.84L1026.81 1134.92Z" fill="#F6CBC3"/>
<path fill-rule="evenodd" clip-rule="evenodd" d="M1087.73 1163C1087.73 1163 1088.41 1162.51 1083.35 1164.44C1081.51 1165.15 1078.91 1165.88 1075.25 1166.57C1061.55 1169.17 1040.04 1173.9 1033.42 1174.84C1026.8 1175.79 1032.24 1177.2 1047.37 1174.13C1062.49 1171.06 1080.5 1166.94 1081.31 1166.67C1082.68 1166.21 1086.81 1164.84 1087.73 1163Z" fill="black"/>
<path fill-rule="evenodd" clip-rule="evenodd" d="M1076.44 1176.97C1076.44 1176.97 1065.25 1180.89 1059.74 1182.27C1053.9 1183.73 1049.49 1185.71 1048.31 1183.82C1047.13 1181.93 1045.71 1181.46 1045.71 1181.46L1043.82 1183.58C1043.82 1183.58 1044.14 1185.94 1043.11 1186.18C1041.28 1186.62 1037.68 1187.36 1037.68 1187.36C1037.68 1187.36 1037.72 1188.69 1048.73 1186.39C1051.46 1185.83 1056.53 1185.02 1059.74 1184.1C1062.7 1183.26 1073.37 1180.51 1074.78 1179.33C1076.2 1178.15 1076.44 1176.97 1076.44 1176.97Z" fill="black"/>
<path fill-rule="evenodd" clip-rule="evenodd" d="M1041.69 1175.79C1041.69 1175.79 1041.52 1185.3 1044.21 1185.15C1046.89 1185 1047.84 1185 1048.31 1184.29C1048.78 1183.58 1047.6 1181.22 1047.6 1178.62C1047.6 1176.02 1047.6 1174.84 1045.48 1175.08C1043.35 1175.32 1041.93 1175.32 1041.69 1175.79Z" fill="#F9C818"/>
<path fill-rule="evenodd" clip-rule="evenodd" d="M1149.11 1388.02C1149.11 1388.02 1168.72 1396.52 1171.08 1393.21C1173.45 1389.91 1153.12 1410.46 1153.12 1410.46L1138.47 1402.19L1149.11 1388.02Z" fill="#F6CBC3"/>
<path fill-rule="evenodd" clip-rule="evenodd" d="M1148.19 1388.02L1136.76 1403.25L1152.55 1412.17L1152.92 1411.79L1152.44 1411.31C1152.92 1411.79 1152.92 1411.79 1152.92 1411.79L1153.15 1411.56C1153.3 1411.41 1153.52 1411.19 1153.79 1410.92C1154.34 1410.36 1155.13 1409.57 1156.06 1408.63C1157.93 1406.76 1160.39 1404.3 1162.79 1401.93C1165.18 1399.57 1167.49 1397.32 1169.06 1395.87C1169.27 1395.66 1169.47 1395.48 1169.65 1395.32C1170.17 1395.16 1170.64 1394.9 1170.96 1394.46L1148.19 1388.02ZM1168.99 1394.06C1169.37 1393.72 1169.68 1393.46 1169.89 1393.3C1169.98 1393.24 1170.08 1393.16 1170.18 1393.11C1170.23 1393.09 1170.32 1393.04 1170.44 1393.02C1170.54 1393.01 1170.94 1392.97 1171.17 1393.35C1171.26 1393.5 1171.28 1393.65 1171.28 1393.73C1171.27 1393.82 1171.26 1393.89 1171.25 1393.94C1171.22 1394.02 1171.19 1394.1 1171.16 1394.14C1171.11 1394.24 1171.04 1394.35 1170.96 1394.46L1168.99 1394.06ZM1168.99 1394.06C1168.9 1394.08 1168.8 1394.09 1168.7 1394.1C1168.02 1394.18 1167.13 1394.13 1166.07 1393.97C1163.96 1393.64 1161.32 1392.9 1158.74 1392.05C1156.15 1391.2 1153.64 1390.25 1151.77 1389.5C1150.84 1389.13 1150.07 1388.81 1149.53 1388.59C1149.26 1388.48 1149.05 1388.39 1148.91 1388.33C1148.84 1388.3 1148.78 1388.27 1148.75 1388.26L1148.7 1388.24L1148.69 1388.23C1148.69 1388.23 1148.69 1388.23 1148.42 1388.86L1148.69 1388.23L1148.19 1388.02L1168.99 1394.06ZM1148.64 1389.71C1148.75 1389.75 1148.87 1389.8 1149 1389.86C1149.54 1390.09 1150.32 1390.41 1151.26 1390.78C1153.15 1391.53 1155.69 1392.49 1158.31 1393.36C1160.92 1394.22 1163.63 1394.98 1165.86 1395.32C1166.41 1395.41 1166.94 1395.47 1167.44 1395.5C1165.91 1396.94 1163.89 1398.91 1161.82 1400.96C1159.42 1403.32 1156.96 1405.79 1155.09 1407.66C1154.15 1408.6 1153.37 1409.39 1152.81 1409.95C1152.62 1410.15 1152.45 1410.32 1152.32 1410.45L1138.8 1402.83L1148.64 1389.71ZM1169.94 1393.5C1169.94 1393.5 1169.94 1393.5 1169.94 1393.5C1169.95 1393.49 1169.95 1393.49 1169.94 1393.5Z" fill="black"/>
<path fill-rule="evenodd" clip-rule="evenodd" d="M1306.27 1398.41C1306.27 1398.41 1335.1 1415.19 1312.18 1441.41C1289.25 1467.63 1208.19 1449.68 1208.19 1449.68L1206.06 1439.28C1206.06 1439.28 1287.6 1399.83 1306.27 1398.41Z" fill="#F0ECEC"/>
<path fill-rule="evenodd" clip-rule="evenodd" d="M1306.27 1398.41C1306.27 1398.41 1317.62 1400.77 1321.16 1413.77C1324.71 1426.76 1316.89 1441.89 1305.44 1446.97C1305.44 1446.97 1320.06 1414.53 1294.37 1401.16L1306.27 1398.41Z" fill="#E0D3CC"/>
<path fill-rule="evenodd" clip-rule="evenodd" d="M1297.01 1450.65C1297.01 1450.65 1286.66 1429.6 1281.93 1430.07C1277.2 1430.54 1226.03 1433.2 1220.89 1432.22L1203.94 1439.05L1206.93 1449.86C1206.93 1449.86 1270.02 1464.62 1297.01 1450.65Z" fill="#E7DADA"/>
<path fill-rule="evenodd" clip-rule="evenodd" d="M1283.11 1410.93C1283.11 1410.93 1286.89 1438.34 1281.45 1438.34C1276.02 1438.34 1274.6 1407.63 1273.66 1418.26C1272.71 1428.89 1272 1442.35 1268.46 1438.34C1264.91 1434.32 1272.24 1404.55 1269.17 1412.82C1266.09 1421.09 1264.2 1436.68 1259.24 1436.45C1254.28 1436.21 1261.13 1420.38 1258.53 1419.91C1255.93 1419.44 1250.73 1440.46 1246.24 1437.87C1241.75 1435.27 1250.02 1418.02 1245.29 1424.4C1240.57 1430.78 1239.15 1438.34 1234.9 1437.39C1230.64 1436.45 1235.37 1428.18 1237.97 1424.16C1240.57 1420.15 1280.51 1404.79 1281.69 1406.68C1282.87 1408.57 1283.11 1410.93 1283.11 1410.93Z" fill="#F9F9F9"/>
<path fill-rule="evenodd" clip-rule="evenodd" d="M1222.13 1437.87C1222.13 1437.87 1317.62 1410.22 1362.05 1375.02C1406.48 1339.82 1432.24 1305.57 1407.19 1267.06C1382.14 1228.55 1323.29 1257.84 1294.93 1270.36C1266.57 1282.89 1173.57 1300.59 1129.19 1300.48C1084.82 1300.37 1025.26 1297.06 994.304 1287.85C963.341 1278.63 913.95 1264.69 898.823 1302.26C883.696 1339.82 901.424 1376.68 927.421 1389.2C953.417 1401.72 1033.54 1428.65 1074.66 1426.05L1115.78 1423.45C1115.78 1423.45 1133.51 1403.85 1128.78 1375.26L1153.6 1393.21C1153.6 1393.21 1167.78 1392.98 1172.98 1391.09C1178.18 1389.2 1207.01 1458.42 1222.13 1437.87Z" fill="#165C5D"/>
<path fill-rule="evenodd" clip-rule="evenodd" d="M1196.85 1441.17C1196.85 1441.17 1155.25 1456.53 1145.32 1462.91C1135.4 1469.29 1114.84 1474.72 1104.91 1467.87C1094.98 1461.02 1100.89 1427 1100.89 1427C1100.89 1427 1134.22 1419.44 1138 1414.24C1141.78 1409.04 1172.03 1391.8 1172.03 1391.8L1196.85 1441.17Z" fill="#F6CBC3"/>
<path fill-rule="evenodd" clip-rule="evenodd" d="M1104.46 1429.69C1104.46 1429.69 1102.31 1424.16 1095.69 1425.34C1089.07 1426.53 1027.39 1419.67 1009.67 1414.71C991.94 1409.75 954.362 1444.95 970.669 1469.76C986.975 1494.57 1009.19 1482.75 1029.28 1481.1C1049.37 1479.45 1088.37 1485.12 1097.11 1482.28C1105.86 1479.45 1114.6 1474.25 1114.84 1468.11C1115.07 1461.96 1104.46 1429.69 1104.46 1429.69Z" fill="#F0ECEC"/>
<path fill-rule="evenodd" clip-rule="evenodd" d="M1014.27 1417.95C1014.27 1417.95 988.159 1430.78 983.433 1448.5C978.707 1466.22 980.9 1480.4 980.9 1480.4C980.9 1480.4 956.124 1468.73 970.251 1441.01C984.378 1413.3 1006.58 1411.02 1014.27 1415.11C1021.96 1419.2 1014.27 1417.95 1014.27 1417.95Z" fill="#E0D3CC"/>
<path fill-rule="evenodd" clip-rule="evenodd" d="M1017.16 1417.35C1017.16 1417.35 1027.86 1434.32 1029.28 1446.61C1029.28 1446.61 1028.34 1448.97 1040.15 1448.73C1051.97 1448.5 1107.06 1436.41 1107.06 1436.41C1107.06 1436.41 1118.91 1464.79 1114.63 1472.12C1110.35 1479.45 1029.28 1465.51 1029.28 1465.51C1029.28 1465.51 1025.97 1463.62 1023.85 1465.27C1021.72 1466.92 1010.74 1482.07 995.667 1485.13C995.667 1485.13 1019.12 1472.59 1021.01 1456.06C1022.9 1439.52 1017.16 1417.35 1017.16 1417.35Z" fill="#EEDFD9"/>
<path fill-rule="evenodd" clip-rule="evenodd" d="M1094.98 1434.56C1094.98 1434.56 1094.27 1450.62 1097.35 1459.6C1100.42 1468.58 1102.97 1476.41 1097.68 1475.45C1092.38 1474.49 1086.71 1438.81 1089.78 1435.74C1092.86 1432.67 1094.75 1431.72 1094.98 1434.56Z" fill="white"/>
<path fill-rule="evenodd" clip-rule="evenodd" d="M1086.24 1436.45C1086.24 1436.45 1085.53 1452.51 1088.6 1461.49C1091.68 1470.47 1094.23 1478.3 1088.93 1477.34C1083.64 1476.38 1077.97 1440.7 1081.04 1437.63C1084.11 1434.56 1086 1433.61 1086.24 1436.45Z" fill="white"/>
<path fill-rule="evenodd" clip-rule="evenodd" d="M1055.28 1437.01C1055.28 1437.01 1054.57 1451.71 1057.64 1459.92C1060.72 1468.13 1063.27 1475.29 1057.97 1474.41C1052.68 1473.53 1047.01 1440.9 1050.08 1438.09C1053.15 1435.28 1055.04 1434.42 1055.28 1437.01Z" fill="white"/>
<path fill-rule="evenodd" clip-rule="evenodd" d="M1043.46 1438.8C1043.46 1438.8 1042.75 1452.51 1045.83 1460.18C1048.9 1467.84 1051.45 1474.53 1046.16 1473.71C1040.86 1472.89 1035.19 1442.43 1038.26 1439.81C1041.33 1437.19 1043.23 1436.38 1043.46 1438.8Z" fill="white"/>
<path fill-rule="evenodd" clip-rule="evenodd" d="M1034.97 1437.81C1034.97 1437.81 1032.32 1451.29 1034.27 1459.31C1036.22 1467.33 1037.8 1474.31 1032.68 1472.75C1027.55 1471.18 1026.27 1440.23 1029.68 1438.07C1033.09 1435.91 1035.08 1435.38 1034.97 1437.81Z" fill="white"/>
<path fill-rule="evenodd" clip-rule="evenodd" d="M1075.25 1437.48C1075.25 1437.48 1076.19 1453.53 1080.16 1462.15C1084.14 1470.77 1087.48 1478.29 1082.11 1477.88C1076.75 1477.46 1067.46 1442.56 1070.2 1439.19C1072.94 1435.82 1074.72 1434.68 1075.25 1437.48Z" fill="white"/>
<path fill-rule="evenodd" clip-rule="evenodd" d="M1070.61 1437.18C1070.61 1437.18 1067.42 1452.94 1069.06 1462.29C1070.7 1471.63 1072.01 1479.77 1066.93 1477.99C1061.85 1476.22 1061.78 1440.1 1065.29 1437.54C1068.81 1434.99 1070.82 1434.35 1070.61 1437.18Z" fill="white"/>
<path fill-rule="evenodd" clip-rule="evenodd" d="M1106.06 1435.33C1106.06 1435.33 1091.2 1438.57 1094.27 1456.53C1097.35 1474.48 1116.01 1469.42 1116.01 1469.42C1116.01 1469.42 1120.44 1439.89 1106.06 1435.33Z" fill="white"/>
<path d="M1315.11 1278.31L1184.66 1381.17L1156.42 1393.06L1126.51 1374.44L1023.82 1309.5L1022.84 1311.05L1125.54 1376L1156.25 1395.12L1185.6 1382.77L1316.25 1279.75L1315.11 1278.31Z" fill="black"/>
<path fill-rule="evenodd" clip-rule="evenodd" d="M1123.34 1364.63C1123.34 1364.63 1144.61 1370.53 1150.52 1380.69C1156.43 1390.85 1154.54 1408.33 1137.05 1415.66C1119.56 1422.98 1112.47 1429.12 1116.96 1417.55C1121.45 1405.97 1129.73 1384.71 1123.34 1364.63Z" fill="#46AFAC"/>
<path fill-rule="evenodd" clip-rule="evenodd" d="M1185.27 1378.09C1185.27 1378.09 1187.39 1401.72 1200.39 1420.15C1213.39 1438.57 1224.97 1440.46 1220.72 1444.95C1216.46 1449.44 1209.84 1451.57 1205.59 1457.24C1201.34 1462.91 1201.57 1462.67 1191.65 1450.86C1181.72 1439.05 1159.98 1412.82 1159.5 1389.43C1159.5 1389.43 1183.37 1370.3 1185.27 1378.09Z" fill="#46AFAC"/>
<path d="M1185.73 915.136L1187.48 915.697L1187.31 916.244C1187.17 916.69 1187.02 917.201 1186.85 917.767C1186.38 919.387 1185.91 921.126 1185.47 922.916C1184.98 924.906 1184.56 926.836 1184.23 928.658L1184.13 929.197C1183.34 933.831 1183.22 937.37 1183.94 939.273L1183.98 939.381C1188.05 949.454 1182.52 954.562 1170.91 950.985L1170.56 950.874L1171.12 949.127C1181.57 952.472 1185.77 948.703 1182.28 940.068C1181.32 937.691 1181.46 933.658 1182.42 928.333C1182.76 926.47 1183.19 924.503 1183.68 922.478C1184.08 920.863 1184.5 919.29 1184.93 917.807L1185.09 917.254C1185.18 916.926 1185.28 916.615 1185.36 916.325L1185.59 915.589L1185.73 915.136Z" fill="black"/>
<path d="M1140.42 985.317L1141.32 983.717L1141.64 983.896L1141.94 984.055C1142.4 984.295 1142.92 984.559 1143.49 984.842L1143.74 984.964C1145.68 985.907 1147.82 986.851 1150.11 987.731C1155.36 989.756 1160.55 991.138 1165.38 991.586C1167.57 991.789 1169.64 991.794 1171.58 991.586L1171.97 991.541L1172.19 993.362C1170 993.632 1167.67 993.641 1165.21 993.413C1160.19 992.947 1154.84 991.523 1149.45 989.443C1147.11 988.543 1144.92 987.579 1142.94 986.614L1142.19 986.244C1141.87 986.084 1141.57 985.931 1141.29 985.786L1140.78 985.512L1140.42 985.317Z" fill="black"/>
<path fill-rule="evenodd" clip-rule="evenodd" d="M1172.32 966.735C1163.96 964.495 1158.68 958.977 1158.43 958.715C1157.91 958.162 1157.94 957.291 1158.49 956.769C1159.04 956.249 1159.91 956.275 1160.43 956.828C1160.54 956.937 1166.75 963.37 1175.97 964.679C1176.72 964.785 1177.25 965.482 1177.14 966.234C1177.04 966.987 1176.34 967.51 1175.59 967.403C1174.45 967.243 1173.36 967.014 1172.32 966.735Z" fill="black"/>
<path fill-rule="evenodd" clip-rule="evenodd" d="M1177.42 952.126C1175.56 952.126 1173.25 951.763 1170.36 950.839L1170.92 949.092C1176.3 950.812 1180.27 950.672 1182.11 948.696C1183.67 947.014 1183.66 943.938 1182.08 940.034C1181.01 937.385 1181.27 932.362 1182.87 925.102C1184.03 919.79 1185.52 915.148 1185.53 915.102L1187.28 915.662C1185.67 920.676 1181.91 934.707 1183.78 939.346C1186.17 945.243 1184.92 948.364 1183.45 949.944C1182.41 951.071 1180.58 952.126 1177.42 952.126Z" fill="black"/>
<path fill-rule="evenodd" clip-rule="evenodd" d="M1169.76 914.16C1169.49 914.16 1169.21 914.114 1168.93 914.018C1166.25 913.085 1158.52 910.602 1154.93 910.337C1151.56 910.087 1146.41 911.754 1144.71 912.418C1143.41 912.924 1141.95 912.284 1141.44 910.988C1140.93 909.691 1141.57 908.228 1142.87 907.72C1143.16 907.606 1150.09 904.919 1155.31 905.306C1160.29 905.675 1170.17 909.109 1170.59 909.255C1171.91 909.714 1172.6 911.153 1172.14 912.468C1171.78 913.508 1170.81 914.16 1169.76 914.16Z" fill="black"/>
<path fill-rule="evenodd" clip-rule="evenodd" d="M1212.22 922.772C1211.71 922.772 1211.2 922.617 1210.77 922.295C1209.36 921.268 1205.03 918.485 1201.88 917.959C1198.52 917.397 1190.79 918.032 1188.09 918.323C1186.74 918.468 1185.52 917.492 1185.38 916.141C1185.23 914.788 1186.21 913.573 1187.56 913.427C1187.98 913.381 1197.97 912.314 1202.69 913.102C1207.65 913.93 1213.44 918.146 1213.68 918.325C1214.78 919.13 1215.01 920.671 1214.21 921.767C1213.73 922.424 1212.98 922.772 1212.22 922.772Z" fill="black"/>
<path fill-rule="evenodd" clip-rule="evenodd" d="M1164.94 927.342C1164.61 927.342 1164.28 927.222 1164.01 926.98C1164 926.964 1161.73 924.95 1158.45 925.072C1155.06 925.197 1152.81 926.855 1152.79 926.872C1152.18 927.326 1151.32 927.206 1150.86 926.603C1150.4 925.999 1150.52 925.142 1151.12 924.682C1151.24 924.592 1154.05 922.481 1158.35 922.322C1162.77 922.163 1165.75 924.838 1165.87 924.953C1166.43 925.466 1166.47 926.337 1165.96 926.896C1165.69 927.192 1165.32 927.342 1164.94 927.342Z" fill="black"/>
<path fill-rule="evenodd" clip-rule="evenodd" d="M1203.54 931.536C1203.2 931.536 1202.87 931.416 1202.61 931.173C1202.59 931.158 1200.32 929.141 1197.04 929.265C1193.66 929.39 1191.41 931.044 1191.39 931.061C1190.78 931.523 1189.92 931.407 1189.46 930.804C1188.99 930.2 1189.11 929.336 1189.71 928.875C1189.83 928.785 1192.64 926.674 1196.94 926.515C1201.37 926.357 1204.34 929.032 1204.47 929.146C1205.03 929.66 1205.07 930.53 1204.55 931.09C1204.28 931.386 1203.91 931.536 1203.54 931.536Z" fill="black"/>
<mask id="mask13_1261:7210" style="mask-type:alpha" maskUnits="userSpaceOnUse" x="1105" y="821" width="120" height="102">
<path fill-rule="evenodd" clip-rule="evenodd" d="M1105.87 821.844H1224.06V922.115H1105.87V821.844Z" fill="white"/>
</mask>
<g mask="url(#mask13_1261:7210)">
<path fill-rule="evenodd" clip-rule="evenodd" d="M1108.64 905.002C1108.64 905.002 1099.94 862.241 1113.39 860.961L1126.84 859.68C1126.84 859.68 1116.65 833.333 1140.31 825.449C1163.97 817.565 1186.34 822.565 1197.1 840.905C1207.85 859.245 1218.89 855.601 1223.19 873.839C1227.48 892.076 1214.6 922.115 1214.6 922.115C1214.6 922.115 1212.8 884.143 1208.49 879.834C1204.18 875.525 1186.41 891.294 1163.8 886.45C1141.19 881.607 1127.11 862.155 1123.02 889.404C1118.93 916.653 1115.11 908.424 1115.11 908.424C1115.11 908.424 1113.7 904.651 1108.54 905.942L1108.64 905.002Z" fill="#0F0F0F"/>
</g>
<path fill-rule="evenodd" clip-rule="evenodd" d="M1138.52 922.09C1138.52 912.415 1146.36 904.572 1156.04 904.572C1165.72 904.572 1173.57 912.415 1173.57 922.09C1173.57 931.765 1165.72 939.608 1156.04 939.608C1146.36 939.608 1138.52 931.765 1138.52 922.09ZM1169.44 922.09C1169.44 914.695 1163.44 908.699 1156.04 908.699C1148.64 908.699 1142.64 914.695 1142.64 922.09C1142.64 929.485 1148.64 935.481 1156.04 935.481C1163.44 935.481 1169.44 929.486 1169.44 922.09Z" fill="black"/>
<path fill-rule="evenodd" clip-rule="evenodd" d="M1181.61 926.267C1181.61 916.592 1189.45 908.749 1199.13 908.749C1208.81 908.749 1216.66 916.592 1216.66 926.267C1216.66 935.942 1208.81 943.786 1199.13 943.786C1189.45 943.786 1181.61 935.942 1181.61 926.267ZM1212.53 926.267C1212.53 918.872 1206.53 912.877 1199.13 912.877C1191.73 912.877 1185.74 918.872 1185.74 926.267C1185.74 933.663 1191.73 939.658 1199.13 939.658C1206.53 939.658 1212.53 933.663 1212.53 926.267Z" fill="black"/>
<path d="M1115.26 909.538C1115.67 908.511 1116.82 907.996 1117.85 908.353L1117.95 908.388L1140.89 917.561C1141.95 917.984 1142.46 919.186 1142.04 920.244C1141.63 921.271 1140.48 921.786 1139.45 921.429L1139.35 921.394L1116.41 912.221C1115.35 911.797 1114.84 910.596 1115.26 909.538Z" fill="black"/>
<path d="M1169.63 922.956C1169.75 921.855 1170.72 921.054 1171.81 921.124L1171.91 921.133L1183.94 922.471C1185.07 922.597 1185.89 923.618 1185.76 924.751C1185.64 925.851 1184.67 926.653 1183.58 926.582L1183.48 926.574L1171.45 925.235C1170.32 925.109 1169.5 924.089 1169.63 922.956Z" fill="black"/>
<path fill-rule="evenodd" clip-rule="evenodd" d="M1176.26 974.404L1168.47 973.487C1168.47 973.487 1155.62 984.494 1150.11 975.321C1143.45 964.218 1156.08 960.645 1163.88 959.269C1171.68 957.893 1175.81 956.058 1175.81 956.058C1178.56 958.81 1177.16 957.99 1181.9 961.922C1186.95 966.111 1190.02 978.834 1184.63 980.94C1179.24 983.045 1176.26 974.404 1176.26 974.404ZM1208.38 949.637C1200.58 977.156 1195.08 960.645 1185.9 954.224C1180.84 950.685 1156.54 945.051 1149.65 955.6C1142.77 966.148 1141.39 965.69 1131.3 956.517C1121.21 947.344 1118.74 938.712 1118.45 927.622C1117.92 906.644 1115.17 907.552 1114.8 906.644C1114.68 908.538 1111.14 944.487 1112.03 956.058C1112.95 967.983 1130.84 1005.13 1164.79 1003.3C1198.75 1001.46 1207.01 970.735 1208.84 949.637" fill="#0F0F0F"/>
<path fill-rule="evenodd" clip-rule="evenodd" d="M308.273 1204.07C308.273 1204.07 219.262 1200.41 180.722 1265.99C142.181 1331.58 171.546 1404.5 171.546 1404.5L397.742 1404.96L349.107 1304.52L348.648 1210.5L308.273 1204.07Z" fill="#FC7750"/>
<path fill-rule="evenodd" clip-rule="evenodd" d="M367.689 1237.33L364.018 1403.81L290.608 1404.27C290.608 1404.27 282.808 1371.71 307.125 1307.5C331.443 1243.29 330.525 1217.15 330.525 1217.15L367.689 1237.33Z" fill="white"/>
<path fill-rule="evenodd" clip-rule="evenodd" d="M171.316 1404.27C171.316 1404.27 153.881 1406.11 135.529 1345.11C117.176 1284.11 83.4164 1266.64 52.4831 1264.39C32.0061 1262.9 18.6408 1254.89 15.7778 1237.33C12.4239 1216.78 74.5062 1218.98 110.294 1240.54C146.081 1262.09 157.878 1304.34 180.951 1340.98C204.022 1377.62 171.316 1404.27 171.316 1404.27Z" fill="#FC7750"/>
<path fill-rule="evenodd" clip-rule="evenodd" d="M408.753 1405.42H421.6C430.469 1405.42 437.659 1398.23 437.659 1389.37C437.659 1380.5 430.469 1373.31 421.6 1373.31H408.753C399.884 1373.31 392.695 1380.5 392.695 1389.37C392.695 1398.23 399.884 1405.42 408.753 1405.42Z" fill="white"/>
<path fill-rule="evenodd" clip-rule="evenodd" d="M421.6 1374C430.075 1374 436.97 1380.89 436.97 1389.37C436.97 1397.84 430.075 1404.73 421.6 1404.73H408.753C400.277 1404.73 393.383 1397.84 393.383 1389.37C393.383 1380.89 400.277 1374 408.753 1374H421.6ZM408.753 1406.11H421.6C430.834 1406.11 438.347 1398.6 438.347 1389.37C438.347 1380.14 430.834 1372.63 421.6 1372.63H408.753C399.519 1372.63 392.006 1380.14 392.006 1389.37C392.006 1398.6 399.519 1406.11 408.753 1406.11Z" fill="#FA933F"/>
<path fill-rule="evenodd" clip-rule="evenodd" d="M369.705 1380.59L370.263 1379.34C370.173 1379.3 361.215 1375.26 353.551 1366.35C346.506 1358.15 339.138 1344.03 344.042 1323.25L342.702 1322.93C337.658 1344.3 345.27 1358.85 352.543 1367.28C360.411 1376.41 369.329 1380.43 369.705 1380.59Z" fill="#FA933F"/>
<path fill-rule="evenodd" clip-rule="evenodd" d="M373.883 1406.34H386.73C395.598 1406.34 402.789 1399.15 402.789 1390.28C402.789 1381.42 395.598 1374.23 386.73 1374.23H373.883C365.014 1374.23 357.825 1381.42 357.825 1390.28C357.825 1399.15 365.014 1406.34 373.883 1406.34Z" fill="white"/>
<path fill-rule="evenodd" clip-rule="evenodd" d="M386.73 1374.92C395.205 1374.92 402.1 1381.81 402.1 1390.28C402.1 1398.76 395.205 1405.65 386.73 1405.65H373.883C365.407 1405.65 358.513 1398.76 358.513 1390.28C358.513 1381.81 365.407 1374.92 373.883 1374.92H386.73ZM373.883 1407.02H386.73C395.964 1407.02 403.477 1399.51 403.477 1390.28C403.477 1381.05 395.964 1373.54 386.73 1373.54H373.883C364.648 1373.54 357.136 1381.05 357.136 1390.28C357.136 1399.51 364.648 1407.02 373.883 1407.02Z" fill="#FA933F"/>
<path fill-rule="evenodd" clip-rule="evenodd" d="M277.532 1395.33L310.905 1377.02C310.905 1377.02 294.658 1357.87 293.436 1354.81C292.215 1351.76 287.626 1356.34 287.626 1356.34L277.532 1395.33Z" fill="#FC7750"/>
<path fill-rule="evenodd" clip-rule="evenodd" d="M312.697 1378.24L313.483 1377.11L313.09 1377.67L313.484 1377.11C313.379 1377.03 302.719 1369.33 280.179 1333.73C268.448 1315.21 246.097 1294.62 218.545 1292.41C198.475 1290.8 179.268 1299.67 163.003 1318.05L164.03 1318.96C180.002 1300.92 198.816 1292.21 218.435 1293.79C245.482 1295.95 267.463 1316.22 279.015 1334.47C301.769 1370.4 312.262 1377.93 312.697 1378.24Z" fill="#FDD4B8"/>
<path fill-rule="evenodd" clip-rule="evenodd" d="M300.931 1406.79H331.672C340.54 1406.79 347.73 1399.61 347.73 1390.74C347.73 1381.88 340.54 1374.69 331.672 1374.69H300.931C292.062 1374.69 284.873 1381.88 284.873 1390.74C284.873 1399.61 292.062 1406.79 300.931 1406.79Z" fill="white"/>
<path fill-rule="evenodd" clip-rule="evenodd" d="M331.672 1375.38C340.147 1375.38 347.042 1382.27 347.042 1390.74C347.042 1399.21 340.147 1406.11 331.672 1406.11H300.931C292.456 1406.11 285.561 1399.21 285.561 1390.74C285.561 1382.27 292.456 1375.38 300.931 1375.38H331.672ZM300.931 1407.48H331.672C340.906 1407.48 348.419 1399.97 348.419 1390.74C348.419 1381.51 340.906 1374 331.672 1374H300.931C291.697 1374 284.185 1381.51 284.185 1390.74C284.185 1399.97 291.697 1407.48 300.931 1407.48Z" fill="#FA933F"/>
<path fill-rule="evenodd" clip-rule="evenodd" d="M368.148 1257.51C368.148 1257.51 330.066 1265.76 305.29 1244.21C280.514 1222.65 285.102 1203.39 285.102 1203.39L304.602 1202.24L368.836 1240.31L368.377 1252.23L368.148 1257.51Z" fill="#E93737"/>
<path fill-rule="evenodd" clip-rule="evenodd" d="M358.513 1262.32C358.513 1267.26 362.518 1271.27 367.46 1271.27C372.401 1271.27 376.407 1267.26 376.407 1262.32C376.407 1257.38 372.401 1253.38 367.46 1253.38C362.518 1253.38 358.513 1257.38 358.513 1262.32Z" fill="#E93737"/>
<path fill-rule="evenodd" clip-rule="evenodd" d="M365.558 1148.74L346.726 1121.75L347.567 1149.22L365.558 1148.74Z" fill="white"/>
<path fill-rule="evenodd" clip-rule="evenodd" d="M335.573 1153.61L346.727 1121.75L347.433 1149.27L335.573 1153.61Z" fill="#FC7750"/>
<path fill-rule="evenodd" clip-rule="evenodd" d="M320.761 1156.63L287.627 1150.89L307.221 1170.18L320.761 1156.63Z" fill="white"/>
<path fill-rule="evenodd" clip-rule="evenodd" d="M300.993 1182.16L287.626 1150.89L307.147 1170.31L300.993 1182.16Z" fill="#FC7750"/>
<path fill-rule="evenodd" clip-rule="evenodd" d="M298.408 1195.82C298.408 1223.3 320.695 1245.58 348.189 1245.58C375.683 1245.58 397.971 1223.3 397.971 1195.82C397.971 1168.34 375.683 1146.06 348.189 1146.06C320.695 1146.06 298.408 1168.34 298.408 1195.82Z" fill="#FC7750"/>
<path fill-rule="evenodd" clip-rule="evenodd" d="M370.277 1189.91L414.969 1188.48L414.925 1187.1L373.36 1188.43L400.328 1157.05L399.284 1156.16L370.277 1189.91Z" fill="#E93737"/>
<path fill-rule="evenodd" clip-rule="evenodd" d="M371.921 1190L404.497 1172.11L403.835 1170.91L371.259 1188.8L371.921 1190Z" fill="#E93737"/>
<path fill-rule="evenodd" clip-rule="evenodd" d="M309.145 1237.71L337.083 1202.81L292.67 1205.78L292.762 1207.15L334.054 1204.39L308.071 1236.85L309.145 1237.71Z" fill="#E93737"/>
<path fill-rule="evenodd" clip-rule="evenodd" d="M302.32 1219.52L336.172 1204.18L335.604 1202.93L301.752 1218.27L302.32 1219.52Z" fill="#E93737"/>
<path fill-rule="evenodd" clip-rule="evenodd" d="M361.663 1219.36L368.025 1216.73C374.349 1214.12 377.359 1206.88 374.749 1200.56C372.138 1194.24 364.895 1191.23 358.571 1193.84L352.21 1196.46C345.886 1199.07 342.875 1206.31 345.485 1212.63C348.097 1218.96 355.339 1221.97 361.663 1219.36Z" fill="#FCEBEC"/>
<path fill-rule="evenodd" clip-rule="evenodd" d="M360.776 1192.82L357.172 1201.17L348.967 1197.94L360.776 1192.82Z" fill="#E93737"/>
<path fill-rule="evenodd" clip-rule="evenodd" d="M353.883 1208.92C354.154 1208.92 354.409 1208.76 354.519 1208.5L357.303 1201.8L365.736 1202.99C366.112 1203.05 366.461 1202.79 366.514 1202.41C366.567 1202.03 366.305 1201.68 365.929 1201.63L356.441 1200.29L353.248 1207.97C353.103 1208.32 353.269 1208.73 353.62 1208.87C353.706 1208.91 353.796 1208.92 353.883 1208.92Z" fill="#E93737"/>
</svg>
