<svg width="435" height="385" viewBox="0 0 435 385" fill="none" xmlns="http://www.w3.org/2000/svg">
<g opacity="0.288">
<g opacity="0.288">
<path opacity="0.288" fill-rule="evenodd" clip-rule="evenodd" d="M55.7323 108.521C32.1556 146.71 41.3089 180.563 54.4841 206.412C67.798 232.176 85.1337 250.104 108.71 284.707C132.287 319.31 162.104 370.59 189.01 368.923C215.915 367.255 240.185 312.64 267.506 278.036C294.688 243.433 325.06 228.841 345.447 202.076C365.973 175.227 376.374 136.121 349.192 97.9318C321.871 59.6596 256.827 22.388 196.221 24.9728C135.615 27.641 79.3089 70.3325 55.7323 108.521Z" fill="#FFA721"/>
</g>
</g>
<path d="M326.88 187.247V220.399C326.88 223.314 324.494 225.748 321.594 225.825L321.451 225.827H288.3V245.331H321.451C335.049 245.331 346.16 234.357 346.38 220.81L346.384 220.399V187.247H326.88Z" fill="#0A1B45"/>
<path fill-rule="evenodd" clip-rule="evenodd" d="M318.199 202.573H330.411C356.869 202.573 378.517 180.925 378.517 154.467V121.652C378.517 95.1947 356.869 73.5469 330.411 73.5469H318.199C301.656 73.5469 288.122 87.0816 288.122 103.624V172.495C288.122 189.038 301.656 202.573 318.199 202.573Z" fill="#5A328E"/>
<path fill-rule="evenodd" clip-rule="evenodd" d="M251.614 359.104H256.615C258.816 359.104 260.616 356.78 260.616 353.938V246.747C260.616 243.905 258.816 241.581 256.615 241.581H251.614C249.414 241.581 247.614 243.905 247.614 246.747V353.938C247.614 356.78 249.414 359.104 251.614 359.104Z" fill="#55B0EB"/>
<path fill-rule="evenodd" clip-rule="evenodd" d="M247.613 366.605H254.115H260.616C260.616 366.605 305.625 373.907 305.625 370.606V369.106C305.625 365.805 302.924 363.105 299.624 363.105L260.616 353.103H254.115H247.613L208.606 363.105C205.305 363.105 202.604 365.805 202.604 369.106V370.606C202.604 373.907 247.613 366.605 247.613 366.605Z" fill="#0A1B45"/>
<path fill-rule="evenodd" clip-rule="evenodd" d="M250.075 311.094H258.153C261.708 311.094 264.616 309.719 264.616 308.039V244.636C264.616 242.956 261.708 241.581 258.153 241.581H250.075C246.521 241.581 243.612 242.956 243.612 244.636V308.039C243.612 309.719 246.521 311.094 250.075 311.094Z" fill="#55B0EB"/>
<path fill-rule="evenodd" clip-rule="evenodd" d="M206.477 251.581H301.753C309.383 251.581 315.627 245.337 315.627 237.706V230.448C315.627 222.817 309.383 216.574 301.753 216.574H206.477C198.846 216.574 192.602 222.817 192.602 230.448V237.706C192.602 245.337 198.846 251.581 206.477 251.581Z" fill="#5A328E"/>
<path fill-rule="evenodd" clip-rule="evenodd" d="M297.623 377.608C297.623 381.475 300.758 384.609 304.625 384.609C308.491 384.609 311.626 381.475 311.626 377.608C311.626 373.741 308.491 370.606 304.625 370.606C300.758 370.606 297.623 373.741 297.623 377.608Z" fill="#0A1B45"/>
<path fill-rule="evenodd" clip-rule="evenodd" d="M195.604 377.608C195.604 381.475 198.738 384.609 202.605 384.609C206.472 384.609 209.606 381.475 209.606 377.608C209.606 373.741 206.472 370.606 202.605 370.606C198.738 370.606 195.604 373.741 195.604 377.608Z" fill="#0A1B45"/>
<path fill-rule="evenodd" clip-rule="evenodd" d="M246.613 377.608C246.613 381.475 249.748 384.609 253.615 384.609C257.482 384.609 260.616 381.475 260.616 377.608C260.616 373.741 257.482 370.606 253.615 370.606C249.748 370.606 246.613 373.741 246.613 377.608Z" fill="#0A1B45"/>
<path fill-rule="evenodd" clip-rule="evenodd" d="M251.614 371.606H255.615L260.616 359.104C260.616 355.803 257.916 353.103 254.615 353.103H252.615C249.314 353.103 246.613 355.803 246.613 359.104L251.614 371.606Z" fill="#0A1B45"/>
<path fill-rule="evenodd" clip-rule="evenodd" d="M23.5004 316.869L53.0943 326.924C54.6861 327.465 56.3293 326.709 56.8033 325.189C60.8359 312.334 65.873 299.347 71.5059 287.148C77.073 275.13 83.4493 263.402 90.8127 252.75C97.2399 243.45 104.344 235.157 111.901 228.823C114.934 225.981 114.266 221.199 112.17 217.634C108.856 214.151 101.252 195.45 95.5159 195.648C87.5506 194.181 72.6037 214.373 67.1786 220.644C51.0513 241.648 39.0024 265.783 29.2761 290.74C26.5052 297.921 23.9449 305.158 21.6157 312.61C21.0558 314.406 21.9066 316.331 23.5004 316.869Z" fill="#EDB98A"/>
<path fill-rule="evenodd" clip-rule="evenodd" d="M223.611 169.343L245.853 195.326C246.672 196.957 244.54 199.191 243.198 200.204C212.351 218.871 176.395 209.299 143.666 219.143C104.04 228.538 84.2713 269.962 68.8716 307.359L22.5622 286.711C46.0832 227.907 69.8023 182.224 133.185 172.019C147.738 169.47 177.88 168.578 223.611 169.343Z" fill="#051026"/>
<path fill-rule="evenodd" clip-rule="evenodd" d="M22.4443 308.563L57.5604 321.597C58.9231 317.484 60.4011 313.351 61.9521 309.257L27.4164 294.591C25.6691 299.203 24.007 303.847 22.4443 308.563Z" fill="white"/>
<path fill-rule="evenodd" clip-rule="evenodd" d="M25.2788 300.593C27.674 301.566 36.312 305.076 44.3663 308.348C41.2475 315.355 56.3155 321.153 58.2891 314.005C59.3433 314.434 59.9521 314.681 59.9521 314.681C58.2046 319.614 56.5569 324.577 55.1151 329.599L3.44087 313.456C3.69299 312.569 4.19957 310.788 4.4657 309.915L5.42097 306.797C7.86375 301.695 22.1227 305.771 25.2788 300.593Z" fill="#0A1B45"/>
<path fill-rule="evenodd" clip-rule="evenodd" d="M129.481 378.58L160.527 378.608C162.197 378.608 163.552 377.206 163.559 375.459C163.946 337.749 164.588 299.631 169.316 262.367C169.978 255.493 174.098 246.93 166.165 243.542C166.083 243.063 145.787 236.927 145.056 236.425C142.853 235.729 140.559 236.097 138.665 237.413C131.123 241.854 130.356 284.051 128.994 294.534C127.28 321.547 126.614 348.302 126.465 375.298C126.457 377.106 127.811 378.58 129.481 378.58Z" fill="#EDB98A"/>
<path fill-rule="evenodd" clip-rule="evenodd" d="M254.413 169.659L302 169.566C301.455 212.377 297.367 219.14 268.704 219.14C224.322 219.14 190.2 220.531 178.58 247.882C175.041 256.211 166.404 306.137 169.698 353.103L119.464 352.018C121.087 316.865 120.508 248.407 135.836 218.639C144.995 204.87 159.705 195.431 173.778 188.448C190.098 180.131 216.976 173.868 254.413 169.659Z" fill="#0A1B45"/>
<path fill-rule="evenodd" clip-rule="evenodd" d="M126.464 372.342L163.8 372.609C163.831 367.514 163.891 362.403 163.972 357.296L126.64 356.605C126.558 361.849 126.497 367.091 126.464 372.342Z" fill="white"/>
<path fill-rule="evenodd" clip-rule="evenodd" d="M126.442 362.955C129.021 362.991 138.32 363.12 146.991 363.24C146.327 371.161 162.438 371.317 161.979 363.448C163.114 363.464 163.77 363.473 163.77 363.473C163.715 367.81 163.662 376.535 163.664 380.869L109.482 381.108L109.489 375.085C109.513 370.351 124.311 369.305 126.442 362.955Z" fill="#0A1B45"/>
<path fill-rule="evenodd" clip-rule="evenodd" d="M250.396 219.076H255.084C280.719 219.076 301.5 196.91 301.5 169.566H203.981C203.981 196.91 224.762 219.076 250.396 219.076Z" fill="#0A1B45"/>
<path d="M269.818 168.567L269.763 168.57C269.506 168.599 269.319 168.846 269.346 169.12C270.879 184.535 264.025 192.784 248.609 194.044L247.473 194.132C245.412 194.283 243.248 194.391 239.87 194.525L234.289 194.742C222.938 195.21 217.285 195.704 210.173 197.053L209.936 197.099C190.874 200.748 176.478 209.476 166.151 226.111C151.826 249.185 145.535 291.345 147.242 352.619C147.249 352.895 147.465 353.112 147.724 353.104C147.983 353.096 148.186 352.865 148.179 352.589C146.478 291.505 152.742 249.521 166.933 226.663C177.105 210.278 191.274 201.688 210.101 198.083L210.806 197.95C218.194 196.576 224.159 196.126 237.08 195.632L240.688 195.493C244.227 195.349 246.389 195.229 248.68 195.041C264.611 193.739 271.869 185.005 270.279 169.015C270.253 168.76 270.052 168.57 269.818 168.567Z" fill="white"/>
<path fill-rule="evenodd" clip-rule="evenodd" d="M205.875 106.113L205.627 106.071C198.928 104.983 191.934 107.708 188.424 113.66C176.684 133.034 160.641 155.005 136.525 155.227C126.369 155.105 116.364 151.802 107.005 147.804C101.165 145.427 95.5001 141.579 89.9415 139.247C79.8606 133.304 68.1666 127.303 57.7162 125.431L57.2431 125.349L56.9634 125.299L56.682 125.251C47.4659 123.69 35.7898 124.708 41.0435 131.33C41.9031 131.873 45.2023 133.011 49.0915 134.587L49.2351 134.646C45.1672 135.869 42.4032 138.498 44.0439 141.93C47.6098 147.272 53.7369 140.058 61.9639 141.654C61.9809 141.67 61.9977 141.686 62.0145 141.701C64.2085 143.712 65.5448 146.057 65.22 148.855C64.8414 152.073 63.3197 153.593 61.3366 154.201C57.6549 155.488 51.4686 152.016 49.8298 157.039C47.9362 161.98 53.9039 162.963 57.6448 164.145C63.4786 165.867 71.9777 167.23 76.7228 169.802L76.9874 169.949C77.0603 169.964 77.1333 169.976 77.2064 169.985L77.4965 170.143C78.5688 170.722 79.6808 171.25 80.8186 171.725C87.1073 175.092 93.8558 178.259 100.583 180.809C107.229 183.366 114.227 185.455 121.357 186.757L121.906 186.856C132.886 188.797 144.165 188.857 154.941 185.872C176.732 179.917 193.957 163.664 206.84 145.884C215.33 134.082 228.156 117.359 210.243 107.473C208.831 106.827 207.361 106.375 205.875 106.113Z" fill="#D29863"/>
<path fill-rule="evenodd" clip-rule="evenodd" d="M210.243 107.473C202.401 103.882 192.757 106.312 188.424 113.66C176.684 133.034 160.641 155.005 136.525 155.227C126.369 155.105 116.364 151.802 107.005 147.804C101.166 145.427 95.5007 141.58 89.9424 139.248C79.7089 133.214 67.8129 127.122 57.2431 125.349C47.9495 123.65 35.6826 124.573 41.0435 131.33C41.9136 131.879 45.2839 133.039 49.2353 134.646C45.1672 135.869 42.4032 138.498 44.0439 141.93C47.6098 147.272 53.7369 140.058 61.9639 141.654C64.188 143.676 65.5473 146.036 65.22 148.855C64.8414 152.073 63.3197 153.593 61.3366 154.201C57.6549 155.488 51.4686 152.016 49.8298 157.039C47.9362 161.98 53.9039 162.963 57.6448 164.145C63.5887 165.9 72.2993 167.281 76.9874 169.949C77.0603 169.964 77.1333 169.976 77.2064 169.985C78.3675 170.626 79.5777 171.207 80.8186 171.725C87.1073 175.092 93.8558 178.259 100.583 180.809C117.623 187.364 136.982 190.847 154.941 185.872C176.732 179.917 193.957 163.664 206.84 145.884C215.33 134.082 228.156 117.359 210.243 107.473Z" fill="#D29863"/>
<path fill-rule="evenodd" clip-rule="evenodd" d="M172.49 132.191C178.253 125.408 181.937 118.609 187.229 110.826C194.367 100.328 204.49 95.2869 218.308 97.2124C249.738 106.933 212.752 141.433 201.425 156.836L172.49 132.191Z" fill="#3F8FD4"/>
<path fill-rule="evenodd" clip-rule="evenodd" d="M283.497 95.5508H215.483C204.436 95.5508 195.479 104.507 195.479 115.555V171.066H303.501V115.555C303.501 104.507 294.545 95.5508 283.497 95.5508Z" fill="#55B0EB"/>
<path fill-rule="evenodd" clip-rule="evenodd" d="M272.495 95.5508C272.495 104.665 262.196 112.054 249.491 112.054C236.785 112.054 226.486 104.665 226.486 95.5508" fill="#EDB98A"/>
<path fill-rule="evenodd" clip-rule="evenodd" d="M406.858 3.50519C404.435 3.46165 402.409 5.20048 402.25 7.47875C402.053 10.2904 401.812 13.1097 401.525 15.9273L401.39 15.9157C398.972 15.7421 396.859 17.379 396.588 19.6205C396.889 24.4035 392.005 34.7039 396.916 37.328C396.827 37.8004 396.735 38.2672 396.642 38.7274C392.267 58.9735 386.34 81.1289 370.483 95.2722C352.54 109.574 326.608 105.966 305.102 100.87C296.741 98.7999 288.082 103.871 285.147 112.074C281.94 121.09 287.591 130.523 296.948 132.854C313.993 137.17 332.472 139.655 350.506 137.49C366.769 135.653 383.491 129.041 395.434 117.214C410.946 102.193 419.5 81.775 425.182 61.53C426.164 57.922 427.051 54.3164 427.854 50.7007C429.378 49.4769 430.4 47.203 430.521 45.1291C432.676 34.2324 434.116 23.3683 434.984 12.3926C435.194 9.74305 433.308 7.45959 430.825 7.31807C428.344 7.17904 426.211 9.14243 426.01 11.6914C425.798 14.3745 425.55 17.0528 425.264 19.7268C422.909 17.7373 419.947 16.4209 416.596 16.1079C414.501 15.9157 412.442 16.11 410.5 16.6342C410.789 13.7889 411.032 10.9402 411.231 8.09287C411.401 5.66639 409.477 3.61898 406.993 3.50946L406.858 3.50519Z" fill="#EDB98A"/>
<path fill-rule="evenodd" clip-rule="evenodd" d="M423.103 1.19612C430.834 1.75474 425.839 15.8771 426.128 21.0426C425.841 23.6046 423.576 25.417 421.107 25.0939C418.647 24.7718 416.905 22.5139 417.181 20.0464C417.721 15.2334 418.128 10.4065 418.404 5.569C418.545 3.094 420.617 1.13711 423.103 1.19612Z" fill="#EDB98A"/>
<path fill-rule="evenodd" clip-rule="evenodd" d="M415.13 0.00160044C422.847 0.309162 417.978 14.1119 418.287 19.1579C418.007 21.6489 415.77 23.4128 413.297 23.0982C406.116 22.3326 411.105 9.32046 410.466 4.16143C410.592 1.77245 412.647 -0.0619122 415.13 0.00160044Z" fill="#EDB98A"/>
<path fill-rule="evenodd" clip-rule="evenodd" d="M325.501 140.989C306.393 138.25 258.485 136.087 273.327 106.574C276.843 98.4994 274.765 95.5508 286.089 95.5508C303.502 95.5508 318.202 101.18 328.132 103.073L325.501 140.989Z" fill="#55B0EB"/>
<path fill-rule="evenodd" clip-rule="evenodd" d="M247.989 36.5405C233.074 36.5405 220.983 48.6313 220.983 63.5459V73.0478C220.983 87.9625 233.074 100.053 247.989 100.053H261.491C268.949 100.053 274.994 94.0078 274.994 86.5505V63.5459C274.994 48.6313 262.903 36.5405 247.989 36.5405Z" fill="black"/>
<path fill-rule="evenodd" clip-rule="evenodd" d="M261.49 73.0503H238.986V98.8719C238.986 105.826 244.023 111.463 250.238 111.463C256.453 111.463 261.49 105.826 261.49 98.8719V73.0503Z" fill="#EDB98A"/>
<path fill-rule="evenodd" clip-rule="evenodd" d="M237.96 89.0533H240.454C252.072 89.0533 261.49 79.6349 261.49 68.0166V58.1487C261.49 49.2544 254.28 42.0439 245.386 42.0439H242.588C233.694 42.0439 226.483 49.2544 226.483 58.1487V77.577C226.483 83.9153 231.621 89.0533 237.96 89.0533Z" fill="#EDB98A"/>
<path opacity="0.12" fill-rule="evenodd" clip-rule="evenodd" d="M250.613 90.2185C255.262 88.5742 257.581 84.4209 258.499 78.8345C254.863 84.8867 248.268 88.9591 240.715 89.0508L240.454 89.0524H238.986C242.955 91.1678 246.831 91.5565 250.613 90.2185Z" fill="black"/>
<path fill-rule="evenodd" clip-rule="evenodd" d="M255.49 71.2981C255.49 74.7503 258.288 77.5494 261.741 77.5494C265.194 77.5494 267.992 74.7503 267.992 71.2981C267.992 67.8459 265.194 65.0469 261.741 65.0469C258.288 65.0469 255.49 67.8459 255.49 71.2981Z" fill="#EDB98A"/>
<path d="M262.958 68.6323C262.506 68.6323 261.879 68.7367 261.237 69.058C260.163 69.5947 259.484 70.5761 259.439 71.9998L259.436 72.154H260.937C260.937 71.2362 261.287 70.7101 261.908 70.3999C262.138 70.2847 262.393 70.2083 262.648 70.1657C262.774 70.1448 262.872 70.1357 262.929 70.1333L262.958 70.1326V68.6323Z" fill="black"/>
<path fill-rule="evenodd" clip-rule="evenodd" d="M263.259 65.0481C264.746 63.6014 265.769 61.3917 266.459 58.829C267.126 56.3491 255.118 39.6957 247.388 39.6957C241.441 39.6957 235.473 39.4585 232.086 44.3464C226.484 52.2296 224.616 56.5104 226.483 57.1889C236.686 58.7969 243.986 56.4432 250.238 52.371C251.238 60.8727 257.99 65.0481 262.49 65.0481H263.259Z" fill="black"/>
<path fill-rule="evenodd" clip-rule="evenodd" d="M238.89 63.2444L237.415 62.9712L235.271 74.5481H240.209V73.0478L237.075 73.0475L238.89 63.2444Z" fill="black"/>
<path fill-rule="evenodd" clip-rule="evenodd" d="M244.528 74.3423C244.528 76.1798 242.657 77.8791 240.647 77.945L240.527 77.947V79.4473C243.326 79.4473 245.941 77.1639 246.026 74.477L246.028 74.3423H244.528Z" fill="black"/>
<path fill-rule="evenodd" clip-rule="evenodd" d="M243.072 57.0449V58.5452C245.059 58.5452 246.871 59.0781 248.473 59.9676C249.033 60.279 249.526 60.6121 249.946 60.9435L250.098 61.0657C250.237 61.1803 250.339 61.2713 250.402 61.3316L250.43 61.3592L251.491 60.2982C251.066 59.8729 250.292 59.2618 249.201 58.6561C247.462 57.69 245.497 57.0939 243.343 57.0478L243.072 57.0449Z" fill="black"/>
<path fill-rule="evenodd" clip-rule="evenodd" d="M237.041 57.2163C235.044 57.2163 233.228 57.7504 231.629 58.639C230.723 59.1425 230.063 59.6508 229.673 60.0242L229.603 60.0926L230.664 61.1534C230.727 61.0904 230.867 60.9646 231.08 60.7967C231.444 60.5094 231.871 60.2206 232.358 59.9505C233.681 59.2155 235.169 58.7613 236.796 58.7197L237.041 58.7166V57.2163Z" fill="black"/>
<path fill-rule="evenodd" clip-rule="evenodd" d="M249.269 65.5108C248.023 62.398 242.626 62.3601 241.861 65.5236L241.835 65.6422L243.306 65.9365C243.644 64.2482 247.014 64.2186 247.834 65.9723L247.876 66.0679L249.269 65.5108Z" fill="black"/>
<path fill-rule="evenodd" clip-rule="evenodd" d="M236.768 65.5108C235.522 62.398 230.125 62.3601 229.36 65.5236L229.334 65.6422L230.805 65.9365C231.143 64.2482 234.513 64.2186 235.333 65.9723L235.375 66.0679L236.768 65.5108Z" fill="black"/>
<path d="M45.4509 34.5376H173.977V143.059H45.4509V34.5376Z" fill="#BE6FFB"/>
<path d="M160.974 34.5376H173.977V143.059H160.974V34.5376Z" fill="#CCA4FF"/>
<path d="M124.966 163.563H226.486V171.065H124.966V163.563Z" fill="#C67BFF"/>
<path d="M192.48 163.563H226.486V171.065H192.48V163.563Z" fill="#F2E7FF"/>
<path d="M30.9471 170.566H290.999V189.57H30.9471V170.566Z" fill="#BE6FFB"/>
<path d="M203.982 170.566H290.999V189.57H203.982V170.566Z" fill="#CCA4FF"/>
<path d="M162.473 170.566H290.999V189.57H162.473V170.566Z" fill="#E4CEFF"/>
<path fill-rule="evenodd" clip-rule="evenodd" d="M282.998 189.568H265.994L310.003 384.607H319.005L282.998 189.568Z" fill="#CCA4FF"/>
<path fill-rule="evenodd" clip-rule="evenodd" d="M163.475 189.568H180.478L136.47 384.607H127.468L163.475 189.568Z" fill="#CCA4FF"/>
<path fill-rule="evenodd" clip-rule="evenodd" d="M36.4486 189.568H53.452L9.4432 384.607H0.441406L36.4486 189.568Z" fill="#CCA4FF"/>
<path d="M74.9556 76.0454H106.462V170.564H74.9556V76.0454Z" fill="#870CF7"/>
<path d="M97.4601 76.0454H106.462V170.564H97.4601V76.0454Z" fill="#CCA4FF"/>
</svg>
