<svg width="870" height="770" viewBox="0 0 870 770" fill="none" xmlns="http://www.w3.org/2000/svg">
<g opacity="0.288">
<g opacity="0.288">
<path opacity="0.288" fill-rule="evenodd" clip-rule="evenodd" d="M111.079 217.811C63.9355 294.173 82.2385 361.865 108.584 413.552C135.206 465.072 169.87 500.919 217.014 570.112C264.158 639.305 323.781 741.844 377.581 738.509C431.38 735.175 479.911 625.966 534.542 556.773C588.896 487.58 649.628 458.402 690.394 404.882C731.437 351.195 752.235 272.998 697.881 196.636C643.25 120.107 513.189 45.5782 392.001 50.7468C270.814 56.0822 158.223 141.448 111.079 217.811Z" fill="#FFA721"/>
</g>
</g>
<path d="M653.263 375.23V441.52C653.263 447.35 648.491 452.216 642.694 452.371L642.408 452.375H576.118V491.375H642.408C669.598 491.375 691.815 469.43 692.256 442.342L692.263 441.52V375.23H653.263Z" fill="#0A1B45"/>
<path fill-rule="evenodd" clip-rule="evenodd" d="M635.907 405.875H660.326C713.232 405.875 756.518 362.588 756.518 309.683V244.067C756.518 191.162 713.232 147.875 660.326 147.875H635.907C602.828 147.875 575.764 174.939 575.764 208.018V345.732C575.764 378.811 602.828 405.875 635.907 405.875Z" fill="#5A328E"/>
<path fill-rule="evenodd" clip-rule="evenodd" d="M502.764 718.875H512.764C517.164 718.875 520.764 714.227 520.764 708.545V494.205C520.764 488.523 517.164 483.875 512.764 483.875H502.764C498.364 483.875 494.764 488.523 494.764 494.205V708.545C494.764 714.227 498.364 718.875 502.764 718.875Z" fill="#55B0EB"/>
<path fill-rule="evenodd" clip-rule="evenodd" d="M494.764 733.875H507.764H520.764C520.764 733.875 610.764 748.475 610.764 741.875V738.875C610.764 732.275 605.364 726.875 598.764 726.875L520.764 706.875H507.764H494.764L416.764 726.875C410.164 726.875 404.764 732.275 404.764 738.875V741.875C404.764 748.475 494.764 733.875 494.764 733.875Z" fill="#0A1B45"/>
<path fill-rule="evenodd" clip-rule="evenodd" d="M499.686 622.875H515.84C522.948 622.875 528.763 620.125 528.763 616.765V489.985C528.763 486.625 522.948 483.875 515.84 483.875H499.686C492.579 483.875 486.763 486.625 486.763 489.985V616.765C486.763 620.125 492.579 622.875 499.686 622.875Z" fill="#55B0EB"/>
<path fill-rule="evenodd" clip-rule="evenodd" d="M412.507 503.875H603.021C618.279 503.875 630.764 491.391 630.764 476.132V461.618C630.764 446.359 618.279 433.875 603.021 433.875H412.507C397.248 433.875 384.764 446.359 384.764 461.618V476.132C384.764 491.391 397.248 503.875 412.507 503.875Z" fill="#5A328E"/>
<path fill-rule="evenodd" clip-rule="evenodd" d="M594.764 755.875C594.764 763.607 601.032 769.875 608.764 769.875C616.496 769.875 622.764 763.607 622.764 755.875C622.764 748.143 616.496 741.875 608.764 741.875C601.032 741.875 594.764 748.143 594.764 755.875Z" fill="#0A1B45"/>
<path fill-rule="evenodd" clip-rule="evenodd" d="M390.763 755.875C390.763 763.607 397.031 769.875 404.763 769.875C412.495 769.875 418.763 763.607 418.763 755.875C418.763 748.143 412.495 741.875 404.763 741.875C397.031 741.875 390.763 748.143 390.763 755.875Z" fill="#0A1B45"/>
<path fill-rule="evenodd" clip-rule="evenodd" d="M492.764 755.875C492.764 763.607 499.032 769.875 506.764 769.875C514.496 769.875 520.764 763.607 520.764 755.875C520.764 748.143 514.496 741.875 506.764 741.875C499.032 741.875 492.764 748.143 492.764 755.875Z" fill="#0A1B45"/>
<path fill-rule="evenodd" clip-rule="evenodd" d="M502.764 743.875H510.764L520.764 718.875C520.764 712.275 515.364 706.875 508.764 706.875H504.764C498.164 706.875 492.764 712.275 492.764 718.875L502.764 743.875Z" fill="#0A1B45"/>
<path fill-rule="evenodd" clip-rule="evenodd" d="M46.6306 634.421L105.807 654.527C108.99 655.607 112.275 654.097 113.223 651.056C121.287 625.352 131.359 599.383 142.623 574.989C153.754 550.958 166.505 527.508 181.228 506.207C194.08 487.612 208.286 471.029 223.397 458.363C229.462 452.681 228.126 443.119 223.933 435.989C217.308 429.025 202.103 391.631 190.633 392.027C174.705 389.093 144.818 429.468 133.97 442.009C101.722 484.009 77.6285 532.268 58.1799 582.172C52.6391 596.531 47.5195 611.003 42.862 625.904C41.7425 629.495 43.4438 633.345 46.6306 634.421Z" fill="#EDB98A"/>
<path fill-rule="evenodd" clip-rule="evenodd" d="M446.769 339.428L491.243 391.384C492.881 394.645 488.616 399.112 485.933 401.139C424.251 438.465 352.354 419.324 286.91 439.008C207.674 457.795 168.144 540.627 137.351 615.406L44.7502 574.118C91.7828 456.533 139.212 365.185 265.951 344.78C295.052 339.683 355.325 337.899 446.769 339.428Z" fill="#051026"/>
<path fill-rule="evenodd" clip-rule="evenodd" d="M44.5176 617.813L114.736 643.875C117.461 635.651 120.416 627.388 123.518 619.201L54.4599 589.875C50.9659 599.096 47.6425 608.383 44.5176 617.813Z" fill="white"/>
<path fill-rule="evenodd" clip-rule="evenodd" d="M50.1848 601.875C54.9742 603.821 72.2467 610.839 88.3522 617.383C82.1157 631.393 112.246 642.987 116.192 628.694C118.3 629.551 119.518 630.046 119.518 630.046C116.023 639.911 112.728 649.833 109.845 659.875L6.51758 627.596C7.02172 625.823 8.03468 622.261 8.56683 620.515L10.477 614.282C15.3616 604.079 43.8737 612.23 50.1848 601.875Z" fill="#0A1B45"/>
<path fill-rule="evenodd" clip-rule="evenodd" d="M258.548 757.819L320.629 757.875C323.968 757.875 326.678 755.071 326.691 751.578C327.466 676.174 328.749 599.952 338.203 525.438C339.526 511.694 347.765 494.572 331.903 487.797C331.737 486.84 291.155 474.57 289.692 473.566C285.288 472.174 280.7 472.91 276.913 475.54C261.832 484.421 260.299 568.798 257.576 589.761C254.148 643.775 252.815 697.275 252.518 751.257C252.503 754.872 255.209 757.818 258.548 757.819Z" fill="#EDB98A"/>
<path fill-rule="evenodd" clip-rule="evenodd" d="M508.363 340.06L603.518 339.875C602.427 425.478 594.254 439.002 536.939 439.002C448.192 439.002 379.963 441.784 356.727 496.475C349.651 513.13 332.38 612.962 338.966 706.875L238.518 704.705C241.765 634.414 240.606 497.526 271.255 438.001C289.57 410.468 318.983 391.594 347.125 377.631C379.758 361 433.503 348.476 508.363 340.06Z" fill="#0A1B45"/>
<path fill-rule="evenodd" clip-rule="evenodd" d="M252.518 745.341L327.174 745.875C327.236 735.687 327.356 725.468 327.518 715.255L252.87 713.875C252.705 724.359 252.582 734.842 252.518 745.341Z" fill="white"/>
<path fill-rule="evenodd" clip-rule="evenodd" d="M252.47 726.576C257.627 726.648 276.221 726.906 293.56 727.146C292.231 742.985 324.448 743.298 323.53 727.563C325.8 727.594 327.11 727.612 327.11 727.612C327.002 736.285 326.895 753.731 326.899 762.397L218.558 762.875L218.571 750.832C218.62 741.365 248.209 739.275 252.47 726.576Z" fill="#0A1B45"/>
<path fill-rule="evenodd" clip-rule="evenodd" d="M500.33 438.875H509.705C560.964 438.875 602.518 394.551 602.518 339.875H407.518C407.518 394.551 449.071 438.875 500.33 438.875Z" fill="#0A1B45"/>
<path d="M539.167 337.875L539.058 337.881C538.543 337.939 538.17 338.431 538.224 338.981C541.29 369.804 527.584 386.298 496.757 388.818L494.487 388.994C490.366 389.295 486.038 389.512 479.283 389.779L468.124 390.214C445.427 391.15 434.123 392.138 419.902 394.836L419.427 394.926C381.311 402.224 352.526 419.676 331.875 452.939C303.23 499.078 290.652 583.381 294.063 705.905C294.079 706.457 294.511 706.891 295.028 706.875C295.546 706.858 295.953 706.397 295.937 705.845C292.536 583.702 305.062 499.749 333.438 454.043C353.778 421.28 382.111 404.103 419.758 396.895L421.167 396.629C435.94 393.881 447.868 392.981 473.705 391.994L480.919 391.715C487.995 391.427 492.319 391.187 496.901 390.812C528.756 388.209 543.268 370.743 540.089 338.77C540.038 338.26 539.636 337.88 539.167 337.875Z" fill="white"/>
<path fill-rule="evenodd" clip-rule="evenodd" d="M411.3 212.99L410.804 212.906C397.41 210.73 383.424 216.179 376.406 228.081C352.931 266.822 320.851 310.754 272.629 311.198C252.32 310.955 232.314 304.35 213.599 296.356C201.923 291.602 190.595 283.908 179.48 279.246C159.322 267.361 135.939 255.362 115.042 251.619L114.096 251.455L113.537 251.355L112.974 251.258C94.5458 248.136 71.1983 250.173 81.7035 263.414C83.4223 264.499 90.0195 266.776 97.7963 269.928L98.0835 270.044C89.9492 272.49 84.4224 277.747 87.7031 284.611C94.8335 295.292 107.085 280.867 123.536 284.059C123.57 284.091 123.604 284.121 123.637 284.152C128.024 288.173 130.696 292.863 130.047 298.456C129.29 304.893 126.247 307.93 122.282 309.146C114.92 311.721 102.55 304.777 99.2727 314.821C95.4862 324.703 107.419 326.668 114.899 329.031C126.565 332.475 143.56 335.2 153.048 340.342L153.577 340.636C153.723 340.666 153.869 340.69 154.015 340.709L154.595 341.024C156.739 342.182 158.963 343.239 161.238 344.188C173.813 350.921 187.307 357.254 200.759 362.353C214.048 367.465 228.041 371.642 242.299 374.246L243.396 374.444C265.352 378.326 287.906 378.445 309.453 372.476C353.026 360.568 387.47 328.07 413.231 292.517C430.208 268.918 455.854 235.478 420.034 215.71C417.212 214.417 414.273 213.515 411.3 212.99Z" fill="#D29863"/>
<path fill-rule="evenodd" clip-rule="evenodd" d="M420.034 215.71C404.354 208.529 385.071 213.387 376.406 228.081C352.931 266.822 320.851 310.754 272.629 311.198C252.32 310.955 232.314 304.35 213.599 296.356C201.924 291.602 190.596 283.909 179.482 279.246C159.019 267.182 135.232 255 114.096 251.455C95.5129 248.058 70.9839 249.902 81.7035 263.414C83.4434 264.513 90.1826 266.832 98.0839 270.045C89.9492 272.49 84.4224 277.747 87.7031 284.611C94.8335 295.292 107.085 280.867 123.536 284.059C127.983 288.102 130.701 292.82 130.047 298.456C129.29 304.893 126.247 307.93 122.282 309.146C114.92 311.721 102.55 304.777 99.2727 314.821C95.4862 324.703 107.419 326.668 114.899 329.031C126.785 332.54 144.203 335.302 153.577 340.636C153.723 340.666 153.869 340.69 154.015 340.709C156.337 341.99 158.757 343.153 161.238 344.188C173.813 350.921 187.307 357.254 200.759 362.353C234.833 375.46 273.541 382.424 309.453 372.476C353.026 360.568 387.47 328.07 413.231 292.517C430.208 268.918 455.854 235.478 420.034 215.71Z" fill="#D29863"/>
<path fill-rule="evenodd" clip-rule="evenodd" d="M344.548 265.137C356.072 251.574 363.438 237.978 374.019 222.416C388.293 201.425 408.535 191.344 436.165 195.194C499.012 214.631 425.055 283.618 402.405 314.418L344.548 265.137Z" fill="#3F8FD4"/>
<path fill-rule="evenodd" clip-rule="evenodd" d="M566.518 191.875H430.518C408.426 191.875 390.518 209.784 390.518 231.875V342.875H606.518V231.875C606.518 209.784 588.609 191.875 566.518 191.875Z" fill="#55B0EB"/>
<path fill-rule="evenodd" clip-rule="evenodd" d="M544.518 191.875C544.518 210.1 523.923 224.875 498.518 224.875C473.112 224.875 452.518 210.1 452.518 191.875" fill="#EDB98A"/>
<path fill-rule="evenodd" clip-rule="evenodd" d="M813.189 7.81996C808.343 7.73289 804.293 11.2098 803.974 15.7655C803.581 21.3876 803.099 27.0251 802.524 32.6591L802.255 32.6361C797.419 32.2889 793.194 35.5621 792.654 40.0441C793.254 49.6082 783.489 70.2049 793.31 75.452C793.13 76.3966 792.946 77.3301 792.76 78.2504C784.013 118.734 772.161 163.036 740.453 191.317C704.574 219.915 652.721 212.701 609.717 202.511C592.999 198.371 575.683 208.512 569.814 224.914C563.403 242.943 574.702 261.804 593.413 266.466C627.495 275.095 664.445 280.065 700.507 275.735C733.026 272.063 766.463 258.842 790.344 235.192C821.363 205.156 838.468 164.328 849.829 123.846C851.794 116.632 853.568 109.422 855.172 102.192C858.219 99.745 860.263 95.1981 860.506 91.0512C864.814 69.2622 867.694 47.5382 869.43 25.5912C869.849 20.2932 866.078 15.7272 861.113 15.4442C856.153 15.1662 851.888 19.0922 851.485 24.1892C851.06 29.5543 850.565 34.9099 849.994 40.2568C845.285 36.2784 839.361 33.6462 832.66 33.0204C828.473 32.6361 824.354 33.0246 820.471 34.0728C821.049 28.3832 821.534 22.6869 821.933 16.9935C822.272 12.1415 818.426 8.04748 813.459 7.82848L813.189 7.81996Z" fill="#EDB98A"/>
<path fill-rule="evenodd" clip-rule="evenodd" d="M845.673 3.20182C861.132 4.31882 851.144 32.5578 851.721 42.8868C851.147 48.0098 846.618 51.6338 841.681 50.9878C836.762 50.3438 833.278 45.8288 833.83 40.8948C834.91 31.2708 835.725 21.6188 836.277 11.9458C836.558 6.99682 840.702 3.08382 845.673 3.20182Z" fill="#EDB98A"/>
<path fill-rule="evenodd" clip-rule="evenodd" d="M829.729 0.812282C845.16 1.42728 835.423 29.0273 836.041 39.1173C835.482 44.0983 831.008 47.6253 826.064 46.9963C811.704 45.4653 821.68 19.4463 820.402 9.13028C820.654 4.35328 824.765 0.685282 829.729 0.812282Z" fill="#EDB98A"/>
<path fill-rule="evenodd" clip-rule="evenodd" d="M650.508 282.733C612.298 277.257 516.503 272.932 546.18 213.917C553.211 197.771 549.056 191.875 571.699 191.875C606.517 191.875 635.912 203.13 655.768 206.916L650.508 282.733Z" fill="#55B0EB"/>
<path fill-rule="evenodd" clip-rule="evenodd" d="M495.518 73.875C465.694 73.875 441.518 98.0516 441.518 127.875V146.875C441.518 176.698 465.694 200.875 495.518 200.875H522.518C537.429 200.875 549.518 188.787 549.518 173.875V127.875C549.518 98.0516 525.341 73.875 495.518 73.875Z" fill="black"/>
<path fill-rule="evenodd" clip-rule="evenodd" d="M522.518 146.875H477.518V198.508C477.518 212.413 487.591 223.685 500.018 223.685C512.445 223.685 522.518 212.413 522.518 198.508V146.875Z" fill="#EDB98A"/>
<path fill-rule="evenodd" clip-rule="evenodd" d="M475.465 178.875H480.452C503.684 178.875 522.517 160.042 522.517 136.81V117.078C522.517 99.293 508.1 84.875 490.314 84.875H484.721C466.935 84.875 452.517 99.293 452.517 117.078V155.927C452.517 168.601 462.791 178.875 475.465 178.875Z" fill="#EDB98A"/>
<path opacity="0.12" fill-rule="evenodd" clip-rule="evenodd" d="M500.767 181.207C510.062 177.919 514.699 169.614 516.535 158.443C509.264 170.545 496.077 178.688 480.973 178.872L480.452 178.875H477.517C485.454 183.105 493.204 183.882 500.767 181.207Z" fill="black"/>
<path fill-rule="evenodd" clip-rule="evenodd" d="M510.518 143.375C510.518 150.278 516.114 155.875 523.018 155.875C529.922 155.875 535.518 150.278 535.518 143.375C535.518 136.472 529.922 130.875 523.018 130.875C516.114 130.875 510.518 136.472 510.518 143.375Z" fill="#EDB98A"/>
<path d="M525.451 138.043C524.546 138.043 523.294 138.252 522.009 138.895C519.862 139.968 518.505 141.93 518.414 144.777L518.409 145.085H521.409C521.409 143.25 522.11 142.198 523.351 141.578C523.811 141.348 524.32 141.195 524.831 141.11C525.083 141.068 525.279 141.05 525.393 141.045L525.451 141.043V138.043Z" fill="black"/>
<path fill-rule="evenodd" clip-rule="evenodd" d="M526.054 130.875C529.029 127.982 531.073 123.564 532.452 118.439C533.788 113.481 509.775 80.1805 494.318 80.1805C482.427 80.1805 470.493 79.7061 463.721 89.4801C452.519 105.243 448.785 113.803 452.517 115.16C472.919 118.375 487.517 113.669 500.018 105.526C502.018 122.526 515.518 130.875 524.518 130.875H526.054Z" fill="black"/>
<path fill-rule="evenodd" clip-rule="evenodd" d="M477.32 127.272L474.37 126.726L470.083 149.875H479.957V146.875L473.69 146.874L477.32 127.272Z" fill="black"/>
<path fill-rule="evenodd" clip-rule="evenodd" d="M488.596 149.461C488.596 153.136 484.854 156.534 480.836 156.665L480.595 156.669V159.669C486.192 159.669 491.422 155.103 491.591 149.731L491.596 149.461H488.596Z" fill="black"/>
<path fill-rule="evenodd" clip-rule="evenodd" d="M485.683 114.876V117.876C489.656 117.876 493.279 118.941 496.482 120.72C497.603 121.343 498.588 122.009 499.428 122.672L499.732 122.916C500.01 123.145 500.214 123.327 500.34 123.448L500.396 123.503L502.518 121.381C501.667 120.531 500.119 119.309 497.939 118.098C494.461 116.166 490.532 114.974 486.223 114.882L485.683 114.876Z" fill="black"/>
<path fill-rule="evenodd" clip-rule="evenodd" d="M473.622 115.22C469.63 115.22 465.999 116.288 462.8 118.064C460.988 119.071 459.669 120.088 458.889 120.834L458.749 120.971L460.871 123.092C460.997 122.966 461.277 122.715 461.702 122.379C462.43 121.805 463.285 121.227 464.257 120.687C466.903 119.217 469.878 118.309 473.132 118.226L473.622 118.22V115.22Z" fill="black"/>
<path fill-rule="evenodd" clip-rule="evenodd" d="M498.076 131.805C495.586 125.581 484.793 125.505 483.265 131.83L483.213 132.068L486.154 132.656C486.829 129.28 493.569 129.221 495.208 132.728L495.291 132.919L498.076 131.805Z" fill="black"/>
<path fill-rule="evenodd" clip-rule="evenodd" d="M473.076 131.805C470.586 125.581 459.793 125.505 458.265 131.83L458.213 132.068L461.154 132.656C461.829 129.28 468.569 129.221 470.208 132.728L470.291 132.919L473.076 131.805Z" fill="black"/>
<path d="M90.5176 69.875H347.518V286.875H90.5176V69.875Z" fill="#BE6FFB"/>
<path d="M321.518 69.875H347.518V286.875H321.518V69.875Z" fill="#CCA4FF"/>
<path d="M249.518 327.875H452.518V342.875H249.518V327.875Z" fill="#C67BFF"/>
<path d="M384.518 327.875H452.518V342.875H384.518V327.875Z" fill="#F2E7FF"/>
<path d="M61.5176 341.875H581.518V379.875H61.5176V341.875Z" fill="#BE6FFB"/>
<path d="M407.518 341.875H581.518V379.875H407.518V341.875Z" fill="#CCA4FF"/>
<path d="M324.518 341.875H581.518V379.875H324.518V341.875Z" fill="#E4CEFF"/>
<path fill-rule="evenodd" clip-rule="evenodd" d="M565.518 379.875H531.518L619.518 769.875H637.518L565.518 379.875Z" fill="#CCA4FF"/>
<path fill-rule="evenodd" clip-rule="evenodd" d="M326.518 379.875H360.518L272.518 769.875H254.518L326.518 379.875Z" fill="#CCA4FF"/>
<path fill-rule="evenodd" clip-rule="evenodd" d="M72.5176 379.875H106.518L18.5176 769.875H0.517578L72.5176 379.875Z" fill="#CCA4FF"/>
<path d="M149.518 152.875H212.518V341.875H149.518V152.875Z" fill="#870CF7"/>
<path d="M194.518 152.875H212.518V341.875H194.518V152.875Z" fill="#CCA4FF"/>
</svg>
