<svg width="3320" height="2920" viewBox="0 0 3320 2920" fill="none" xmlns="http://www.w3.org/2000/svg">
<g opacity="0.5">
<g opacity="0.5">
<path opacity="0.5" fill-rule="evenodd" clip-rule="evenodd" d="M1710.86 840.872C1512.06 840.872 1294.72 909.855 1165.49 1068.26C1105.77 1141.45 1075.87 1227.37 1075.78 1312.78C1075.73 1409.2 1113.69 1504.96 1189.75 1581.23C1260.1 1651.74 1349.92 1699.47 1441.67 1738.66L1451.79 1742.96C1462.13 1747.39 1472.65 1752.36 1479.17 1761.36C1484.07 1768.08 1486.21 1776.35 1488.06 1784.44L1488.41 1785.96C1507.74 1870.88 1543.24 1943.41 1590.63 2004.59H1590.67C1675.08 2113.6 1797.49 2186.51 1933.89 2229.18C2038.34 2261.88 2151.04 2276.88 2261.26 2276.88C2446.66 2276.88 2616.84 2233.44 2750.15 2160.96L2750.2 2160.91C2773.42 2148.37 2795.55 2134.84 2816.41 2120.55C2952.18 2027.54 3035.78 1900.5 3035.78 1760.45C3035.78 1493.47 2731.91 1273.79 2342.16 1246.82C2298.71 1017.4 2032.65 840.872 1710.86 840.872ZM2566.28 851.872C2498.62 851.872 2443.78 889.033 2443.78 934.872C2443.78 980.717 2498.62 1017.87 2566.28 1017.87C2633.94 1017.87 2688.78 980.717 2688.78 934.872C2688.78 889.033 2633.94 851.872 2566.28 851.872Z" fill="#FFF5F3"/>
</g>
</g>
<path opacity="0.5" d="M1683.78 2892.85C799.015 2892.85 81.7751 2866.88 81.7751 2834.85C81.7751 2802.81 799.015 2776.85 1683.78 2776.85C2568.54 2776.85 3285.78 2802.81 3285.78 2834.85C3285.78 2866.88 2568.54 2892.85 1683.78 2892.85Z" fill="#D5ECFF"/>
<path fill-rule="evenodd" clip-rule="evenodd" d="M3314.79 1299.61L364.015 1213.82L647.345 2577.22L3314.79 1299.61Z" fill="#DDB0C8"/>
<path fill-rule="evenodd" clip-rule="evenodd" d="M3314.79 1299.61L89.915 1036.72L339.895 1607.71L4.61523 2475.42L3314.79 1299.61Z" fill="#EECCDC"/>
<path fill-rule="evenodd" clip-rule="evenodd" d="M3314.09 1299.24L339.655 1607.34L4.41504 2474.97L3314.09 1299.24Z" fill="#FAEFF4"/>
<path fill-rule="evenodd" clip-rule="evenodd" d="M1836.98 584.608C1836.98 584.608 1843.21 665.606 1799.71 699.808C1760.25 730.84 1868.95 869.445 1965.01 848.587C2017.59 837.167 2012.2 690.199 2012.2 690.199C2012.2 690.199 1968.24 687.173 1976.06 619.739L1836.98 584.608Z" fill="#C26E5E"/>
<path fill-rule="evenodd" clip-rule="evenodd" d="M1924.83 656.956C1860.91 657.072 1810.37 621.24 1795.57 553.319C1777.62 558.483 1767.44 511.301 1770.66 495.348C1773.88 479.373 1791.64 486.302 1791.64 486.302C1791.64 486.302 1792.58 482.493 1793.06 478.395C1806.72 362.153 1884.33 357.166 1884.33 357.166C2026.85 347.156 2011.42 495.807 2008.04 535.156C2004.66 574.508 1986.63 656.836 1924.83 656.956Z" fill="#C26E5E"/>
<mask id="mask0_1253:6707" style="mask-type:alpha" maskUnits="userSpaceOnUse" x="2173" y="1024" width="479" height="453">
<path fill-rule="evenodd" clip-rule="evenodd" d="M2602.35 1024.57L2173.29 1077.25L2222.28 1476.18L2651.33 1423.5L2602.35 1024.57Z" fill="white"/>
</mask>
<g mask="url(#mask0_1253:6707)">
<path fill-rule="evenodd" clip-rule="evenodd" d="M2301.74 1061.48C2301.74 1061.48 2325.13 1190.25 2352.84 1206.16C2380.55 1222.08 2560.37 1250.03 2560.37 1250.03C2560.37 1250.03 2580.71 1351.35 2551.32 1344.05C2521.93 1336.75 2233.68 1331.6 2228.67 1314.63C2223.66 1297.66 2176.12 1100.24 2176.12 1100.24L2301.74 1061.48Z" fill="#C26E5E"/>
</g>
<path fill-rule="evenodd" clip-rule="evenodd" d="M1595.92 815.188C1561.81 887.415 1572.91 953.192 1545.52 978.04C1518.13 1002.89 1509.47 1034.39 1505.41 1074.28C1501.36 1114.17 1507.62 1092.26 1507.62 1092.26L1669.49 1176.5C1669.49 1176.5 1735.74 981.542 1727.01 1041.7C1718.29 1101.86 1710.88 1351.3 1727.73 1363.5C1744.58 1375.71 1893.33 1412.7 2021.24 1391.04C2133.32 1372.06 2235.81 1328.96 2234.8 1320.72C2232.64 1303.09 2182.72 1107.5 2182.72 1107.5L2311.33 1061.27C2311.33 1061.27 2267.81 798.699 2143.91 723.89C2143.91 723.89 2077.2 686.673 1999.83 679.443C1999.83 679.443 1983.74 730.015 1914.86 740.064C1845.99 750.113 1820.57 728.18 1799.98 703C1799.98 703 1630.02 742.962 1595.92 815.188Z" fill="#FC7750"/>
<path fill-rule="evenodd" clip-rule="evenodd" d="M2626.59 1231.12C2626.98 1231.05 2627.36 1231.02 2627.74 1230.99C2628.72 1230.9 2629.71 1230.9 2630.71 1231L2662.83 1234.04C2671.8 1234.89 2678.38 1242.84 2677.52 1251.81C2676.75 1259.9 2670.19 1266.04 2662.33 1266.52C2669.76 1268.63 2674.87 1275.79 2674.13 1283.75C2673.43 1291.1 2667.94 1296.85 2661.04 1298.21C2667.74 1300.73 2672.2 1307.51 2671.49 1314.98C2670.74 1323.07 2664.17 1329.21 2656.31 1329.69C2663.74 1331.79 2668.85 1338.96 2668.1 1346.92C2667.26 1355.88 2659.3 1362.45 2650.34 1361.6L2618.22 1358.56C2616.09 1358.36 2614.1 1357.74 2612.3 1356.83L2539.39 1341.91C2539.57 1339.94 2539.63 1337.83 2539.52 1335.54C2538.61 1316.17 2539.56 1268.05 2535.95 1246.81C2535.95 1246.81 2582.53 1221.95 2599.49 1203.91C2616.47 1185.87 2632.14 1148.65 2644.25 1156.55C2657.94 1165.5 2642.22 1212.52 2627.2 1230.41C2627 1230.65 2626.8 1230.9 2626.59 1231.12Z" fill="#C26E5E"/>
<path fill-rule="evenodd" clip-rule="evenodd" d="M1648.08 1166.07C1648.08 1166.07 1602.56 1311.25 1531.61 1272.83C1460.66 1234.4 1417.13 1182.76 1306.73 1062.79C1263.35 1015.66 1155.22 901.147 1178.22 888.438C1191.01 881.373 1284.23 952.044 1335.27 978.292C1350.3 986.025 1483.54 1087.87 1496.6 1088.01C1509.66 1088.15 1648.08 1166.07 1648.08 1166.07Z" fill="#C26E5E"/>
<path fill-rule="evenodd" clip-rule="evenodd" d="M1343.35 974.824C1343.35 974.824 1353.24 952.699 1301.4 914.009C1274.05 893.593 1248.88 841.756 1236.44 852.734C1224 863.713 1260.07 923.971 1260.07 923.971C1260.07 923.971 1227.14 900.803 1206 873.418C1184.85 846.035 1165.62 824.024 1165.62 824.024C1165.62 824.024 1150.62 816.809 1151.4 830.976C1152.18 845.144 1156.67 849.131 1156.67 849.131C1156.67 849.131 1145.68 847.935 1146.79 858.723C1147.91 869.509 1150.15 871.504 1150.15 871.504C1150.15 871.504 1142.01 871.618 1142.99 881.058C1143.96 890.496 1149.94 895.814 1149.94 895.814C1149.94 895.814 1144.05 897.922 1150.58 908.633C1157.11 919.343 1193.37 974.873 1216.12 991.432C1238.86 1007.99 1296.11 1034 1296.11 1034C1296.11 1034 1350.04 990.455 1343.35 974.824Z" fill="#C26E5E"/>
<path fill-rule="evenodd" clip-rule="evenodd" d="M1214.3 951.06C1213.59 950.666 1196.56 941.121 1176.66 916.375C1158.78 894.147 1153.35 896.402 1153.3 896.436C1153.3 896.435 1153.35 896.411 1153.43 896.338L1151.5 894.042C1151.73 893.847 1152.64 893.219 1154.41 893.391C1158.18 893.756 1165.5 897.715 1179 914.495C1198.53 938.784 1215.58 948.339 1215.75 948.432L1214.3 951.06Z" fill="black"/>
<path fill-rule="evenodd" clip-rule="evenodd" d="M1220.87 936.986C1220.82 936.952 1216 933.468 1202.91 924.419C1193.6 917.984 1181.22 902.602 1172.19 891.37C1168.12 886.313 1164.6 881.948 1162.35 879.607C1155.66 872.654 1150.17 872.881 1150.12 872.886L1149.88 869.895C1150.16 869.874 1156.74 869.448 1164.51 877.527C1166.86 879.963 1170.41 884.378 1174.52 889.489C1183.45 900.578 1195.66 915.764 1204.61 921.95C1217.74 931.023 1222.58 934.521 1222.63 934.555L1220.87 936.986Z" fill="black"/>
<path fill-rule="evenodd" clip-rule="evenodd" d="M1225.9 925.386C1225.72 925.26 1207.65 912.569 1194.78 899.467C1182.74 887.205 1172.03 869.934 1166.28 860.656L1164.96 858.524C1160.26 851.006 1156.81 850.397 1156.77 850.393L1157.08 847.409C1157.56 847.45 1161.97 848.072 1167.5 856.936L1168.83 859.076C1174.52 868.255 1185.11 885.34 1196.92 897.364C1209.6 910.272 1227.44 922.803 1227.62 922.928L1225.9 925.386Z" fill="black"/>
<path fill-rule="evenodd" clip-rule="evenodd" d="M1290.58 942.956C1290.48 942.879 1280.39 935.223 1272.93 933.633C1264.64 931.866 1258.99 925.24 1258.75 924.96L1261.04 923.026C1261.09 923.087 1266.29 929.151 1273.56 930.699C1281.68 932.431 1291.97 940.241 1292.4 940.571L1290.58 942.956Z" fill="black"/>
<path fill-rule="evenodd" clip-rule="evenodd" d="M1993.19 1519.09C1993.19 1519.09 2037.89 1532.29 2042.12 1524.5C2046.36 1516.72 2007.85 1566.6 2007.85 1566.6L1973.95 1552.59L1993.19 1519.09Z" fill="#C26E5E"/>
<path fill-rule="evenodd" clip-rule="evenodd" d="M1991.22 1519.34L1970.54 1555.34L2007.07 1570.44L2007.77 1569.53L2006.59 1568.61C2007.77 1569.53 2007.77 1569.53 2007.77 1569.53L2008.2 1568.97C2008.48 1568.61 2008.9 1568.08 2009.42 1567.4C2010.46 1566.06 2011.95 1564.14 2013.72 1561.86C2017.26 1557.31 2021.94 1551.32 2026.49 1545.58C2031.03 1539.83 2035.44 1534.34 2038.44 1530.78C2038.85 1530.29 2039.23 1529.84 2039.58 1529.43C2040.67 1528.96 2041.61 1528.27 2042.18 1527.24L1991.22 1519.34ZM2037.81 1526.89C2038.54 1526.06 2039.14 1525.41 2039.56 1525.01C2039.74 1524.84 2039.94 1524.66 2040.15 1524.52C2040.23 1524.46 2040.43 1524.34 2040.69 1524.26C2040.89 1524.2 2041.75 1524.02 2042.35 1524.78C2042.59 1525.08 2042.65 1525.39 2042.67 1525.58C2042.69 1525.77 2042.68 1525.93 2042.66 1526.02C2042.63 1526.22 2042.57 1526.38 2042.53 1526.49C2042.45 1526.72 2042.32 1526.98 2042.18 1527.24L2037.81 1526.89ZM2037.81 1526.89C2037.63 1526.95 2037.42 1527.01 2037.2 1527.06C2035.75 1527.4 2033.81 1527.53 2031.47 1527.46C2026.81 1527.32 2020.93 1526.42 2015.1 1525.26C2009.29 1524.11 2003.6 1522.71 1999.36 1521.6C1997.24 1521.04 1995.49 1520.56 1994.26 1520.22C1993.65 1520.05 1993.17 1519.91 1992.85 1519.81C1992.69 1519.77 1992.56 1519.73 1992.48 1519.71L1992.38 1519.68L1992.35 1519.67C1992.35 1519.67 1992.35 1519.67 1991.93 1521.11L1992.35 1519.67L1991.22 1519.34L2037.81 1526.89ZM1992.64 1522.88C1992.88 1522.94 1993.15 1523.02 1993.45 1523.11C1994.69 1523.45 1996.46 1523.94 1998.6 1524.5C2002.87 1525.62 2008.62 1527.04 2014.51 1528.21C2020.39 1529.37 2026.47 1530.31 2031.38 1530.46C2032.59 1530.49 2033.75 1530.48 2034.84 1530.41C2031.91 1533.95 2028.07 1538.75 2024.13 1543.72C2019.58 1549.47 2014.9 1555.46 2011.35 1560.02C2009.58 1562.3 2008.09 1564.22 2007.05 1565.57C2006.67 1566.05 2006.35 1566.46 2006.1 1566.79L1974.84 1553.88L1992.64 1522.88ZM2039.73 1525.42C2039.73 1525.42 2039.73 1525.42 2039.73 1525.42C2039.73 1525.41 2039.74 1525.41 2039.73 1525.42Z" fill="black"/>
<path fill-rule="evenodd" clip-rule="evenodd" d="M2335.95 1499.84C2335.95 1499.84 2402.78 1528.48 2360.16 1591.32C2317.53 1654.16 2137.39 1636.84 2137.39 1636.84L2130.03 1614.91C2130.03 1614.91 2295.94 1507.87 2335.95 1499.84Z" fill="#F0ECEC"/>
<path fill-rule="evenodd" clip-rule="evenodd" d="M2335.95 1499.84C2335.95 1499.84 2361.12 1501.94 2372.24 1529.12C2383.36 1556.3 2370.48 1591.12 2347.04 1605.14C2347.04 1605.14 2370.05 1531.07 2310.94 1508.95L2335.95 1499.84Z" fill="#E0D3CC"/>
<path fill-rule="evenodd" clip-rule="evenodd" d="M2329.79 1615.36C2329.79 1615.36 2301.8 1572.54 2291.7 1574.82C2281.6 1577.1 2171.62 1596.43 2160.24 1595.69L2125.37 1614.96L2134.73 1637.57C2134.73 1637.57 2275.12 1652.76 2329.79 1615.36Z" fill="#E7DADA"/>
<path fill-rule="evenodd" clip-rule="evenodd" d="M2289.17 1533.09C2289.17 1533.09 2304.63 1591.4 2292.87 1592.84C2281.11 1594.28 2269.88 1528.2 2270.66 1551.45C2271.44 1574.71 2273.49 1604.04 2264.75 1596.29C2256.02 1588.54 2263.96 1522.18 2259.51 1540.89C2255.06 1559.6 2255.11 1593.84 2244.31 1594.65C2233.51 1595.46 2244.13 1559.38 2238.38 1559.05C2232.63 1558.72 2226.97 1605.6 2216.57 1601.17C2206.16 1596.74 2219.48 1557.22 2210.94 1572.28C2202.41 1587.34 2201.36 1604.08 2191.9 1603.16C2182.45 1602.25 2190.48 1583.1 2195.03 1573.71C2199.59 1564.33 2281.91 1520.49 2284.97 1524.27C2288.03 1528.04 2289.17 1533.09 2289.17 1533.09Z" fill="#F9F9F9"/>
<mask id="mask1_1253:6707" style="mask-type:alpha" maskUnits="userSpaceOnUse" x="1402" y="1144" width="1185" height="560">
<path fill-rule="evenodd" clip-rule="evenodd" d="M2535.48 1144.66L1402.47 1283.77L1453.97 1703.19L2586.98 1564.08L2535.48 1144.66Z" fill="white"/>
</mask>
<g mask="url(#mask1_1253:6707)">
<path fill-rule="evenodd" clip-rule="evenodd" d="M2164.42 1607.57C2164.42 1607.57 2363.63 1522.39 2450.39 1434.41C2537.16 1346.43 2583.78 1265.46 2519.36 1188.77C2454.93 1112.09 2335.41 1191.12 2277.38 1225.75C2219.36 1260.38 2022.88 1323.4 1926.86 1334.95C1830.84 1346.49 1701.12 1355.15 1631.7 1343.43C1562.27 1331.72 1451.72 1314.67 1428.97 1399.98C1406.23 1485.29 1454.38 1560.34 1513.94 1580.53C1573.51 1600.72 1753.98 1637.73 1842.25 1621.18L1930.52 1604.63C1930.52 1604.63 1963.66 1557.49 1945.83 1496.88L2004.29 1529.15C2004.29 1529.15 2034.9 1524.87 2045.65 1519.4C2056.39 1513.93 2137.16 1656.07 2164.42 1607.57Z" fill="#56ACF6"/>
</g>
<path fill-rule="evenodd" clip-rule="evenodd" d="M2110.59 1621.45C2110.59 1621.45 2024.69 1665.73 2004.91 1682.17C1985.13 1698.61 1942.1 1715.83 1918.8 1703.64C1895.51 1691.45 1899.25 1616.26 1899.25 1616.26C1899.25 1616.26 1969.33 1591.05 1976.13 1578.79C1982.93 1566.54 2043.79 1521.19 2043.79 1521.19L2110.59 1621.45Z" fill="#C26E5E"/>
<path fill-rule="evenodd" clip-rule="evenodd" d="M1907.68 1621.14C1907.68 1621.14 1901.57 1609.75 1887.56 1614.06C1873.56 1618.38 1738.3 1619.93 1698.64 1613.91C1658.98 1607.88 1587.04 1694.04 1628.9 1743.39C1670.77 1792.74 1715.7 1761.27 1758.71 1752.36C1801.73 1743.45 1887.6 1745.36 1905.76 1736.9C1923.93 1728.44 1941.46 1714.87 1940.34 1701.52C1939.22 1688.16 1907.68 1621.14 1907.68 1621.14Z" fill="#F0ECEC"/>
<path fill-rule="evenodd" clip-rule="evenodd" d="M1709.45 1619.68C1709.45 1619.68 1656.38 1654.38 1650.87 1693.98C1645.35 1733.58 1653.87 1763.7 1653.87 1763.7C1653.87 1763.7 1597.17 1745.02 1620.36 1681.29C1643.56 1617.55 1690.98 1606.73 1708.7 1613.54C1726.42 1620.35 1709.45 1619.68 1709.45 1619.68Z" fill="#E0D3CC"/>
<path fill-rule="evenodd" clip-rule="evenodd" d="M1715.55 1617.62C1715.55 1617.62 1743.22 1651.51 1749.55 1677.71C1749.55 1677.71 1748.13 1683.08 1773.63 1679.43C1799.13 1675.78 1915.1 1634.99 1915.1 1634.99C1915.1 1634.99 1948.28 1693.26 1940.96 1710.25C1933.64 1727.25 1754.57 1718.62 1754.57 1718.62C1754.57 1718.62 1746.91 1715.4 1742.75 1719.55C1738.59 1723.69 1718.86 1759.39 1687.07 1770.01C1687.07 1770.01 1734.47 1736.65 1734.17 1700.36C1733.86 1664.07 1715.55 1617.62 1715.55 1617.62Z" fill="#EEDFD9"/>
<path fill-rule="evenodd" clip-rule="evenodd" d="M1888.48 1634.19C1888.48 1634.19 1891.21 1669.14 1900.25 1687.76C1909.28 1706.37 1916.88 1722.64 1905.17 1721.96C1893.46 1721.28 1871.71 1645.59 1877.54 1638.13C1883.38 1630.66 1887.21 1628.12 1888.48 1634.19Z" fill="white"/>
<path fill-rule="evenodd" clip-rule="evenodd" d="M1870.07 1640.6C1870.07 1640.6 1872.8 1675.56 1881.83 1694.17C1890.86 1712.78 1898.47 1729.05 1886.76 1728.37C1875.05 1727.7 1853.3 1652 1859.13 1644.54C1864.96 1637.08 1868.8 1634.53 1870.07 1640.6Z" fill="white"/>
<path fill-rule="evenodd" clip-rule="evenodd" d="M1803.24 1650.05C1803.24 1650.05 1805.61 1682.03 1814.44 1698.99C1823.27 1715.94 1830.69 1730.76 1819.01 1730.26C1807.32 1729.77 1786.38 1660.66 1792.28 1653.76C1798.18 1646.87 1802.04 1644.5 1803.24 1650.05Z" fill="white"/>
<path fill-rule="evenodd" clip-rule="evenodd" d="M1778.15 1657.05C1778.15 1657.05 1780.26 1686.92 1788.94 1702.69C1797.63 1718.46 1804.92 1732.25 1793.25 1731.88C1781.58 1731.51 1761.22 1667.11 1767.17 1660.62C1773.12 1654.12 1777 1651.88 1778.15 1657.05Z" fill="white"/>
<path fill-rule="evenodd" clip-rule="evenodd" d="M1759.52 1657.17C1759.52 1657.17 1757.36 1687.03 1763.72 1703.88C1770.08 1720.72 1775.34 1735.41 1763.84 1733.38C1752.34 1731.36 1741.33 1664.71 1748.14 1659.13C1754.95 1653.55 1759.11 1651.88 1759.52 1657.17Z" fill="white"/>
<path fill-rule="evenodd" clip-rule="evenodd" d="M1846.56 1645.75C1846.56 1645.75 1852.86 1680.25 1863.75 1697.84C1874.64 1715.43 1883.86 1730.83 1872.15 1731.36C1860.43 1731.88 1831.05 1658.81 1836.09 1650.79C1841.13 1642.77 1844.68 1639.84 1846.56 1645.75Z" fill="white"/>
<path fill-rule="evenodd" clip-rule="evenodd" d="M1836.46 1646.34C1836.46 1646.34 1833.74 1681.3 1839.77 1701.08C1845.81 1720.87 1850.79 1738.12 1839.33 1735.64C1827.87 1733.15 1818.13 1655 1825.05 1648.53C1831.97 1642.07 1836.15 1640.15 1836.46 1646.34Z" fill="white"/>
<path fill-rule="evenodd" clip-rule="evenodd" d="M1912.64 1632.93C1912.64 1632.93 1881.37 1643.88 1892.78 1681.93C1904.2 1719.97 1943.23 1704.06 1943.23 1704.06C1943.23 1704.06 1944.95 1638.97 1912.64 1632.93Z" fill="white"/>
<path d="M2323.16 1237.58L2068.28 1494.84L2010.35 1528.08L1940.71 1495.72L1701.31 1382.46L1699.59 1386.07L1939.01 1499.35L2010.54 1532.58L2070.74 1498.04L2326 1240.4L2323.16 1237.58Z" fill="black"/>
<path fill-rule="evenodd" clip-rule="evenodd" d="M1931.25 1475.32C1931.25 1475.32 1978.83 1482.45 1994.32 1502.87C2009.8 1523.28 2010.35 1561.62 1974.46 1582.11C1938.58 1602.61 1924.87 1617.78 1931.51 1591.54C1938.15 1565.3 1950.39 1517.08 1931.25 1475.32Z" fill="#AFDEFF"/>
<path fill-rule="evenodd" clip-rule="evenodd" d="M2068.78 1488.02C2068.78 1488.02 2079.66 1538.58 2112.68 1575C2145.69 1611.43 2171.25 1612.44 2163.24 1623.29C2155.23 1634.13 2141.48 1640.49 2133.78 1653.89C2126.08 1667.29 2126.53 1666.72 2101.92 1643.79C2077.31 1620.86 2023.3 1569.89 2016.07 1519.4C2016.07 1519.4 2062.62 1471.65 2068.78 1488.02Z" fill="#AFDEFF"/>
<path fill-rule="evenodd" clip-rule="evenodd" d="M1900.46 591.5C1900.46 591.5 1919.53 614.346 1939.55 597.319L1900.46 591.5Z" fill="black"/>
<path fill-rule="evenodd" clip-rule="evenodd" d="M1979.6 517.042C1980.01 520.33 1977.67 523.324 1974.38 523.728C1971.09 524.132 1968.1 521.792 1967.69 518.504C1967.29 515.216 1969.63 512.221 1972.92 511.817C1976.21 511.414 1979.2 513.753 1979.6 517.042Z" fill="black"/>
<path fill-rule="evenodd" clip-rule="evenodd" d="M1848.56 498.042C1848.56 498.042 1862.59 487.04 1873.88 483.543C1880.86 481.384 1920.92 482.106 1920.65 490.29C1920.38 498.263 1916.37 497.687 1900.5 496.925C1884.63 496.161 1877.31 495.251 1868.44 497.326C1859.58 499.4 1849.37 502.626 1848.56 498.042Z" fill="black"/>
<path fill-rule="evenodd" clip-rule="evenodd" d="M2012.27 493.311C2012.27 493.311 2008.7 485.688 2003.96 482.396C1999.22 479.106 1966.07 474.815 1961.26 480.577C1953.62 489.733 1960.18 491.872 1977.74 491.541C1991.86 491.276 1997.43 491.082 2004.24 493.096C2013.54 495.847 2012.26 494.814 2012.27 493.311Z" fill="black"/>
<path d="M1946.77 486.009L1950.7 486.757L1950.47 487.987C1950.29 488.99 1950.1 490.136 1949.89 491.405C1949.3 495.035 1948.74 498.925 1948.27 502.915C1947.74 507.352 1947.34 511.639 1947.12 515.669L1947.06 516.862C1946.56 527.102 1947.26 534.79 1949.3 538.719L1949.42 538.941C1960.91 559.658 1950.3 572.182 1924.24 567.525L1923.44 567.378L1924.19 563.449C1947.7 567.911 1955.77 558.64 1945.93 540.881C1943.22 535.993 1942.46 527.224 1943.12 515.446C1943.35 511.325 1943.76 506.956 1944.3 502.441C1944.73 498.84 1945.22 495.324 1945.75 492L1945.94 490.763C1946.06 490.026 1946.18 489.33 1946.29 488.678L1946.58 487.026L1946.77 486.009Z" fill="black"/>
<path d="M1867.4 649.922L1868.92 646.22L1869.67 646.52L1870.36 646.786C1871.41 647.183 1872.6 647.617 1873.92 648.077L1874.5 648.275C1878.94 649.801 1883.82 651.274 1889 652.573C1900.9 655.559 1912.49 657.171 1923.06 656.858C1927.85 656.717 1932.33 656.177 1936.48 655.21L1937.3 655.011L1938.27 658.892C1933.6 660.058 1928.56 660.698 1923.18 660.857C1912.2 661.181 1900.25 659.521 1888.02 656.453C1882.73 655.125 1877.74 653.62 1873.2 652.058L1871.48 651.456C1870.75 651.195 1870.06 650.944 1869.42 650.703L1868.22 650.248L1867.4 649.922Z" fill="black"/>
<path fill-rule="evenodd" clip-rule="evenodd" d="M1905.05 517.945C1904.33 518.033 1903.57 517.863 1902.94 517.408C1902.9 517.379 1897.45 513.622 1890.39 514.756C1883.09 515.928 1878.67 520.114 1878.62 520.155C1877.43 521.299 1875.53 521.27 1874.39 520.085C1873.24 518.899 1873.26 517.014 1874.44 515.859C1874.67 515.633 1880.18 510.319 1889.44 508.832C1898.98 507.312 1906.13 512.312 1906.42 512.526C1907.77 513.489 1908.09 515.363 1907.12 516.711C1906.61 517.423 1905.85 517.846 1905.05 517.945Z" fill="black"/>
<mask id="mask2_1253:6707" style="mask-type:alpha" maskUnits="userSpaceOnUse" x="1775" y="147" width="234" height="179">
<path fill-rule="evenodd" clip-rule="evenodd" d="M1775.86 173.996L1989.84 147.722L2008.44 299.169L1794.45 325.443L1775.86 173.996Z" fill="white"/>
</mask>
<g mask="url(#mask2_1253:6707)">
<path fill-rule="evenodd" clip-rule="evenodd" d="M1970.53 301.869C1970.53 301.869 1965.35 293.005 1987.2 289.284C2009.06 285.562 2012.23 239.504 1978.08 223.456C1943.94 207.409 1975.62 182.241 1923.97 163.153C1872.32 144.064 1854.2 195.074 1854.2 195.074C1854.2 195.074 1800.62 181.412 1787.75 224.51C1774.88 267.608 1807.56 280.203 1807.56 280.203C1807.56 280.203 1788.81 296.518 1807.24 311.381C1825.67 326.244 1867.52 302.073 1875.96 310.294C1884.4 318.514 1970.53 301.869 1970.53 301.869Z" fill="#9B5120"/>
</g>
<path fill-rule="evenodd" clip-rule="evenodd" d="M1824.67 329.29C1824.67 329.29 1836.64 298.886 1873.12 291.703C1909.61 284.52 1927.73 295.566 1934.55 315.799C1941.36 336.032 1824.67 329.29 1824.67 329.29Z" fill="white"/>
<mask id="mask3_1253:6707" style="mask-type:alpha" maskUnits="userSpaceOnUse" x="1744" y="296" width="277" height="251">
<path fill-rule="evenodd" clip-rule="evenodd" d="M1744.97 327.205L1993.62 296.675L2020.59 516.318L1771.94 546.848L1744.97 327.205Z" fill="white"/>
</mask>
<g mask="url(#mask3_1253:6707)">
<path fill-rule="evenodd" clip-rule="evenodd" d="M1791.37 521.957C1791.37 521.957 1789.02 515.499 1797.61 505.103C1806.19 494.708 1797.4 452.712 1819.47 442.218C1841.53 431.724 1875.05 387.649 1892.94 385.452C1910.83 383.255 1943.52 395.848 1955.66 393.319C1967.81 390.79 1987.18 413.322 1989.77 425.978C1992.37 438.634 2011.93 459.444 2008.52 517.8C2008.52 517.8 2018.24 497.215 2015.48 474.719C2012.72 452.223 2009.02 447.487 2006.6 415.09C2004.18 382.691 1996.52 349.898 1971.12 337.448C1945.72 324.997 1927.44 298.699 1892.02 310.313C1856.6 321.928 1827.41 316.689 1808.76 342.333C1795.04 361.195 1772.91 375.798 1772.06 411.191C1771.28 444.165 1746.82 462.371 1776.6 494.097C1776.6 494.097 1789.99 510.709 1791.37 521.957Z" fill="#9B5120"/>
</g>
<path fill-rule="evenodd" clip-rule="evenodd" d="M1827.02 326.644C1827.02 326.644 1830.34 297.765 1874.64 289.303C1918.94 280.841 1930 299.013 1934.03 314.445C1934.03 314.445 1914.17 304.423 1891.27 312.361C1868.37 320.298 1841.5 320.089 1827.02 326.644Z" fill="#56ACF6"/>
</svg>
