<svg width="46" height="46" viewBox="0 0 46 46" fill="none" xmlns="http://www.w3.org/2000/svg">
<g clip-path="url(#clip0)">
<path fill-rule="evenodd" clip-rule="evenodd" d="M0.612061 23.1257C0.612061 34.312 8.73644 43.6139 19.3621 45.5001V29.2495H13.7371V23.0001H19.3621V17.9995C19.3621 12.3745 22.9864 9.25075 28.1127 9.25075C29.7364 9.25075 31.4877 9.50012 33.1114 9.7495V15.5001H30.2371C27.4864 15.5001 26.8621 16.8745 26.8621 18.6257V23.0001H32.8621L31.8627 29.2495H26.8621V45.5001C37.4877 43.6139 45.6121 34.3139 45.6121 23.1257C45.6121 10.6814 35.4871 0.500122 23.1121 0.500122C10.7371 0.500122 0.612061 10.6814 0.612061 23.1257Z" fill="white"/>
</g>
<defs>
<clipPath id="clip0">
<rect width="45" height="45" fill="white" transform="translate(0.612061 0.500122)"/>
</clipPath>
</defs>
</svg>
