<svg width="692" height="500" viewBox="0 0 692 500" fill="none" xmlns="http://www.w3.org/2000/svg">
<g clip-path="url(#clip0)">
<path d="M622.705 321.643H216.705C214.981 321.643 213.327 322.327 212.108 323.546C210.889 324.765 210.205 326.419 210.205 328.143C210.205 329.867 210.889 331.52 212.108 332.739C213.327 333.958 214.981 334.643 216.705 334.643H228.205V490.144C228.205 491.868 228.889 493.521 230.108 494.74C231.327 495.959 232.981 496.644 234.705 496.644C236.429 496.644 238.082 495.959 239.301 494.74C240.52 493.521 241.205 491.868 241.205 490.144L241.303 334.643H597.205V490.144C597.205 491.868 597.889 493.521 599.108 494.74C600.327 495.959 601.981 496.644 603.705 496.644C605.429 496.644 607.082 495.959 608.301 494.74C609.52 493.521 610.205 491.868 610.205 490.144V338.07L612.096 334.643H622.705C624.429 334.643 626.082 333.958 627.301 332.739C628.52 331.52 629.205 329.867 629.205 328.143C629.205 326.419 628.52 324.765 627.301 323.546C626.082 322.327 624.429 321.643 622.705 321.643V321.643Z" fill="#292929"/>
<path d="M441.794 325.046H318.812C316.431 325.043 314.148 324.096 312.464 322.412C310.78 320.728 309.833 318.445 309.831 316.064V248.354C309.833 245.973 310.78 243.69 312.464 242.006C314.148 240.322 316.431 239.375 318.812 239.373H441.794C444.175 239.375 446.458 240.322 448.142 242.006C449.826 243.69 450.773 245.973 450.776 248.354V316.064C450.773 318.445 449.826 320.728 448.142 322.412C446.458 324.096 444.175 325.043 441.794 325.046V325.046Z" fill="#5755CC"/>
<path d="M441.794 246.284H318.813C318.264 246.285 317.739 246.504 317.351 246.892C316.963 247.28 316.744 247.806 316.743 248.354V316.065C316.744 316.613 316.963 317.139 317.351 317.527C317.739 317.915 318.264 318.133 318.813 318.135H441.794C442.342 318.133 442.868 317.915 443.256 317.527C443.644 317.139 443.862 316.613 443.863 316.065V248.354C443.862 247.806 443.644 247.28 443.256 246.892C442.868 246.504 442.342 246.285 441.794 246.284V246.284Z" fill="white"/>
<path d="M452.158 316.755H439.031C439.031 316.388 438.885 316.037 438.626 315.778C438.367 315.519 438.016 315.373 437.649 315.373H433.504C433.137 315.373 432.786 315.519 432.527 315.778C432.267 316.037 432.122 316.388 432.122 316.755H427.976C427.976 316.388 427.831 316.037 427.572 315.778C427.313 315.519 426.961 315.373 426.595 315.373H422.449C422.083 315.373 421.731 315.519 421.472 315.778C421.213 316.037 421.067 316.388 421.067 316.755H416.922C416.922 316.388 416.776 316.037 416.517 315.778C416.258 315.519 415.906 315.373 415.54 315.373H411.395C411.028 315.373 410.677 315.519 410.418 315.778C410.158 316.037 410.013 316.388 410.013 316.755H405.867C405.867 316.388 405.722 316.037 405.463 315.778C405.203 315.519 404.852 315.373 404.485 315.373H400.34C399.974 315.373 399.622 315.519 399.363 315.778C399.104 316.037 398.958 316.388 398.958 316.755H394.813C394.813 316.388 394.667 316.037 394.408 315.778C394.149 315.519 393.797 315.373 393.431 315.373H389.285C388.919 315.373 388.568 315.519 388.308 315.778C388.049 316.037 387.904 316.388 387.904 316.755H383.758C383.758 316.388 383.613 316.037 383.353 315.778C383.094 315.519 382.743 315.373 382.376 315.373H378.231C377.864 315.373 377.513 315.519 377.254 315.778C376.995 316.037 376.849 316.388 376.849 316.755H372.704C372.704 316.388 372.558 316.037 372.299 315.778C372.04 315.519 371.688 315.373 371.322 315.373H367.176C366.81 315.373 366.458 315.519 366.199 315.778C365.94 316.037 365.795 316.388 365.795 316.755H361.649C361.649 316.388 361.504 316.037 361.244 315.778C360.985 315.519 360.634 315.373 360.267 315.373H356.122C355.755 315.373 355.404 315.519 355.145 315.778C354.886 316.037 354.74 316.388 354.74 316.755H350.595C350.595 316.388 350.449 316.037 350.19 315.778C349.931 315.519 349.579 315.373 349.213 315.373H345.067C344.701 315.373 344.349 315.519 344.09 315.778C343.831 316.037 343.685 316.388 343.685 316.755H339.54C339.54 316.388 339.394 316.037 339.135 315.778C338.876 315.519 338.525 315.373 338.158 315.373H334.013C333.646 315.373 333.295 315.519 333.036 315.778C332.777 316.037 332.631 316.388 332.631 316.755H328.485C328.485 316.388 328.34 316.037 328.081 315.778C327.822 315.519 327.47 315.373 327.104 315.373H322.958C322.592 315.373 322.24 315.519 321.981 315.778C321.722 316.037 321.576 316.388 321.576 316.755H308.449C307.351 316.757 306.298 317.194 305.522 317.971C304.746 318.749 304.31 319.802 304.31 320.9C304.31 321.999 304.746 323.052 305.522 323.829C306.298 324.607 307.351 325.044 308.449 325.046H452.158C453.258 325.046 454.312 324.609 455.09 323.832C455.867 323.054 456.304 322 456.304 320.9C456.304 319.801 455.867 318.747 455.09 317.969C454.312 317.192 453.258 316.755 452.158 316.755V316.755Z" fill="#3F3D56"/>
<path d="M287.079 292.681V320.207H218.117C216.269 320.271 214.427 319.963 212.702 319.3C210.976 318.637 209.401 317.634 208.071 316.349C206.741 315.065 205.684 313.526 204.961 311.824C204.239 310.122 203.867 308.292 203.867 306.444C203.867 304.595 204.239 302.765 204.961 301.063C205.684 299.361 206.741 297.822 208.071 296.538C209.401 295.254 210.976 294.25 212.702 293.587C214.427 292.925 216.269 292.616 218.117 292.681H287.079Z" fill="#F2F2F2"/>
<path d="M288.773 319.994C288.773 320.275 288.662 320.544 288.463 320.743C288.265 320.941 287.995 321.053 287.715 321.053H216.889C213.042 321.053 209.353 319.525 206.633 316.805C203.913 314.085 202.385 310.396 202.385 306.549C202.385 302.702 203.913 299.013 206.633 296.293C209.353 293.573 213.042 292.045 216.889 292.045H287.715C287.995 292.045 288.265 292.156 288.463 292.355C288.662 292.554 288.773 292.823 288.773 293.104C288.773 293.384 288.662 293.654 288.463 293.852C288.265 294.051 287.995 294.162 287.715 294.162H216.889C213.606 294.165 210.458 295.472 208.137 297.794C205.817 300.117 204.513 303.266 204.513 306.549C204.513 309.832 205.817 312.981 208.137 315.304C210.458 317.626 213.606 318.933 216.889 318.936H287.715C287.995 318.936 288.264 319.047 288.463 319.246C288.662 319.444 288.773 319.714 288.773 319.994V319.994Z" fill="#5755CC"/>
<path d="M287.079 299.032H212.971C212.944 299.033 212.916 299.027 212.89 299.017C212.864 299.006 212.841 298.991 212.821 298.971C212.801 298.951 212.785 298.928 212.775 298.902C212.764 298.876 212.758 298.849 212.758 298.821C212.758 298.793 212.764 298.765 212.775 298.739C212.785 298.713 212.801 298.69 212.821 298.67C212.841 298.651 212.864 298.635 212.89 298.625C212.916 298.614 212.944 298.609 212.971 298.609H287.079C287.135 298.609 287.189 298.632 287.228 298.671C287.267 298.711 287.29 298.765 287.29 298.821C287.29 298.877 287.267 298.93 287.228 298.97C287.189 299.01 287.135 299.032 287.079 299.032V299.032Z" fill="#CCCCCC"/>
<path d="M287.079 304.114H212.971C212.944 304.114 212.916 304.109 212.89 304.098C212.864 304.088 212.841 304.072 212.821 304.052C212.801 304.033 212.785 304.009 212.775 303.983C212.764 303.958 212.758 303.93 212.758 303.902C212.758 303.874 212.764 303.847 212.775 303.821C212.785 303.795 212.801 303.772 212.821 303.752C212.841 303.732 212.864 303.717 212.89 303.706C212.916 303.696 212.944 303.69 212.971 303.69H287.079C287.135 303.691 287.189 303.713 287.228 303.753C287.267 303.793 287.29 303.846 287.29 303.902C287.29 303.958 287.267 304.012 287.228 304.051C287.189 304.091 287.135 304.113 287.079 304.114V304.114Z" fill="#CCCCCC"/>
<path d="M287.079 309.195H212.971C212.944 309.196 212.916 309.19 212.89 309.18C212.864 309.169 212.841 309.154 212.821 309.134C212.801 309.114 212.785 309.091 212.775 309.065C212.764 309.039 212.758 309.012 212.758 308.984C212.758 308.956 212.764 308.928 212.775 308.902C212.785 308.877 212.801 308.853 212.821 308.833C212.841 308.814 212.864 308.798 212.89 308.788C212.916 308.777 212.944 308.772 212.971 308.772H287.079C287.135 308.772 287.189 308.795 287.228 308.835C287.267 308.874 287.29 308.928 287.29 308.984C287.29 309.04 287.267 309.093 287.228 309.133C287.189 309.173 287.135 309.195 287.079 309.195V309.195Z" fill="#CCCCCC"/>
<path d="M287.079 314.277H212.971C212.944 314.277 212.916 314.272 212.89 314.261C212.864 314.251 212.841 314.235 212.821 314.216C212.801 314.196 212.785 314.172 212.775 314.147C212.764 314.121 212.758 314.093 212.758 314.065C212.758 314.037 212.764 314.01 212.775 313.984C212.785 313.958 212.801 313.935 212.821 313.915C212.841 313.895 212.864 313.88 212.89 313.869C212.916 313.859 212.944 313.853 212.971 313.854H287.079C287.135 313.854 287.189 313.876 287.228 313.916C287.267 313.956 287.29 314.009 287.29 314.065C287.29 314.121 287.267 314.175 287.228 314.214C287.189 314.254 287.135 314.277 287.079 314.277Z" fill="#CCCCCC"/>
<path d="M274.079 263.68V291.206H205.117C203.269 291.27 201.427 290.962 199.702 290.299C197.976 289.637 196.401 288.633 195.071 287.349C193.741 286.064 192.684 284.525 191.961 282.824C191.239 281.122 190.867 279.292 190.867 277.443C190.867 275.594 191.239 273.765 191.961 272.063C192.684 270.361 193.741 268.822 195.071 267.538C196.401 266.253 197.976 265.25 199.702 264.587C201.427 263.924 203.269 263.616 205.117 263.68H274.079Z" fill="#F2F2F2"/>
<path d="M275.773 290.994C275.773 291.275 275.662 291.544 275.463 291.743C275.264 291.941 274.995 292.053 274.714 292.053H203.889C201.984 292.053 200.098 291.678 198.338 290.949C196.579 290.22 194.98 289.152 193.633 287.805C192.286 286.458 191.218 284.859 190.489 283.099C189.76 281.34 189.385 279.454 189.385 277.549C189.385 275.644 189.76 273.758 190.489 271.999C191.218 270.239 192.286 268.64 193.633 267.293C194.98 265.946 196.579 264.878 198.338 264.149C200.098 263.42 201.984 263.045 203.889 263.045H274.714C274.995 263.045 275.265 263.156 275.463 263.355C275.662 263.554 275.773 263.823 275.773 264.104C275.773 264.384 275.662 264.654 275.463 264.852C275.265 265.051 274.995 265.162 274.714 265.162H203.889C200.606 265.165 197.458 266.472 195.137 268.794C192.817 271.117 191.513 274.266 191.513 277.549C191.513 280.832 192.817 283.981 195.137 286.304C197.458 288.626 200.606 289.933 203.889 289.936H274.714C274.995 289.936 275.264 290.047 275.463 290.246C275.661 290.444 275.773 290.714 275.773 290.994V290.994Z" fill="#3F3D56"/>
<path d="M274.079 270.032H199.971C199.944 270.032 199.916 270.027 199.89 270.016C199.864 270.006 199.841 269.99 199.821 269.97C199.801 269.951 199.785 269.927 199.775 269.901C199.764 269.876 199.758 269.848 199.758 269.82C199.758 269.792 199.764 269.765 199.775 269.739C199.785 269.713 199.801 269.69 199.821 269.67C199.841 269.65 199.864 269.635 199.89 269.624C199.916 269.614 199.944 269.608 199.971 269.608H274.079C274.135 269.609 274.189 269.631 274.228 269.671C274.267 269.711 274.29 269.764 274.29 269.82C274.29 269.876 274.267 269.93 274.228 269.969C274.189 270.009 274.135 270.031 274.079 270.032V270.032Z" fill="#CCCCCC"/>
<path d="M274.079 275.114H199.971C199.944 275.114 199.916 275.109 199.89 275.098C199.864 275.088 199.841 275.072 199.821 275.052C199.801 275.033 199.785 275.009 199.775 274.984C199.764 274.958 199.758 274.93 199.758 274.902C199.758 274.874 199.764 274.847 199.775 274.821C199.785 274.795 199.801 274.772 199.821 274.752C199.841 274.732 199.864 274.717 199.89 274.706C199.916 274.696 199.944 274.69 199.971 274.69H274.079C274.135 274.691 274.189 274.713 274.228 274.753C274.267 274.793 274.29 274.846 274.29 274.902C274.29 274.958 274.267 275.012 274.228 275.051C274.189 275.091 274.135 275.114 274.079 275.114V275.114Z" fill="#CCCCCC"/>
<path d="M274.079 280.195H199.971C199.944 280.195 199.916 280.19 199.89 280.179C199.864 280.169 199.841 280.153 199.821 280.133C199.801 280.114 199.785 280.09 199.775 280.065C199.764 280.039 199.758 280.011 199.758 279.983C199.758 279.955 199.764 279.928 199.775 279.902C199.785 279.876 199.801 279.853 199.821 279.833C199.841 279.813 199.864 279.798 199.89 279.787C199.916 279.777 199.944 279.771 199.971 279.771H274.079C274.135 279.772 274.189 279.794 274.228 279.834C274.267 279.874 274.29 279.927 274.29 279.983C274.29 280.039 274.267 280.093 274.228 280.132C274.189 280.172 274.135 280.195 274.079 280.195V280.195Z" fill="#CCCCCC"/>
<path d="M274.079 285.277H199.971C199.944 285.277 199.916 285.272 199.89 285.261C199.864 285.251 199.841 285.235 199.821 285.215C199.801 285.196 199.785 285.172 199.775 285.147C199.764 285.121 199.758 285.093 199.758 285.065C199.758 285.037 199.764 285.01 199.775 284.984C199.785 284.958 199.801 284.935 199.821 284.915C199.841 284.895 199.864 284.88 199.89 284.869C199.916 284.859 199.944 284.853 199.971 284.854H274.079C274.135 284.854 274.189 284.876 274.228 284.916C274.267 284.956 274.29 285.009 274.29 285.065C274.29 285.121 274.267 285.175 274.228 285.214C274.189 285.254 274.135 285.277 274.079 285.277Z" fill="#CCCCCC"/>
<path d="M354.303 418.046V394.046C354.303 392.985 353.881 391.968 353.131 391.217C352.381 390.467 351.364 390.046 350.303 390.046H259.303C258.242 390.046 257.224 390.467 256.474 391.217C255.724 391.968 255.303 392.985 255.303 394.046V418.046H354.303Z" fill="#5E5E5E"/>
<path d="M354.303 427.046H255.303V458.046H354.303V427.046Z" fill="#5E5E5E"/>
<path d="M255.303 467.046V491.047C255.303 492.107 255.724 493.125 256.474 493.875C257.224 494.625 258.242 495.047 259.303 495.047H350.303C351.364 495.047 352.381 494.625 353.131 493.875C353.881 493.125 354.303 492.107 354.303 491.047V467.046H255.303Z" fill="#5E5E5E"/>
<path d="M304.303 408.046C305.96 408.046 307.303 406.703 307.303 405.046C307.303 403.389 305.96 402.046 304.303 402.046C302.646 402.046 301.303 403.389 301.303 405.046C301.303 406.703 302.646 408.046 304.303 408.046Z" fill="white"/>
<path d="M304.303 448.046C305.96 448.046 307.303 446.703 307.303 445.046C307.303 443.39 305.96 442.046 304.303 442.046C302.646 442.046 301.303 443.39 301.303 445.046C301.303 446.703 302.646 448.046 304.303 448.046Z" fill="white"/>
<path d="M304.464 487.199C306.121 487.199 307.464 485.856 307.464 484.199C307.464 482.542 306.121 481.199 304.464 481.199C302.807 481.199 301.464 482.542 301.464 484.199C301.464 485.856 302.807 487.199 304.464 487.199Z" fill="white"/>
<path d="M343.079 362.681V390.207H274.116C272.269 390.271 270.427 389.963 268.701 389.3C266.975 388.638 265.4 387.634 264.07 386.35C262.741 385.065 261.683 383.526 260.961 381.825C260.238 380.123 259.866 378.293 259.866 376.444C259.866 374.595 260.238 372.765 260.961 371.064C261.683 369.362 262.741 367.823 264.07 366.538C265.4 365.254 266.975 364.251 268.701 363.588C270.427 362.925 272.269 362.617 274.116 362.681H343.079Z" fill="#F2F2F2"/>
<path d="M344.773 389.995C344.772 390.275 344.661 390.545 344.462 390.743C344.264 390.942 343.995 391.053 343.714 391.053H272.888C270.982 391.055 269.095 390.681 267.334 389.953C265.573 389.225 263.972 388.157 262.624 386.81C261.276 385.463 260.207 383.863 259.477 382.103C258.748 380.342 258.372 378.455 258.372 376.549C258.372 374.644 258.748 372.757 259.477 370.996C260.207 369.236 261.276 367.636 262.624 366.289C263.972 364.942 265.573 363.874 267.334 363.146C269.095 362.418 270.982 362.044 272.888 362.045H343.714C343.995 362.045 344.264 362.157 344.462 362.355C344.661 362.554 344.773 362.823 344.773 363.104C344.773 363.385 344.661 363.654 344.462 363.853C344.264 364.051 343.995 364.163 343.714 364.163H272.888C269.605 364.166 266.457 365.472 264.137 367.795C261.816 370.117 260.513 373.266 260.513 376.549C260.513 379.833 261.816 382.981 264.137 385.304C266.457 387.627 269.605 388.933 272.888 388.936H343.714C343.995 388.936 344.264 389.048 344.462 389.246C344.661 389.445 344.772 389.714 344.773 389.995V389.995Z" fill="#3F3D56"/>
<path d="M343.079 369.033H268.971C268.943 369.033 268.915 369.028 268.89 369.017C268.864 369.007 268.84 368.991 268.82 368.971C268.8 368.952 268.785 368.928 268.774 368.902C268.763 368.877 268.758 368.849 268.758 368.821C268.758 368.793 268.763 368.766 268.774 368.74C268.785 368.714 268.8 368.691 268.82 368.671C268.84 368.651 268.864 368.636 268.89 368.625C268.915 368.615 268.943 368.609 268.971 368.609H343.079C343.135 368.61 343.188 368.632 343.228 368.672C343.267 368.712 343.289 368.765 343.289 368.821C343.289 368.877 343.267 368.931 343.228 368.97C343.188 369.01 343.135 369.032 343.079 369.033V369.033Z" fill="#CCCCCC"/>
<path d="M343.079 374.114H268.971C268.943 374.115 268.915 374.109 268.89 374.099C268.864 374.088 268.84 374.073 268.82 374.053C268.8 374.033 268.785 374.01 268.774 373.984C268.763 373.958 268.758 373.931 268.758 373.903C268.758 373.875 268.763 373.847 268.774 373.821C268.785 373.796 268.8 373.772 268.82 373.752C268.84 373.733 268.864 373.717 268.89 373.707C268.915 373.696 268.943 373.691 268.971 373.691H343.079C343.135 373.691 343.188 373.714 343.228 373.753C343.267 373.793 343.289 373.847 343.289 373.903C343.289 373.959 343.267 374.012 343.228 374.052C343.188 374.092 343.135 374.114 343.079 374.114V374.114Z" fill="#CCCCCC"/>
<path d="M343.079 379.196H268.971C268.943 379.196 268.915 379.191 268.89 379.18C268.864 379.17 268.84 379.154 268.82 379.134C268.8 379.115 268.785 379.091 268.774 379.066C268.763 379.04 268.758 379.012 268.758 378.984C268.758 378.956 268.763 378.929 268.774 378.903C268.785 378.877 268.8 378.854 268.82 378.834C268.84 378.814 268.864 378.799 268.89 378.788C268.915 378.778 268.943 378.772 268.971 378.772H343.079C343.135 378.773 343.188 378.795 343.228 378.835C343.267 378.875 343.289 378.928 343.289 378.984C343.289 379.04 343.267 379.094 343.228 379.133C343.188 379.173 343.135 379.195 343.079 379.196V379.196Z" fill="#CCCCCC"/>
<path d="M343.079 384.278H268.971C268.943 384.278 268.915 384.272 268.89 384.262C268.864 384.251 268.84 384.236 268.82 384.216C268.8 384.196 268.785 384.173 268.774 384.147C268.763 384.121 268.758 384.094 268.758 384.066C268.758 384.038 268.763 384.01 268.774 383.984C268.785 383.959 268.8 383.935 268.82 383.916C268.84 383.896 268.864 383.88 268.89 383.87C268.915 383.859 268.943 383.854 268.971 383.854H343.079C343.135 383.854 343.188 383.877 343.228 383.917C343.267 383.956 343.289 384.01 343.289 384.066C343.289 384.122 343.267 384.175 343.228 384.215C343.188 384.255 343.135 384.277 343.079 384.278V384.278Z" fill="#CCCCCC"/>
<path d="M250.11 183.023V7.52149C250.113 5.52736 250.906 3.61556 252.316 2.2055C253.726 0.795445 255.638 0.00226825 257.632 0H396.36C398.354 0.00228146 400.266 0.795463 401.676 2.20552C403.086 3.61558 403.879 5.52737 403.882 7.52149V183.023C403.879 185.017 403.086 186.929 401.676 188.339C400.266 189.749 398.354 190.542 396.36 190.544H257.632C255.638 190.542 253.726 189.749 252.316 188.339C250.906 186.929 250.113 185.017 250.11 183.023V183.023ZM257.632 1.67144C256.081 1.67318 254.594 2.29008 253.497 3.3868C252.4 4.48352 251.784 5.97049 251.782 7.52149V183.023C251.784 184.574 252.4 186.061 253.497 187.157C254.594 188.254 256.081 188.871 257.632 188.873H396.36C397.911 188.871 399.398 188.254 400.495 187.157C401.592 186.061 402.209 184.574 402.21 183.023V7.52149C402.209 5.9705 401.592 4.48352 400.495 3.3868C399.398 2.29008 397.911 1.67318 396.36 1.67144H257.632Z" fill="#292929"/>
<path d="M334.775 80.5984V44.5625C334.776 43.5654 335.173 42.6095 335.878 41.9045C336.583 41.1995 337.539 40.8029 338.536 40.8018H369.073C370.07 40.8029 371.026 41.1995 371.731 41.9045C372.436 42.6095 372.833 43.5654 372.834 44.5625V80.5984C372.833 81.5955 372.436 82.5514 371.731 83.2564C371.026 83.9615 370.07 84.3581 369.073 84.3592H338.536C337.539 84.3581 336.583 83.9615 335.878 83.2564C335.173 82.5514 334.776 81.5955 334.775 80.5984V80.5984Z" fill="#5755CC"/>
<path d="M275.44 97.3132V61.2773C275.441 60.2803 275.838 59.3243 276.543 58.6193C277.248 57.9143 278.204 57.5177 279.201 57.5166H309.738C310.735 57.5177 311.691 57.9143 312.396 58.6193C313.101 59.3243 313.497 60.2803 313.498 61.2773V97.3132C313.497 98.3103 313.101 99.2662 312.396 99.9713C311.691 100.676 310.735 101.073 309.738 101.074H279.201C278.204 101.073 277.248 100.676 276.543 99.9712C275.838 99.2662 275.441 98.3103 275.44 97.3132V97.3132Z" fill="#CCCCCC"/>
<path d="M323.075 148.292V112.256C323.076 111.259 323.473 110.303 324.178 109.598C324.883 108.893 325.839 108.496 326.836 108.495H357.373C358.37 108.496 359.326 108.893 360.031 109.598C360.736 110.303 361.132 111.259 361.134 112.256V148.292C361.132 149.289 360.736 150.245 360.031 150.95C359.326 151.655 358.37 152.051 357.373 152.053H326.836C325.839 152.051 324.883 151.655 324.178 150.95C323.473 150.245 323.076 149.289 323.075 148.292V148.292Z" fill="#5E5E5E"/>
<path d="M505.563 313.044H474.143C473.845 313.044 473.551 313.112 473.283 313.244L465.353 317.214C465.092 317.325 464.869 317.51 464.713 317.747C464.557 317.983 464.473 318.261 464.473 318.544C464.473 318.828 464.557 319.105 464.713 319.342C464.869 319.578 465.092 319.763 465.353 319.874L473.283 323.844C473.551 323.976 473.845 324.045 474.143 324.044H505.563C505.996 324.069 506.421 323.923 506.747 323.637C507.073 323.35 507.273 322.947 507.303 322.514V314.574C507.273 314.142 507.073 313.738 506.747 313.452C506.421 313.166 505.996 313.019 505.563 313.044Z" fill="#3F3D56"/>
<path d="M507.303 314.576V322.516C507.273 322.948 507.073 323.352 506.747 323.638C506.421 323.924 505.996 324.071 505.563 324.046H499.303V313.046H505.563C505.996 313.021 506.421 313.167 506.747 313.454C507.073 313.74 507.273 314.143 507.303 314.576V314.576Z" fill="#5755CC"/>
<path d="M505.327 253.645C506.75 253.031 508.287 252.724 509.837 252.746C511.387 252.767 512.914 253.115 514.32 253.768C515.726 254.421 516.978 255.363 517.994 256.534C519.011 257.704 519.768 259.076 520.217 260.56C520.357 261.03 520.464 261.51 520.537 261.995L564.475 283.783L574.644 277.045L587.296 291.61L571.77 304.22C569.903 305.724 567.6 306.587 565.204 306.679C562.808 306.772 560.446 306.089 558.468 304.733L513.889 273.904C513.557 274.045 513.219 274.169 512.874 274.275C511.39 274.723 509.829 274.854 508.291 274.657C506.753 274.46 505.275 273.94 503.952 273.132C502.629 272.323 501.492 271.245 500.615 269.966C499.738 268.688 499.141 267.239 498.864 265.714C498.781 265.271 498.727 264.824 498.701 264.374C498.578 262.123 499.146 259.888 500.331 257.97C501.515 256.052 503.259 254.543 505.327 253.645V253.645Z" fill="#FFB8B8"/>
<path d="M596.841 387.795H548.831C548.831 389.175 499.351 390.295 499.351 390.295C498.574 390.88 497.867 391.551 497.241 392.295C495.362 394.536 494.335 397.37 494.341 400.295V402.295C494.342 405.61 495.659 408.789 498.003 411.133C500.347 413.477 503.526 414.794 506.841 414.795H596.841C600.155 414.792 603.333 413.474 605.676 411.131C608.02 408.787 609.338 405.609 609.341 402.295V400.295C609.336 396.981 608.018 393.804 605.675 391.461C603.331 389.118 600.155 387.8 596.841 387.795V387.795Z" fill="#1F1F1F"/>
<path d="M544.618 498.298H557.618V414.298H544.618V498.298Z" fill="#3F3D56"/>
<path d="M507.618 497.842C507.618 499.246 527.317 498.385 551.618 498.385C575.918 498.385 595.618 499.246 595.618 497.842C595.618 496.437 575.918 485.298 551.618 485.298C527.317 485.298 507.618 496.437 507.618 497.842Z" fill="#3F3D56"/>
<path d="M519.353 487.997L507.094 487.996L501.261 456.199L519.355 456.2L519.353 487.997Z" fill="#FFB8B8"/>
<path d="M522.48 499.879L482.95 499.878V499.378C482.95 497.357 483.348 495.356 484.121 493.489C484.894 491.623 486.028 489.926 487.456 488.498C488.885 487.069 490.581 485.936 492.448 485.162C494.315 484.389 496.316 483.991 498.336 483.991H498.337L522.481 483.992L522.48 499.879Z" fill="#2F2E41"/>
<path d="M501.017 468.279L476.576 413.471C474.535 408.851 474.31 403.633 475.944 398.854C477.578 394.076 480.953 390.088 485.395 387.686L538.408 359.258L562.599 357.201L584.914 355.172L585.075 355.445C585.281 355.792 590.078 364.08 586.835 373.167C584.375 380.059 577.976 385.443 567.817 389.169C544.102 397.864 516.707 405.296 506.03 408.087C505.558 408.207 505.117 408.427 504.736 408.73C504.355 409.033 504.042 409.414 503.819 409.847C503.595 410.274 503.462 410.744 503.428 411.225C503.394 411.707 503.46 412.191 503.623 412.645L526.329 463.66C526.566 464.307 526.652 465 526.579 465.685C526.506 466.371 526.277 467.03 525.908 467.613C525.54 468.195 525.043 468.685 524.456 469.045C523.868 469.406 523.206 469.626 522.52 469.69L505.553 470.925C505.409 470.939 505.266 470.946 505.123 470.946C504.254 470.945 503.404 470.693 502.675 470.22C501.947 469.747 501.371 469.072 501.017 468.279V468.279Z" fill="#2F2E41"/>
<path d="M525.353 487.997L513.094 487.996L507.261 456.199L525.355 456.2L525.353 487.997Z" fill="#FFB8B8"/>
<path d="M528.48 499.879L488.949 499.878V499.378C488.949 497.357 489.347 495.356 490.12 493.489C490.894 491.623 492.027 489.926 493.456 488.498C494.885 487.069 496.581 485.936 498.448 485.162C500.314 484.389 502.315 483.991 504.336 483.991H504.337L528.481 483.992L528.48 499.879Z" fill="#2F2E41"/>
<path d="M508.017 471.278L483.576 416.47C481.535 411.851 481.31 406.632 482.944 401.854C484.578 397.075 487.953 393.088 492.395 390.686L545.408 362.258L569.599 360.2L591.914 358.172L592.075 358.444C592.281 358.792 597.078 367.079 593.835 376.166C591.375 383.059 584.976 388.443 574.817 392.168C551.102 400.864 523.707 408.295 513.03 411.086C512.558 411.207 512.117 411.426 511.736 411.729C511.355 412.033 511.042 412.413 510.819 412.846C510.595 413.274 510.462 413.743 510.428 414.225C510.394 414.707 510.46 415.19 510.623 415.645L533.329 466.66C533.566 467.307 533.652 468 533.579 468.685C533.506 469.37 533.277 470.03 532.908 470.612C532.54 471.195 532.043 471.685 531.456 472.045C530.868 472.405 530.206 472.626 529.52 472.689L512.553 473.925C512.409 473.938 512.266 473.945 512.123 473.945C511.254 473.945 510.404 473.693 509.675 473.22C508.947 472.746 508.371 472.072 508.017 471.278V471.278Z" fill="#292929"/>
<path d="M495.835 303.846C485.564 290.185 477.445 275.032 471.759 258.914C471.43 257.95 471.453 256.9 471.826 255.952C472.198 255.003 472.894 254.218 473.791 253.735L508.936 234.903C509.505 234.596 510.136 234.423 510.782 234.397C511.427 234.37 512.07 234.492 512.662 234.752C513.265 235.014 513.799 235.409 514.226 235.909C514.652 236.409 514.959 236.999 515.123 237.636C519.214 253.167 526.903 267.518 537.569 279.527C538.008 280.016 538.33 280.598 538.51 281.23C538.69 281.862 538.723 282.527 538.607 283.173C538.496 283.81 538.241 284.413 537.861 284.936C537.482 285.459 536.988 285.888 536.418 286.191L501.272 305.023C500.373 305.503 499.334 305.647 498.338 305.432C497.342 305.216 496.455 304.654 495.835 303.846V303.846Z" fill="#CCCCCC"/>
<path d="M498.233 302.044C498.422 302.28 498.687 302.442 498.984 302.503C499.28 302.564 499.588 302.52 499.855 302.379L535 283.546C535.171 283.458 535.319 283.33 535.432 283.175C535.545 283.019 535.621 282.839 535.653 282.649C535.69 282.449 535.679 282.243 535.623 282.047C535.567 281.852 535.466 281.672 535.328 281.522C524.348 269.159 516.432 254.386 512.221 238.396C512.172 238.199 512.079 238.015 511.947 237.86C511.816 237.705 511.65 237.582 511.463 237.501C511.287 237.423 511.095 237.386 510.902 237.394C510.71 237.402 510.522 237.454 510.353 237.547L475.208 256.379C474.942 256.523 474.734 256.755 474.621 257.036C474.508 257.316 474.496 257.628 474.588 257.916C480.172 273.745 488.146 288.627 498.233 302.044V302.044Z" fill="white"/>
<path d="M612.592 298.823L585.068 309.282L578.348 290.615C577.455 288.137 577.468 285.422 578.383 282.952C579.299 280.482 581.058 278.415 583.35 277.116V277.116C585.668 275.802 588.38 275.36 590.996 275.871C593.611 276.382 595.958 277.811 597.612 279.9L612.592 298.823Z" fill="#5755CC"/>
<path d="M542.582 372.783C542.003 372.374 541.518 371.845 541.158 371.233C540.799 370.621 540.574 369.94 540.499 369.234C536.973 336.325 539.429 310.57 548.005 290.499C549.515 287.037 551.791 283.963 554.66 281.507C557.529 279.051 560.918 277.277 564.572 276.319L586.821 275.196L586.936 275.252C591.957 277.711 596.052 281.723 598.613 286.692C601.174 291.662 602.066 297.324 601.156 302.841C593.999 321.704 588.007 341.344 592.577 357.187C592.769 357.849 592.825 358.544 592.741 359.228C592.658 359.913 592.438 360.573 592.093 361.171C591.759 361.748 591.31 362.25 590.774 362.648C590.238 363.045 589.627 363.328 588.977 363.48L546.599 373.561C545.913 373.724 545.199 373.739 544.507 373.605C543.814 373.471 543.158 373.191 542.582 372.783Z" fill="white"/>
<path d="M579.396 266.886C592.961 266.886 603.957 255.89 603.957 242.325C603.957 228.76 592.961 217.764 579.396 217.764C565.831 217.764 554.835 228.76 554.835 242.325C554.835 255.89 565.831 266.886 579.396 266.886Z" fill="#FFB8B8"/>
<path d="M511.243 261.777L492.101 270.227C491.373 270.547 490.548 270.566 489.806 270.278C489.065 269.991 488.467 269.421 488.145 268.694L487.672 267.621C487.352 266.893 487.333 266.068 487.62 265.326C487.908 264.584 488.478 263.987 489.205 263.665L508.346 255.215C509.074 254.895 509.9 254.876 510.641 255.164C511.383 255.451 511.98 256.021 512.302 256.748L512.776 257.821C513.096 258.549 513.115 259.374 512.827 260.116C512.54 260.858 511.97 261.455 511.243 261.777V261.777Z" fill="#CCCCCC"/>
<path d="M518.243 274.777L499.102 283.227C498.374 283.547 497.549 283.566 496.807 283.278C496.065 282.991 495.468 282.421 495.146 281.694L494.672 280.621C494.352 279.893 494.333 279.068 494.621 278.326C494.908 277.584 495.478 276.987 496.205 276.665L515.347 268.215C516.075 267.895 516.9 267.876 517.642 268.164C518.384 268.451 518.981 269.021 519.303 269.748L519.777 270.821C520.097 271.549 520.115 272.374 519.828 273.116C519.541 273.858 518.971 274.455 518.243 274.777V274.777Z" fill="#CCCCCC"/>
<path d="M533.005 325.556L490.331 291.889C489.991 292.009 489.645 292.111 489.295 292.195C487.788 292.547 486.225 292.579 484.706 292.288C483.187 291.996 481.746 291.388 480.477 290.504C479.199 289.618 478.126 288.471 477.328 287.137C476.53 285.803 476.026 284.314 475.85 282.77C475.564 280.302 476.12 277.809 477.429 275.696C478.738 273.584 480.722 271.975 483.059 271.132C484.518 270.609 486.071 270.399 487.617 270.518C489.162 270.637 490.665 271.081 492.027 271.821C493.389 272.561 494.58 273.58 495.52 274.812C496.461 276.044 497.131 277.461 497.486 278.969C497.595 279.448 497.672 279.933 497.715 280.422L540.196 304.929L550.768 298.843L562.479 314.175L546.065 325.874C544.143 327.232 541.835 327.935 539.482 327.878C537.13 327.82 534.858 327.006 533.005 325.556V325.556Z" fill="#FFB8B8"/>
<path d="M567.686 318.949L543.337 302.392L554.78 286.185C556.299 284.033 558.531 282.487 561.079 281.821C563.628 281.155 566.33 281.411 568.708 282.545V282.545C571.114 283.691 573.03 285.66 574.111 288.096C575.192 290.532 575.367 293.274 574.603 295.827L567.686 318.949Z" fill="white"/>
<path d="M570.391 238.666C564.079 242.987 555.79 247.428 549.342 242.827C545.109 239.806 543.775 234.211 545.492 229.302C548.579 220.473 557.061 216.587 565.172 213.607C575.717 209.734 587.198 206.653 598.083 209.427C608.969 212.2 618.589 222.74 616.624 233.8C615.044 242.694 606.654 250.095 607.845 259.05C609.044 268.062 619.179 272.806 628.126 274.416C637.074 276.027 647.087 276.545 653.517 282.972C661.72 291.17 659.672 305.825 651.953 314.481C644.234 323.138 632.586 327.062 621.299 329.729C606.345 333.263 590.17 335.121 575.967 329.255C561.764 323.39 550.711 307.601 554.826 292.795C556.564 286.541 560.658 281.256 564.614 276.111C568.571 270.965 572.577 265.585 574.087 259.272C575.344 254.011 574.414 247.903 570.925 243.957C570.29 243.266 569.891 242.392 569.784 241.46C569.677 240.528 569.869 239.587 570.331 238.77L570.391 238.666Z" fill="#2F2E41"/>
<path d="M109.072 358.001C102.743 360.226 95.9479 360.783 89.3411 359.619C82.7343 358.455 76.5386 355.61 71.3508 351.356C58.1388 340.267 53.9965 321.997 50.626 305.081C47.3029 288.402 43.9798 271.724 40.6567 255.045L61.5284 269.416C76.538 279.752 91.8858 290.418 102.278 305.388C112.671 320.358 117.207 340.793 108.857 356.991" fill="#5755CC"/>
<path d="M107.288 418.58C109.401 403.192 111.573 387.607 110.091 372.055C108.775 358.242 104.561 344.752 95.9825 333.69C91.4288 327.83 85.8878 322.809 79.6087 318.852C77.9713 317.819 76.4643 320.414 78.0945 321.443C88.9593 328.31 97.3627 338.449 102.093 350.4C107.318 363.689 108.157 378.176 107.257 392.293C106.712 400.83 105.558 409.312 104.396 417.782C104.304 418.165 104.361 418.569 104.556 418.911C104.75 419.254 105.067 419.51 105.443 419.627C105.827 419.731 106.236 419.679 106.581 419.483C106.926 419.287 107.181 418.962 107.288 418.58H107.288Z" fill="#F2F2F2"/>
<path d="M86.9412 391.351C84.2268 395.476 80.4958 398.833 76.1075 401.098C71.7192 403.363 66.8216 404.459 61.8864 404.282C49.2033 403.68 38.6296 394.828 29.1113 386.424L0.958008 361.567L19.5908 360.675C32.9904 360.034 46.7357 359.435 59.4984 363.568C72.2611 367.7 84.0315 377.645 86.3652 390.855" fill="#5755CC"/>
<path d="M113.258 427.425C103.09 409.434 91.2968 389.439 70.2235 383.048C64.364 381.277 58.22 380.642 52.1224 381.179C50.2006 381.345 50.6805 384.307 52.5988 384.142C62.8198 383.293 73.0211 385.992 81.4853 391.784C89.6302 397.328 95.9718 405.036 101.339 413.209C104.627 418.216 107.572 423.435 110.518 428.647C111.459 430.313 114.211 429.11 113.258 427.425V427.425Z" fill="#F2F2F2"/>
<path d="M129.55 446.363C129.207 442.393 127.782 438.593 125.429 435.378C123.077 432.162 119.887 429.654 116.207 428.126V417.725H98.7621V428.453C95.2635 430.057 92.2526 432.559 90.0363 435.705C87.82 438.851 86.4776 442.528 86.146 446.363L82.0439 494.046H133.652L129.55 446.363Z" fill="white"/>
</g>
<defs>
<clipPath id="clip0">
<rect width="692" height="499.88" fill="white"/>
</clipPath>
</defs>
</svg>
